<?xml version="1.0" encoding="UTF-8" standalone="no"?>
<!-- Created with Inkscape (http://www.inkscape.org/) -->

<svg
   xmlns:dc="http://purl.org/dc/elements/1.1/"
   xmlns:cc="http://creativecommons.org/ns#"
   xmlns:rdf="http://www.w3.org/1999/02/22-rdf-syntax-ns#"
   xmlns:svg="http://www.w3.org/2000/svg"
   xmlns="http://www.w3.org/2000/svg"
   xmlns:sodipodi="http://sodipodi.sourceforge.net/DTD/sodipodi-0.dtd"
   xmlns:inkscape="http://www.inkscape.org/namespaces/inkscape"
   width="303.3071"
   height="191.26772"
   id="svg2"
   version="1.1"
   inkscape:version="0.47 r22583"
   sodipodi:docname="flag-1-avs.svg">
  <defs
     id="defs4">
    <inkscape:perspective
       sodipodi:type="inkscape:persp3d"
       inkscape:vp_x="0 : 526.18109 : 1"
       inkscape:vp_y="0 : 1000 : 0"
       inkscape:vp_z="744.09448 : 526.18109 : 1"
       inkscape:persp3d-origin="372.04724 : 350.78739 : 1"
       id="perspective10" />
    <inkscape:perspective
       sodipodi:type="inkscape:persp3d"
       inkscape:vp_x="0 : 0.5 : 1"
       inkscape:vp_y="0 : 1000 : 0"
       inkscape:vp_z="1 : 0.5 : 1"
       inkscape:persp3d-origin="0.5 : 0.33333333 : 1"
       id="perspective4387-7" />
    <inkscape:perspective
       sodipodi:type="inkscape:persp3d"
       inkscape:vp_x="0 : 0.5 : 1"
       inkscape:vp_y="0 : 1000 : 0"
       inkscape:vp_z="1 : 0.5 : 1"
       inkscape:persp3d-origin="0.5 : 0.33333333 : 1"
       id="perspective4387" />
    <inkscape:perspective
       id="perspective4371"
       inkscape:persp3d-origin="372.04724 : 350.78739 : 1"
       inkscape:vp_z="744.09448 : 526.18109 : 1"
       inkscape:vp_y="0 : 1000 : 0"
       inkscape:vp_x="0 : 526.18109 : 1"
       sodipodi:type="inkscape:persp3d" />
    <inkscape:perspective
       id="perspective2833"
       inkscape:persp3d-origin="0.5 : 0.33333333 : 1"
       inkscape:vp_z="1 : 0.5 : 1"
       inkscape:vp_y="0 : 1000 : 0"
       inkscape:vp_x="0 : 0.5 : 1"
       sodipodi:type="inkscape:persp3d" />
    <inkscape:perspective
       sodipodi:type="inkscape:persp3d"
       inkscape:vp_x="0 : 526.18109 : 1"
       inkscape:vp_y="0 : 1000 : 0"
       inkscape:vp_z="744.09448 : 526.18109 : 1"
       inkscape:persp3d-origin="372.04724 : 350.78739 : 1"
       id="perspective4371-1" />
    <inkscape:perspective
       id="perspective4387-5"
       inkscape:persp3d-origin="0.5 : 0.33333333 : 1"
       inkscape:vp_z="1 : 0.5 : 1"
       inkscape:vp_y="0 : 1000 : 0"
       inkscape:vp_x="0 : 0.5 : 1"
       sodipodi:type="inkscape:persp3d" />
    <inkscape:perspective
       id="perspective4387-7-5"
       inkscape:persp3d-origin="0.5 : 0.33333333 : 1"
       inkscape:vp_z="1 : 0.5 : 1"
       inkscape:vp_y="0 : 1000 : 0"
       inkscape:vp_x="0 : 0.5 : 1"
       sodipodi:type="inkscape:persp3d" />
    <inkscape:perspective
       id="perspective10-4"
       inkscape:persp3d-origin="372.04724 : 350.78739 : 1"
       inkscape:vp_z="744.09448 : 526.18109 : 1"
       inkscape:vp_y="0 : 1000 : 0"
       inkscape:vp_x="0 : 526.18109 : 1"
       sodipodi:type="inkscape:persp3d" />
    <inkscape:perspective
       sodipodi:type="inkscape:persp3d"
       inkscape:vp_x="0 : 0.5 : 1"
       inkscape:vp_y="0 : 1000 : 0"
       inkscape:vp_z="1 : 0.5 : 1"
       inkscape:persp3d-origin="0.5 : 0.33333333 : 1"
       id="perspective4387-7-1" />
    <inkscape:perspective
       sodipodi:type="inkscape:persp3d"
       inkscape:vp_x="0 : 0.5 : 1"
       inkscape:vp_y="0 : 1000 : 0"
       inkscape:vp_z="1 : 0.5 : 1"
       inkscape:persp3d-origin="0.5 : 0.33333333 : 1"
       id="perspective4387-2" />
    <inkscape:perspective
       id="perspective4371-2"
       inkscape:persp3d-origin="372.04724 : 350.78739 : 1"
       inkscape:vp_z="744.09448 : 526.18109 : 1"
       inkscape:vp_y="0 : 1000 : 0"
       inkscape:vp_x="0 : 526.18109 : 1"
       sodipodi:type="inkscape:persp3d" />
    <inkscape:perspective
       sodipodi:type="inkscape:persp3d"
       inkscape:vp_x="0 : 0.5 : 1"
       inkscape:vp_y="0 : 1000 : 0"
       inkscape:vp_z="1 : 0.5 : 1"
       inkscape:persp3d-origin="0.5 : 0.33333333 : 1"
       id="perspective4387-7-18" />
    <inkscape:perspective
       sodipodi:type="inkscape:persp3d"
       inkscape:vp_x="0 : 0.5 : 1"
       inkscape:vp_y="0 : 1000 : 0"
       inkscape:vp_z="1 : 0.5 : 1"
       inkscape:persp3d-origin="0.5 : 0.33333333 : 1"
       id="perspective4387-76" />
    <inkscape:perspective
       id="perspective4371-5"
       inkscape:persp3d-origin="372.04724 : 350.78739 : 1"
       inkscape:vp_z="744.09448 : 526.18109 : 1"
       inkscape:vp_y="0 : 1000 : 0"
       inkscape:vp_x="0 : 526.18109 : 1"
       sodipodi:type="inkscape:persp3d" />
    <inkscape:perspective
       sodipodi:type="inkscape:persp3d"
       inkscape:vp_x="0 : 0.5 : 1"
       inkscape:vp_y="0 : 1000 : 0"
       inkscape:vp_z="1 : 0.5 : 1"
       inkscape:persp3d-origin="0.5 : 0.33333333 : 1"
       id="perspective4387-7-54" />
    <inkscape:perspective
       sodipodi:type="inkscape:persp3d"
       inkscape:vp_x="0 : 0.5 : 1"
       inkscape:vp_y="0 : 1000 : 0"
       inkscape:vp_z="1 : 0.5 : 1"
       inkscape:persp3d-origin="0.5 : 0.33333333 : 1"
       id="perspective4387-9" />
    <inkscape:perspective
       id="perspective4371-7"
       inkscape:persp3d-origin="372.04724 : 350.78739 : 1"
       inkscape:vp_z="744.09448 : 526.18109 : 1"
       inkscape:vp_y="0 : 1000 : 0"
       inkscape:vp_x="0 : 526.18109 : 1"
       sodipodi:type="inkscape:persp3d" />
    <inkscape:perspective
       id="perspective2926"
       inkscape:persp3d-origin="0.5 : 0.33333333 : 1"
       inkscape:vp_z="1 : 0.5 : 1"
       inkscape:vp_y="0 : 1000 : 0"
       inkscape:vp_x="0 : 0.5 : 1"
       sodipodi:type="inkscape:persp3d" />
  </defs>
  <sodipodi:namedview
     id="base"
     pagecolor="#ffffff"
     bordercolor="#666666"
     borderopacity="1.0"
     inkscape:pageopacity="0.0"
     inkscape:pageshadow="2"
     inkscape:zoom="5.3265625"
     inkscape:cx="92.122532"
     inkscape:cy="86.67486"
     inkscape:document-units="px"
     inkscape:current-layer="layer1"
     showgrid="false"
     inkscape:window-width="1024"
     inkscape:window-height="712"
     inkscape:window-x="-4"
     inkscape:window-y="-4"
     inkscape:window-maximized="1" />
  <metadata
     id="metadata7">
    <rdf:RDF>
      <cc:Work
         rdf:about="">
        <dc:format>image/svg+xml</dc:format>
        <dc:type
           rdf:resource="http://purl.org/dc/dcmitype/StillImage" />
        <dc:title></dc:title>
      </cc:Work>
    </rdf:RDF>
  </metadata>
  <g
     inkscape:label="Layer 1"
     inkscape:groupmode="layer"
     id="layer1"
     transform="translate(0,-861.09447)">
    <path
       style="fill:#008000;fill-opacity:1"
       d="m 65.844522,29.311431 4.513536,0 c 7.915318,9.743117 31.230522,29.010476 38.028852,45.247194 10.96485,26.187785 17.53605,53.019785 20.91262,73.166745 -21.25752,-1.419 -44.104597,-9.35268 -43.011345,3.45153 L 86.022683,119.05114 C 82.004916,109.1743 79.01585,96.941243 70.358058,91.704425 l -5.04454,0 0.531004,-62.392994 z"
       id="path2816"
       sodipodi:nodetypes="ccscccccc"
       transform="translate(0,861.09447)" />
    <g
       id="g2890"
       transform="matrix(0,-0.38163709,0.27034507,0,-167.54029,1016.0783)">
      <g
         id="g2847">
        <path
           style="fill:#ffcc00;fill-opacity:1"
           d="M 95.105857,109.59688 151.32085,72.473776 204.70742,97.929621 158.03837,141.06313 95.105857,109.59688 z"
           id="path4368"
           transform="translate(0,861.09449)"
           sodipodi:nodetypes="ccccc" />
        <path
           sodipodi:type="arc"
           style="fill:#0044aa;fill-opacity:1"
           id="path4370"
           sodipodi:cx="151.49763"
           sodipodi:cy="108.18267"
           sodipodi:rx="21.743534"
           sodipodi:ry="19.445436"
           d="m 173.24117,108.18267 c 0,10.73942 -9.73491,19.44544 -21.74354,19.44544 -12.00862,0 -21.74353,-8.70602 -21.74353,-19.44544 0,-10.739417 9.73491,-19.445436 21.74353,-19.445436 12.00863,0 21.74354,8.706019 21.74354,19.445436 z"
           transform="translate(1.767767,857.55896)" />
      </g>
      <g
         id="g2866">
        <path
           style="fill:#0044aa;fill-opacity:1"
           d="m 173.59471,110.65754 1.41422,-6.36396 -36.76955,-13.435028"
           id="path4372"
           transform="translate(0,861.09449)" />
        <path
           style="fill:#afdde9;fill-opacity:1"
           d="m 109.60155,67.170475 23.68808,8.838835"
           id="path4374"
           transform="translate(0,861.09449)" />
        <path
           style="fill:#dbe2e3;fill-opacity:1"
           d="m 137.35549,952.83692 -2.12131,2.82843 c 15.94989,0.076 34.07248,9.87563 36.76954,19.26867 1.61459,-2.35703 1.88949,-2.41595 1.76778,-4.77298 -7.65785,-10.69119 -22.37083,-15.17649 -36.41601,-17.32412 z"
           id="path4378"
           sodipodi:nodetypes="ccccc" />
        <path
           style="fill:#dbe2e3;fill-opacity:1"
           id="path4380"
           d="m 138.09935,93.165534 c 0.64012,0.09324 1.28766,0.113887 1.93329,0.134848 0.7083,-0.014 1.39784,0.160505 2.09519,0.256524 0.57571,0.0755 1.15616,0.101378 1.73615,0.114415 0.47046,-0.02062 0.9334,0.02936 1.39927,0.08486 0.58565,0.0594 1.16721,0.1557 1.74481,0.268448 0.56268,0.09674 1.11172,0.261833 1.65764,0.426757 0.49665,0.151814 0.93763,0.426856 1.41544,0.623351 0.38402,0.116842 0.77153,0.213892 1.15012,0.348582 0.43808,0.184775 0.85674,0.44363 1.20912,0.763782 0.37229,0.336676 0.67426,0.737548 1.08372,1.032169 0.41814,0.292325 0.85487,0.559316 1.33513,0.734884 0.32098,0.123152 0.61903,0.294113 0.91357,0.470065 0.44342,0.231679 0.89759,0.438672 1.34845,0.655197 0.6193,0.247485 1.23564,0.50168 1.85993,0.736628 0.60347,0.224406 1.24437,0.324846 1.85351,0.526096 0.4921,0.2027 0.97563,0.42456 1.46175,0.64094 0.35463,0.13992 0.71434,0.23374 1.05421,0.40861 0.27202,0.17939 0.51356,0.39784 0.79739,0.55859 0.27953,0.16126 0.52962,0.36222 0.76322,0.58389 0.29796,0.33899 0.50845,0.74192 0.75282,1.1192 0.28129,0.40429 0.68412,0.68873 1.07532,0.97669 0.45717,0.26938 0.91199,0.54363 1.38191,0.79039 0.35449,0.20687 0.64769,0.49732 0.96681,0.75236 0.36339,0.28372 0.76991,0.51493 1.09945,0.83895 0.27926,0.30262 0.48266,0.66569 0.64245,1.0429 0.14305,0.36746 0.1789,0.75912 0.19756,1.1492 0.011,0.35633 0.007,0.7129 0.006,1.06934 -0.0136,0.34145 -0.0274,0.61593 0.12787,0.92537 0.0668,0.0913 0.0279,0.0625 0.10414,0.10117 0,0 -0.17507,0.0183 -0.17507,0.0183 l 0,0 c -0.0751,-0.0496 -0.037,-0.016 -0.10387,-0.11139 -0.15449,-0.31179 -0.14089,-0.59062 -0.12745,-0.93354 0.002,-0.35613 0.005,-0.7124 -0.006,-1.06843 -0.0185,-0.38804 -0.054,-0.77769 -0.19694,-1.14305 -0.15975,-0.3751 -0.36313,-0.73597 -0.64231,-1.03603 -0.33097,-0.32179 -0.73631,-0.55359 -1.0992,-0.83723 -0.31832,-0.25464 -0.61099,-0.54475 -0.96613,-0.74911 -0.46949,-0.24823 -0.92544,-0.52125 -1.38154,-0.79304 -0.39258,-0.28912 -0.79601,-0.57574 -1.07655,-0.98287 -0.24393,-0.3762 -0.45269,-0.77938 -0.75309,-1.115 -0.23448,-0.21936 -0.48344,-0.42006 -0.76294,-0.57977 -0.28222,-0.16287 -0.52403,-0.38083 -0.79742,-0.55781 -0.33945,-0.17393 -0.70093,-0.26422 -1.0533,-0.40772 -0.48591,-0.21549 -0.96775,-0.43986 -1.4606,-0.6393 -0.6101,-0.19805 -1.24953,-0.30242 -1.85279,-0.526946 -0.62473,-0.235175 -1.24178,-0.489218 -1.86107,-0.738004 -0.45175,-0.216062 -0.90625,-0.423917 -1.34987,-0.65661 -0.29456,-0.174463 -0.59199,-0.345168 -0.91284,-0.466941 -0.47975,-0.178764 -0.91671,-0.446795 -1.33532,-0.739645 -0.40733,-0.297605 -0.71087,-0.697522 -1.08369,-1.034037 -0.35346,-0.317263 -0.77077,-0.575492 -1.20932,-0.756897 -0.37855,-0.134435 -0.76708,-0.228652 -1.14972,-0.349521 -0.47635,-0.198309 -0.91794,-0.471473 -1.41457,-0.621713 -0.54603,-0.163807 -1.09444,-0.32939 -1.65717,-0.425079 -0.57772,-0.112567 -1.15953,-0.207669 -1.74526,-0.267091 -0.46578,-0.05557 -0.92898,-0.102122 -1.39921,-0.08319 -0.57959,-0.01366 -1.15961,-0.04037 -1.73483,-0.116614 -0.69698,-0.09684 -1.38657,-0.269354 -2.09469,-0.254779 -0.64685,-0.02137 -1.29562,-0.04251 -1.93688,-0.136637 0,0 0.17331,-0.02452 0.17331,-0.02452 z"
           transform="translate(0,861.09449)" />
        <path
           style="fill:#00aa44;fill-opacity:1"
           id="path4394"
           d="m 138.7705,92.03155 c 0.77839,0.222376 1.54598,0.47261 2.30808,0.747162 0.95322,0.336475 1.91686,0.650516 2.88704,0.935258 0.95889,0.316477 1.95363,0.480906 2.93822,0.690869 0.56396,0.12817 1.11951,0.282921 1.67113,0.455802 0,0 -0.31594,0.983672 -0.31594,0.983672 l 0,0 c -0.51704,-0.170306 -1.03771,-0.32242 -1.56904,-0.442914 -1.00895,-0.217917 -2.02948,-0.384662 -3.01297,-0.708291 -0.98854,-0.292531 -1.97016,-0.614429 -2.94288,-0.955265 -0.78341,-0.2804 -1.57458,-0.522801 -2.3763,-0.743435 0,0 0.41266,-0.962858 0.41266,-0.962858 z"
           transform="translate(0,861.09449)" />
        <path
           style="fill:#00aa44;fill-opacity:1"
           id="path4396"
           d="m 152.22719,956.51577 c 0.4489,0.31272 0.93794,0.53889 1.41665,0.78889 0.58662,0.36754 1.15024,0.77523 1.74205,1.13275 0.40713,0.24949 0.78111,0.57044 1.22249,0.74471 0.13363,0.0477 0.2727,0.065 0.41141,0.0829 0,0 -0.13064,1.14184 -0.13064,1.14184 l 0,0 c -0.22059,-0.032 -0.441,-0.066 -0.65147,-0.15033 -0.48273,-0.20829 -0.91093,-0.52284 -1.34974,-0.82335 -0.57294,-0.34708 -1.12318,-0.73511 -1.68738,-1.09858 -0.51016,-0.26481 -1.02596,-0.51541 -1.51397,-0.82784 0,0 0.54055,-0.99096 0.54055,-0.99096 z" />
        <path
           style="fill:#00aa44;fill-opacity:1"
           id="path4398"
           d="m 160.95839,960.21621 c 0.49246,0.45362 0.96165,0.92317 1.47929,1.35292 0.65729,0.46961 1.33199,0.91692 1.98904,1.38722 0.7047,0.54213 1.45047,1.03288 2.19155,1.52897 0.61361,0.42156 1.25915,0.79518 1.83879,1.25916 0.46912,0.40135 0.81731,0.89708 1.16461,1.39111 0.25297,0.39329 0.52036,0.76161 0.91731,1.03461 0.46536,0.26083 0.80819,0.4902 1.08056,0.94577 0.19206,0.419 0.20012,0.87582 0.20702,1.32437 6.6e-4,0.26394 7.7e-4,0.13236 -3e-4,0.39474 0,0 -1.20908,-0.004 -1.20908,-0.004 l 0,0 c 9.4e-4,-0.25082 8.9e-4,-0.12611 2e-4,-0.37412 -0.005,-0.27252 -0.002,-0.54972 -0.0738,-0.8157 -0.104,-0.30069 -0.51393,-0.36421 -0.73699,-0.56644 -0.49042,-0.36373 -0.87246,-0.80521 -1.18777,-1.31341 -0.28384,-0.40729 -0.56762,-0.81444 -0.94073,-1.15574 -0.54901,-0.44639 -1.16934,-0.79785 -1.75004,-1.20514 -0.74808,-0.5049 -1.50411,-1.0005 -2.21761,-1.54911 -0.68261,-0.48505 -1.38707,-0.94222 -2.06071,-1.43789 -0.56885,-0.47389 -1.08918,-0.98898 -1.63843,-1.48189 0,0 0.94716,-0.71524 0.94716,-0.71524 z" />
        <path
           sodipodi:type="arc"
           style="fill:#dbe3db;fill-opacity:1"
           id="path4400"
           sodipodi:cx="141.8633"
           sodipodi:cy="116.49117"
           sodipodi:rx="0.79549515"
           sodipodi:ry="0.53033006"
           d="m 142.65879,116.49117 c 0,0.2929 -0.35615,0.53033 -0.79549,0.53033 -0.43934,0 -0.7955,-0.23743 -0.7955,-0.53033 0,-0.29289 0.35616,-0.53033 0.7955,-0.53033 0.43934,0 0.79549,0.23744 0.79549,0.53033 z"
           transform="translate(0,861.09449)" />
        <path
           sodipodi:type="arc"
           style="fill:#dbe3db;fill-opacity:1"
           id="path4402"
           sodipodi:cx="154.14928"
           sodipodi:cy="115.69568"
           sodipodi:rx="1.0606601"
           sodipodi:ry="1.1490486"
           d="m 155.20994,115.69568 c 0,0.6346 -0.47488,1.14905 -1.06066,1.14905 -0.58579,0 -1.06066,-0.51445 -1.06066,-1.14905 0,-0.6346 0.47487,-1.14905 1.06066,-1.14905 0.58578,0 1.06066,0.51445 1.06066,1.14905 z"
           transform="translate(0,861.09449)" />
        <path
           sodipodi:type="arc"
           style="fill:#dbe3db;fill-opacity:1"
           id="path4404"
           sodipodi:cx="159.80614"
           sodipodi:cy="109.68527"
           sodipodi:rx="1.4142135"
           sodipodi:ry="1.3258252"
           d="m 161.22035,109.68527 c 0,0.73224 -0.63316,1.32583 -1.41421,1.32583 -0.78105,0 -1.41422,-0.59359 -1.41422,-1.32583 0,-0.73223 0.63317,-1.32582 1.41422,-1.32582 0.78105,0 1.41421,0.59359 1.41421,1.32582 z"
           transform="translate(0,861.09449)" />
        <path
           sodipodi:type="arc"
           style="fill:#dbe3db;fill-opacity:1"
           id="path4406"
           sodipodi:cx="145.13367"
           sodipodi:cy="110.83432"
           sodipodi:rx="1.9445436"
           sodipodi:ry="1.4142135"
           d="m 147.07821,110.83432 c 0,0.78105 -0.8706,1.41421 -1.94454,1.41421 -1.07394,0 -1.94455,-0.63316 -1.94455,-1.41421 0,-0.78105 0.87061,-1.41421 1.94455,-1.41421 1.07394,0 1.94454,0.63316 1.94454,1.41421 z"
           transform="translate(0,861.09449)" />
        <path
           sodipodi:type="arc"
           style="fill:#dbe3db;fill-opacity:1"
           id="path4408"
           sodipodi:cx="144.78012"
           sodipodi:cy="103.67487"
           sodipodi:rx="0.88388348"
           sodipodi:ry="0.79549515"
           d="m 145.664,103.67487 c 0,0.43934 -0.39572,0.7955 -0.88388,0.7955 -0.48815,0 -0.88388,-0.35616 -0.88388,-0.7955 0,-0.43934 0.39573,-0.79549 0.88388,-0.79549 0.48816,0 0.88388,0.35615 0.88388,0.79549 z"
           transform="translate(0,861.09449)" />
        <path
           sodipodi:type="arc"
           style="fill:#dbe3db;fill-opacity:1"
           id="path4410"
           sodipodi:cx="163.60683"
           sodipodi:cy="117.99377"
           sodipodi:rx="1.3258252"
           sodipodi:ry="1.1490486"
           d="m 164.93265,117.99377 c 0,0.6346 -0.59359,1.14905 -1.32582,1.14905 -0.73224,0 -1.32583,-0.51445 -1.32583,-1.14905 0,-0.63461 0.59359,-1.14905 1.32583,-1.14905 0.73223,0 1.32582,0.51444 1.32582,1.14905 z"
           transform="translate(0,861.09449)" />
        <path
           sodipodi:type="arc"
           style="fill:#dbe3db;fill-opacity:1"
           id="path4412"
           sodipodi:cx="158.21515"
           sodipodi:cy="116.3144"
           sodipodi:rx="0.70710677"
           sodipodi:ry="0.53033006"
           d="m 158.92226,116.3144 c 0,0.29289 -0.31659,0.53033 -0.70711,0.53033 -0.39053,0 -0.70711,-0.23744 -0.70711,-0.53033 0,-0.29289 0.31658,-0.53033 0.70711,-0.53033 0.39052,0 0.70711,0.23744 0.70711,0.53033 z"
           transform="translate(0,861.09449)" />
        <path
           sodipodi:type="arc"
           style="fill:#dbe3db;fill-opacity:1"
           id="path4414"
           sodipodi:cx="163.69522"
           sodipodi:cy="114.90018"
           sodipodi:rx="1.0606601"
           sodipodi:ry="0.70710677"
           d="m 164.75588,114.90018 c 0,0.39052 -0.47487,0.7071 -1.06066,0.7071 -0.58579,0 -1.06066,-0.31658 -1.06066,-0.7071 0,-0.39053 0.47487,-0.70711 1.06066,-0.70711 0.58579,0 1.06066,0.31658 1.06066,0.70711 z"
           transform="translate(0,861.09449)" />
        <path
           sodipodi:type="arc"
           style="fill:#dbe3db;fill-opacity:1"
           id="path4416"
           sodipodi:cx="168.29141"
           sodipodi:cy="112.16014"
           sodipodi:rx="1.0606601"
           sodipodi:ry="0.79549515"
           d="m 169.35207,112.16014 c 0,0.43934 -0.47487,0.7955 -1.06066,0.7955 -0.58578,0 -1.06066,-0.35616 -1.06066,-0.7955 0,-0.43934 0.47488,-0.79549 1.06066,-0.79549 0.58579,0 1.06066,0.35615 1.06066,0.79549 z"
           transform="translate(0,861.09449)" />
        <path
           sodipodi:type="arc"
           style="fill:#dbe3db;fill-opacity:1"
           id="path4418"
           sodipodi:cx="165.81654"
           sodipodi:cy="108.00589"
           sodipodi:rx="0.88388348"
           sodipodi:ry="1.2374369"
           d="m 166.70043,108.00589 c 0,0.68342 -0.39573,1.23744 -0.88389,1.23744 -0.48815,0 -0.88388,-0.55402 -0.88388,-1.23744 0,-0.68342 0.39573,-1.23744 0.88388,-1.23744 0.48816,0 0.88389,0.55402 0.88389,1.23744 z"
           transform="translate(0,861.09449)" />
        <path
           sodipodi:type="arc"
           style="fill:#dbe3db;fill-opacity:1"
           id="path4420"
           sodipodi:cx="150.70213"
           sodipodi:cy="116.84473"
           sodipodi:rx="1.1490486"
           sodipodi:ry="0.35355338"
           d="m 151.85118,116.84473 c 0,0.19526 -0.51444,0.35355 -1.14905,0.35355 -0.6346,0 -1.14905,-0.15829 -1.14905,-0.35355 0,-0.19527 0.51445,-0.35356 1.14905,-0.35356 0.63461,0 1.14905,0.15829 1.14905,0.35356 z"
           transform="translate(0,861.09449)" />
        <path
           sodipodi:type="arc"
           style="fill:#dbe3db;fill-opacity:1"
           id="path4422"
           sodipodi:cx="157.15448"
           sodipodi:cy="120.64542"
           sodipodi:rx="0.88388348"
           sodipodi:ry="0.79549515"
           d="m 158.03836,120.64542 c 0,0.43934 -0.39572,0.79549 -0.88388,0.79549 -0.48816,0 -0.88388,-0.35615 -0.88388,-0.79549 0,-0.43934 0.39572,-0.7955 0.88388,-0.7955 0.48816,0 0.88388,0.35616 0.88388,0.7955 z"
           transform="translate(0,861.09449)" />
        <path
           sodipodi:type="arc"
           style="fill:#dbe3db;fill-opacity:1"
           id="path4424"
           sodipodi:cx="137.09033"
           sodipodi:cy="98.283173"
           sodipodi:rx="0.9722718"
           sodipodi:ry="0.88388348"
           d="m 138.0626,98.283173 c 0,0.488155 -0.4353,0.883883 -0.97227,0.883883 -0.53697,0 -0.97227,-0.395728 -0.97227,-0.883883 0,-0.488156 0.4353,-0.883884 0.97227,-0.883884 0.53697,0 0.97227,0.395728 0.97227,0.883884 z"
           transform="translate(0,861.09449)" />
        <path
           sodipodi:type="arc"
           style="fill:#dbe3db;fill-opacity:1"
           id="path4426"
           sodipodi:cx="162.01584"
           sodipodi:cy="97.222511"
           sodipodi:rx="0.9722718"
           sodipodi:ry="1.0606601"
           d="m 162.98811,97.222511 c 0,0.585787 -0.4353,1.06066 -0.97227,1.06066 -0.53697,0 -0.97227,-0.474873 -0.97227,-1.06066 0,-0.585786 0.4353,-1.06066 0.97227,-1.06066 0.53697,0 0.97227,0.474874 0.97227,1.06066 z"
           transform="translate(0,861.09449)" />
        <path
           sodipodi:type="arc"
           style="fill:#dbe3db;fill-opacity:1"
           id="path4428"
           sodipodi:cx="161.13196"
           sodipodi:cy="107.2104"
           sodipodi:rx="0.79549515"
           sodipodi:ry="0.79549515"
           d="m 161.92745,107.2104 c 0,0.43934 -0.35615,0.7955 -0.79549,0.7955 -0.43934,0 -0.7955,-0.35616 -0.7955,-0.7955 0,-0.43934 0.35616,-0.79549 0.7955,-0.79549 0.43934,0 0.79549,0.35615 0.79549,0.79549 z"
           transform="translate(0,861.09449)" />
      </g>
    </g>
    <path
       style="fill:#000000;fill-opacity:0.0959596"
       d="m 118.14844,107.90005 c 3.40013,10.65092 9.60305,26.73563 9.82357,39.29432 -2.97141,-0.24118 -5.69357,0.26541 -9.29257,-1.85852 l -0.531,-37.4358 z"
       id="path3592"
       transform="translate(0,861.09447)"
       sodipodi:nodetypes="cccc" />
    <path
       style="fill:#000000;fill-opacity:0.11111111"
       d="m 70.62356,893.06092 c 2.479239,0.43738 2.348002,3.16696 3.115208,4.93721 l 4.611685,36.54468 1.61873,12.82741 4.12665,-28.63468 c -1.269839,-6.11339 1.632126,9.0922 1.135309,27.88337 l 0.910312,31.13718 C 78.127798,951.1417 71.585182,952.35075 70.846076,951.63521 L 70.62356,893.06092 z"
       id="path2818"
       sodipodi:nodetypes="ccccccccc" />
    <path
       id="path4328"
       d="m -47.874759,1003.4903 c -20.333599,-4.92848 -29.975258,-7.3379 -30.030759,-7.50461 -0.08149,-0.24476 0.308242,-9.78251 0.403888,-9.8843 0.02768,-0.0296 3.717763,1.34663 8.200178,3.05795 l 8.149845,3.11155 21.309246,2.70771 c 11.720084,1.48918 21.344072,2.74251 21.38664,2.78505 0.06718,0.0672 0.616765,12.94465 0.55373,12.97455 -0.01306,0.01 -13.500809,-3.2554 -29.972768,-7.2479 l 0,0 z"
       style="fill:none" />
    <path
       id="path4330"
       d="m -47.874759,1003.4903 c -20.333599,-4.92848 -29.975258,-7.3379 -30.030759,-7.50461 -0.08149,-0.24476 0.308242,-9.78251 0.403888,-9.8843 0.02768,-0.0296 3.717763,1.34663 8.200178,3.05795 l 8.149845,3.11155 21.309246,2.70771 c 11.720084,1.48918 21.344072,2.74251 21.38664,2.78505 0.06718,0.0672 0.616765,12.94465 0.55373,12.97455 -0.01306,0.01 -13.500809,-3.2554 -29.972768,-7.2479 l 0,0 z"
       style="fill:none" />
    <path
       id="path4332"
       d="m -47.874759,1003.4903 c -20.333599,-4.92848 -29.975258,-7.3379 -30.030759,-7.50461 -0.08149,-0.24476 0.308242,-9.78251 0.403888,-9.8843 0.02768,-0.0296 3.717763,1.34663 8.200178,3.05795 l 8.149845,3.11155 21.309246,2.70771 c 11.720084,1.48918 21.344072,2.74251 21.38664,2.78505 0.06718,0.0672 0.616765,12.94465 0.55373,12.97455 -0.01306,0.01 -13.500809,-3.2554 -29.972768,-7.2479 l 0,0 z"
       style="fill:none" />
    <path
       id="path4334"
       d="m -47.874759,1003.4903 c -20.333599,-4.92848 -29.975258,-7.3379 -30.030759,-7.50461 -0.08149,-0.24476 0.308242,-9.78251 0.403888,-9.8843 0.02768,-0.0296 3.717763,1.34663 8.200178,3.05795 l 8.149845,3.11155 21.309246,2.70771 c 11.720084,1.48918 21.344072,2.74251 21.38664,2.78505 0.06718,0.0672 0.616765,12.94465 0.55373,12.97455 -0.01306,0.01 -13.500809,-3.2554 -29.972768,-7.2479 l 0,0 z"
       style="fill:none" />
    <path
       id="path4336"
       d="m -47.874759,1003.4903 c -20.333599,-4.92848 -29.975258,-7.3379 -30.030759,-7.50461 -0.08149,-0.24476 0.308242,-9.78251 0.403888,-9.8843 0.02768,-0.0296 3.717763,1.34663 8.200178,3.05795 l 8.149845,3.11155 21.309246,2.70771 c 11.720084,1.48918 21.344072,2.74251 21.38664,2.78505 0.06718,0.0672 0.616765,12.94465 0.55373,12.97455 -0.01306,0.01 -13.500809,-3.2554 -29.972768,-7.2479 l 0,0 z"
       style="fill:none" />
    <path
       id="path4338"
       d="m -47.874759,1003.4903 c -20.333599,-4.92848 -29.975258,-7.3379 -30.030759,-7.50461 -0.08149,-0.24476 0.308242,-9.78251 0.403888,-9.8843 0.02768,-0.0296 3.717763,1.34663 8.200178,3.05795 l 8.149845,3.11155 21.309246,2.70771 c 11.720084,1.48918 21.344072,2.74251 21.38664,2.78505 0.06718,0.0672 0.616765,12.94465 0.55373,12.97455 -0.01306,0.01 -13.500809,-3.2554 -29.972768,-7.2479 l 0,0 z"
       style="fill:none" />
    <path
       transform="translate(-41.143338,916.57759)"
       d="m 180.31222,61.867175 -5.04887,-4.14592 -3.71505,5.373831 0.0935,-6.532302 -6.51773,0.445982 5.16545,-3.999728 -4.41242,-4.817702 6.34772,1.544723 1.01553,-6.453557 2.75003,5.925966 5.67876,-3.229753 -2.91849,5.844836 6.06578,2.426122 -6.38933,1.362425 1.88513,6.255077 z"
       inkscape:randomized="0"
       inkscape:rounded="0"
       inkscape:flatsided="false"
       sodipodi:arg2="1.4315927"
       sodipodi:arg1="0.98279372"
       sodipodi:r2="4.3817472"
       sodipodi:r1="10.198039"
       sodipodi:cy="53.381893"
       sodipodi:cx="174.65536"
       sodipodi:sides="7"
       id="path4356"
       style="fill:#ffffff;fill-opacity:1"
       sodipodi:type="star" />
  </g>
</svg>
