<?xml version="1.0" encoding="UTF-8" standalone="no"?>
<!-- Created with Inkscape (http://www.inkscape.org/) -->

<svg
   xmlns:dc="http://purl.org/dc/elements/1.1/"
   xmlns:cc="http://creativecommons.org/ns#"
   xmlns:rdf="http://www.w3.org/1999/02/22-rdf-syntax-ns#"
   xmlns:svg="http://www.w3.org/2000/svg"
   xmlns="http://www.w3.org/2000/svg"
   xmlns:sodipodi="http://sodipodi.sourceforge.net/DTD/sodipodi-0.dtd"
   xmlns:inkscape="http://www.inkscape.org/namespaces/inkscape"
   width="303.3071"
   height="191.26772"
   id="svg4363"
   version="1.1"
   inkscape:version="0.47 r22583"
   sodipodi:docname="flag-avfs.svg">
  <defs
     id="defs4365">
    <inkscape:perspective
       sodipodi:type="inkscape:persp3d"
       inkscape:vp_x="0 : 526.18109 : 1"
       inkscape:vp_y="0 : 1000 : 0"
       inkscape:vp_z="744.09448 : 526.18109 : 1"
       inkscape:persp3d-origin="372.04724 : 350.78739 : 1"
       id="perspective4371" />
    <inkscape:perspective
       id="perspective4387"
       inkscape:persp3d-origin="0.5 : 0.33333333 : 1"
       inkscape:vp_z="1 : 0.5 : 1"
       inkscape:vp_y="0 : 1000 : 0"
       inkscape:vp_x="0 : 0.5 : 1"
       sodipodi:type="inkscape:persp3d" />
    <inkscape:perspective
       id="perspective4387-7"
       inkscape:persp3d-origin="0.5 : 0.33333333 : 1"
       inkscape:vp_z="1 : 0.5 : 1"
       inkscape:vp_y="0 : 1000 : 0"
       inkscape:vp_x="0 : 0.5 : 1"
       sodipodi:type="inkscape:persp3d" />
  </defs>
  <sodipodi:namedview
     id="base"
     pagecolor="#ffffff"
     bordercolor="#666666"
     borderopacity="1.0"
     inkscape:pageopacity="0.0"
     inkscape:pageshadow="2"
     inkscape:zoom="1.4142136"
     inkscape:cx="136.12742"
     inkscape:cy="104.19705"
     inkscape:document-units="px"
     inkscape:current-layer="layer1"
     showgrid="false"
     inkscape:window-width="1024"
     inkscape:window-height="712"
     inkscape:window-x="-4"
     inkscape:window-y="-4"
     inkscape:window-maximized="1"
     inkscape:snap-bbox="false" />
  <metadata
     id="metadata4368">
    <rdf:RDF>
      <cc:Work
         rdf:about="">
        <dc:format>image/svg+xml</dc:format>
        <dc:type
           rdf:resource="http://purl.org/dc/dcmitype/StillImage" />
        <dc:title></dc:title>
      </cc:Work>
    </rdf:RDF>
  </metadata>
  <g
     inkscape:label="Layer 1"
     inkscape:groupmode="layer"
     id="layer1"
     transform="translate(300,-861.09449) scale(-1,1)">
    <path
       style="fill:#2c5aa0;fill-opacity:1"
       d="m 87.14453,1031.0995 c -16.80028,-2.0164 -32.33413,-8.5072 -44.24608,-18.4883 -2.20277,-1.8457 -4.04469,-3.3808 -4.09316,-3.4115 -0.0485,-0.031 0.80488,-3.9133 1.89635,-8.6281 4.51299,-19.49486 7.51995,-37.72423 9.25068,-56.08122 0.98359,-10.43237 0.82497,-34.4801 -0.29324,-44.46072 -0.49639,-4.43049 -0.82369,-8.13933 -0.72733,-8.24187 0.0964,-0.10255 1.98261,1.39047 4.19167,3.31782 21.91145,19.11722 51.64677,22.4212 99.12181,11.01372 3.65074,-0.87721 14.33492,-3.68748 23.7426,-6.24503 31.99957,-8.69935 36.65843,-9.91944 45.26465,-11.85418 11.31205,-2.54302 23.27756,-4.55429 29.80117,-5.00925 l 5.26003,-0.36683 -0.32676,3.32697 c -1.77281,18.04993 -1.65095,50.38127 0.37616,99.79624 0.69838,17.02415 1.18999,31.03785 1.09248,31.14165 -0.0975,0.1038 -1.5223,-0.064 -3.16622,-0.3722 -10.99512,-2.0631 -29.85835,-2.0833 -46.1341,-0.049 -11.78522,1.4728 -18.05081,2.5206 -43.91106,7.3439 -24.51883,4.573 -32.59894,5.8716 -43.85494,7.0478 -8.41726,0.8796 -26.74084,1.0012 -33.24471,0.2206 l 0,-10e-5 z"
       id="path3428" />
    <path
       style="fill:#0044aa;fill-opacity:1"
       d="m 49.75,892.96949 c -0.03234,0.0312 0.05644,1.16271 0.21875,2.53125 1.01797,8.58287 1.797266,20.81926 1.336056,33.15625 -0.470125,10.35611 -1.985264,22.48425 -2.820193,32.64134 l -3.324516,18.10144 C 43.672661,989.19498 41.705589,996.8605 39,1006.407 l -0.3125,0.875 6.356242,5.6999 c 5.7996,4.7494 8.327613,6.0779 12.038943,7.6366 -0.08013,-4.4446 -0.721685,-11.5951 -0.738935,-13.649 C 55.605603,987.65656 56.144067,968.54856 58,949.31324 l 0.65625,-7.09375 c 0.717746,-2.4936 1.903804,-14.55718 3.882694,-25.50527 1.72027,-9.51729 3.533006,-12.36578 3.492306,-12.40098 -0.04073,-0.0352 -2.27611,-1.27814 -4.96875,-2.75 l -4.90625,-2.6875 -3.1875,-2.96875 c -1.75001,-1.64645 -3.18645,-2.9687 -3.21875,-2.9375 z"
       id="path3253"
       sodipodi:nodetypes="csccccccccccsscccc" />
    <path
       style="fill:#0044aa;fill-opacity:0.48484850000000002"
       d="m 254.4375,21.03125 -8.21875,1.09375 -11.0625,1.625 c -1.46184,0.38543 -9.2416,1.98957 -16.71875,3.46875 -16.29949,3.2245 -23.47369,7.331965 -31.40625,9.957685 -2.42019,-2.297846 8.12115,11.964519 10.5558,15.98997 L 209.1875,76.28125 c 4.33739,9.609278 7.77366,19.597203 11.09375,29.59375 l 1.23029,5.21875 c 2.24496,5.13119 3.23196,14.32473 4.05096,20.78125 0.2608,2.0781 -0.29138,11.08585 -0.59375,12.15625 l -2.50817,8.94567 20.07067,0.61683 c 5.8425,0.6231 10.6861,1.19 10.75,1.25 0.0639,0.0595 0.48189,0.0937 0.9375,0.0937 l 0.8125,0 -0.15625,-1.6875 c -0.27954,-2.7386 0.58086,-11.11622 0.25817,-20.375 -0.24103,-6.91606 -0.48377,-15.61337 -0.38317,-19.5625 l 0.25,0.0625 -0.28125,-3.65625 c -0.003,-1.21077 -0.35154,-8.45197 -0.78125,-16.0625 -0.42972,-7.61055 -0.78025,-14.45476 -0.78125,-15.21875 -8.5e-4,-0.626121 -0.046,-0.979951 -0.34375,-1.3125 0.0132,-6.454737 0.41875,-27.371308 0.5625,-32.8125 0.16869,-6.38569 0.84617,-19.80199 1.0625,-23.28125 z"
       transform="translate(0,861.09449)"
       id="path3404"
       sodipodi:nodetypes="cccscccccccccscccscccsscsc" />
    <path
       style="fill:#ffffff;fill-opacity:1"
       d="m 53.041053,897.39535 c 0.200704,0.39137 8.080876,17.40255 21.5,32.65625 -7.688483,-1.73892 -15.206051,-4.15388 -22.34375,-7.75 -0.09432,0.10057 -0.48661,9.66393 -0.40625,9.90625 9.472894,1.74283 16.510003,2.82755 24.6875,4.90625 -7.947987,3.41559 -16.243298,6.22388 -24,8.5625 l -2.375,8.8125 c 7.341716,-2.80541 17.331748,-6.28026 27.46875,-10.875 -0.447845,4.14898 -1.002055,8.30849 -1.78125,12.5 1.514553,0.46582 8.497189,3.36248 12.625,3.5625 0.610588,-3.97634 1.303816,-8.00424 2,-12.0625 8.109719,7.74826 14.754157,12.58547 15.406247,13.0625 -0.55206,-0.12384 -0.21316,-0.0873 0.5,0.40625 0.0324,0.0225 -0.39802,-0.34607 -0.4375,-0.375 0.83124,0.16486 2.9821,0.4872 7.5,0.53125 2.32264,0.0226 -10.09603,-9.25522 -21.812497,-20.4375 0.0222,-0.13564 0.0404,-0.27056 0.0625,-0.40625 6.046495,1.17347 10.550677,2.01355 21.749997,4.59375 0.93444,0.21528 0.22495,-9.52505 0.15625,-9.59375 -5.75243,-0.63185 -11.54353,-1.20161 -17.343747,-1.875 8.256817,-5.46265 15.403977,-11.9941 19.718747,-19.96875 l -7.46875,1.28125 c -3.8642,5.14794 -9.09236,9.60469 -15.062497,13.46875 0.506045,-4.48749 0.815653,-8.98186 0.84375,-13.4375 l -14.21875,-3.90625 c -0.445846,5.39841 -0.753981,10.77845 -1.09375,16.15625 -19.525762,-23.93104 -15.843152,-23.8115 -19.5625,-25.15625 -0.376966,-0.1363 -5.200593,-2.9776 -6.3125,-4.5625 z"
       id="path4320" />
    <path
       style="fill:none"
       d="M -1.0745622,90.448238 C -21.408162,85.519747 -31.049821,83.110319 -31.105322,82.943622 c -0.08149,-0.244746 0.308242,-9.782527 0.403888,-9.884306 0.02768,-0.02946 3.717763,1.346628 8.200178,3.057967 l 8.149845,3.111526 21.3092443,2.707679 c 11.7200847,1.489224 21.3440747,2.742509 21.3866427,2.785078 0.06718,0.06718 0.616765,12.944666 0.553726,12.974516 -0.01306,0.0062 -13.500805,-3.255342 -29.9727642,-7.247844 l 0,0 z"
       id="path4328"
       transform="translate(0,861.09449)" />
    <path
       style="fill:none"
       d="M -1.0745622,90.448238 C -21.408162,85.519747 -31.049821,83.110319 -31.105322,82.943622 c -0.08149,-0.244746 0.308242,-9.782527 0.403888,-9.884306 0.02768,-0.02946 3.717763,1.346628 8.200178,3.057967 l 8.149845,3.111526 21.3092443,2.707679 c 11.7200847,1.489224 21.3440747,2.742509 21.3866427,2.785078 0.06718,0.06718 0.616765,12.944666 0.553726,12.974516 -0.01306,0.0062 -13.500805,-3.255342 -29.9727642,-7.247844 l 0,0 z"
       id="path4330"
       transform="translate(0,861.09449)" />
    <path
       style="fill:none"
       d="M -1.0745622,90.448238 C -21.408162,85.519747 -31.049821,83.110319 -31.105322,82.943622 c -0.08149,-0.244746 0.308242,-9.782527 0.403888,-9.884306 0.02768,-0.02946 3.717763,1.346628 8.200178,3.057967 l 8.149845,3.111526 21.3092443,2.707679 c 11.7200847,1.489224 21.3440747,2.742509 21.3866427,2.785078 0.06718,0.06718 0.616765,12.944666 0.553726,12.974516 -0.01306,0.0062 -13.500805,-3.255342 -29.9727642,-7.247844 l 0,0 z"
       id="path4332"
       transform="translate(0,861.09449)" />
    <path
       style="fill:none"
       d="M -1.0745622,90.448238 C -21.408162,85.519747 -31.049821,83.110319 -31.105322,82.943622 c -0.08149,-0.244746 0.308242,-9.782527 0.403888,-9.884306 0.02768,-0.02946 3.717763,1.346628 8.200178,3.057967 l 8.149845,3.111526 21.3092443,2.707679 c 11.7200847,1.489224 21.3440747,2.742509 21.3866427,2.785078 0.06718,0.06718 0.616765,12.944666 0.553726,12.974516 -0.01306,0.0062 -13.500805,-3.255342 -29.9727642,-7.247844 l 0,0 z"
       id="path4334"
       transform="translate(0,861.09449)" />
    <path
       style="fill:none"
       d="M -1.0745622,90.448238 C -21.408162,85.519747 -31.049821,83.110319 -31.105322,82.943622 c -0.08149,-0.244746 0.308242,-9.782527 0.403888,-9.884306 0.02768,-0.02946 3.717763,1.346628 8.200178,3.057967 l 8.149845,3.111526 21.3092443,2.707679 c 11.7200847,1.489224 21.3440747,2.742509 21.3866427,2.785078 0.06718,0.06718 0.616765,12.944666 0.553726,12.974516 -0.01306,0.0062 -13.500805,-3.255342 -29.9727642,-7.247844 l 0,0 z"
       id="path4336"
       transform="translate(0,861.09449)" />
    <path
       style="fill:none"
       d="M -1.0745622,90.448238 C -21.408162,85.519747 -31.049821,83.110319 -31.105322,82.943622 c -0.08149,-0.244746 0.308242,-9.782527 0.403888,-9.884306 0.02768,-0.02946 3.717763,1.346628 8.200178,3.057967 l 8.149845,3.111526 21.3092443,2.707679 c 11.7200847,1.489224 21.3440747,2.742509 21.3866427,2.785078 0.06718,0.06718 0.616765,12.944666 0.553726,12.974516 -0.01306,0.0062 -13.500805,-3.255342 -29.9727642,-7.247844 l 0,0 z"
       id="path4338"
       transform="translate(0,861.09449)" />
    <path
       style="fill:#c83737;fill-opacity:1"
       d="M 83.615377,52.144456 82.731494,71.589893 C 71.594907,62.18074 66.576376,54.381106 60.280853,42.244961 l -3.712311,-1.06066 c 5.459279,7.748854 8.852213,15.631362 14.731329,21.700866 l 8.956749,9.942163 c 1.801556,1.557201 -7.291339,-2.0255 -14.367511,-3.719535 -6.47285,-1.549599 -12.616196,-5.112953 -12.679324,-4.765747 -0.353553,1.944544 0,4.419418 0,4.419418 l 28.107495,6.36396 c -9.989219,6.236053 -18.614172,7.697177 -27.753941,10.960156 l -1.767767,5.3033 C 61.812918,86.966244 71.830264,85.375706 81.84761,77.953854 L 78.1353,94.040533 c 2.946278,2.414651 5.892556,3.112351 8.838834,3.18198 l 0,-17.854446 c 3.812868,7.190057 14.222036,14.139358 19.798986,20.152544 l 5.3033,0.176776 C 118.06699,103.90874 92.244984,85.296763 88.211571,76.53964 95.400489,77.65176 104.8875,78.852861 112.9603,81.312611 L 112.07642,76.53964 C 111.62372,77.558223 87.23351,73.11069 90.332891,72.650552 94.48656,72.033895 110.16912,60.025009 114.19775,53.55867 l -5.12653,1.06066 c -3.06196,3.403635 -5.77245,7.604807 -10.887887,10.709313 -2.804257,1.701874 -7.08085,5.137503 -10.148538,5.907697 l 1.944543,-16.08668 -6.363961,-3.005204 z"
       id="path4350"
       transform="translate(0,861.09449)"
       sodipodi:nodetypes="ccccccsscccccccccccccsccsccc" />
    <path
       sodipodi:type="star"
       style="fill:#ffffff;fill-opacity:1"
       id="path4354"
       sodipodi:sides="7"
       sodipodi:cx="74.953316"
       sodipodi:cy="121.97125"
       sodipodi:r1="16.783611"
       sodipodi:r2="7.2113419"
       sodipodi:arg1="1.3211831"
       sodipodi:arg2="1.7702834"
       inkscape:flatsided="false"
       inkscape:rounded="0"
       inkscape:randomized="0"
       d="m 79.099358,138.23471 -5.575089,-9.19513 -8.701219,6.31328 3.713027,-10.09185 -10.361038,-2.86662 10.205158,-3.38921 -4.218784,-9.88789 9.012597,5.86558 5.100299,-9.46338 1.033367,10.70346 10.578754,-1.91275 -7.72401,7.48142 8.091191,7.07822 -10.665049,-1.37428 -0.489204,10.73915 z"
       transform="matrix(1.0432392,0,0,1.0708019,0.13414608,858.37828)" />
    <path
       sodipodi:type="star"
       style="fill:#ffffff;fill-opacity:1"
       id="path4356"
       sodipodi:sides="7"
       sodipodi:cx="174.65536"
       sodipodi:cy="53.381893"
       sodipodi:r1="10.198039"
       sodipodi:r2="4.3817472"
       sodipodi:arg1="0.98279372"
       sodipodi:arg2="1.4315927"
       inkscape:flatsided="false"
       inkscape:rounded="0"
       inkscape:randomized="0"
       d="m 180.31222,61.867175 -5.04887,-4.14592 -3.71505,5.373831 0.0935,-6.532302 -6.51773,0.445982 5.16545,-3.999728 -4.41242,-4.817702 6.34772,1.544723 1.01553,-6.453557 2.75003,5.925966 5.67876,-3.229753 -2.91849,5.844836 6.06578,2.426122 -6.38933,1.362425 1.88513,6.255077 z"
       transform="translate(5.6568543,864.63002)" />
    <path
       sodipodi:type="star"
       style="fill:#ffffff;fill-opacity:1"
       id="path4358"
       sodipodi:sides="7"
       sodipodi:cx="143.54268"
       sodipodi:cy="88.030128"
       sodipodi:r1="12.369317"
       sodipodi:r2="5.314671"
       sodipodi:arg1="1.0303768"
       sodipodi:arg2="1.4791758"
       inkscape:flatsided="false"
       inkscape:rounded="0"
       inkscape:randomized="0"
       d="m 149.90664,98.63673 -5.87771,-5.314221 -4.81096,6.296273 0.49013,-7.908741 -7.92221,0.1643 6.4889,-4.547817 -5.06787,-6.091394 7.60138,2.237706 1.60268,-7.760145 2.98988,7.338191 7.06638,-3.585348 -3.87307,6.912868 7.20895,3.289289 -7.81952,1.282015 1.92304,7.687024 z"
       transform="translate(6.363961,869.57977)" />
    <path
       sodipodi:type="star"
       style="fill:#cccccc;fill-opacity:1"
       id="path4360"
       sodipodi:sides="7"
       sodipodi:cx="205.76807"
       sodipodi:cy="63.988495"
       sodipodi:r1="10.440307"
       sodipodi:r2="4.4858413"
       sodipodi:arg1="1.076855"
       sodipodi:arg2="1.5256539"
       inkscape:flatsided="false"
       inkscape:rounded="0"
       inkscape:randomized="0"
       d="m 210.71781,73.180883 -4.74731,-4.711117 -4.30322,5.119958 0.7234,-6.648934 -6.68595,-0.172147 5.64937,-3.579967 -4.03403,-5.334622 6.32126,2.184787 1.6556,-6.480017 2.2331,6.304353 6.09853,-2.745828 -3.53662,5.676612 5.94914,3.056026 -6.6432,0.774266 1.31993,6.55663 z"
       transform="translate(15.556349,866.75134)" />
    <path
       sodipodi:type="star"
       style="fill:#ffffff;fill-opacity:1"
       id="path4362"
       sodipodi:sides="7"
       sodipodi:cx="200.81833"
       sodipodi:cy="100.75805"
       sodipodi:r1="6.0827625"
       sodipodi:r2="2.6135544"
       sodipodi:arg1="0.95054684"
       sodipodi:arg2="1.3993458"
       inkscape:flatsided="false"
       inkscape:rounded="0"
       inkscape:randomized="0"
       d="m 204.35386,105.7078 -3.08963,-2.37452 -2.1114,3.27508 -0.0699,-3.89606 -3.87699,0.39122 3.00249,-2.48379 -2.72313,-2.787239 3.81392,0.798821 0.48131,-3.866842 1.7534,3.479902 3.32331,-2.034636 -1.62748,3.540546 3.6628,1.329688 -3.78282,0.93509 1.24411,3.69274 z"
       transform="translate(0,861.09449)" />
    <path
       sodipodi:type="star"
       style="fill:#ffffff;fill-opacity:1"
       id="path4364"
       sodipodi:sides="7"
       sodipodi:cx="177.4838"
       sodipodi:cy="129.74944"
       sodipodi:r1="14.230249"
       sodipodi:r2="6.1142502"
       sodipodi:arg1="1.1071487"
       sodipodi:arg2="1.5559477"
       inkscape:flatsided="false"
       inkscape:rounded="0"
       inkscape:randomized="0"
       d="m 183.84776,142.47736 -6.27318,-6.61435 -6.07401,6.7977 1.26004,-9.02854 -9.10174,-0.51056 7.84443,-4.64406 -5.27567,-7.43436 8.52179,3.23749 2.52308,-8.75993 2.78208,8.68115 8.42191,-3.4891 -5.0526,7.58773 7.97886,4.40909 -9.08257,0.78059 1.52758,8.98715 z"
       transform="translate(4.2426407,868.16556)" />
  </g>
</svg>
