<?xml version="1.0" encoding="UTF-8" standalone="no"?>
<!-- Created with Inkscape (http://www.inkscape.org/) -->

<svg
   xmlns:dc="http://purl.org/dc/elements/1.1/"
   xmlns:cc="http://creativecommons.org/ns#"
   xmlns:rdf="http://www.w3.org/1999/02/22-rdf-syntax-ns#"
   xmlns:svg="http://www.w3.org/2000/svg"
   xmlns="http://www.w3.org/2000/svg"
   xmlns:sodipodi="http://sodipodi.sourceforge.net/DTD/sodipodi-0.dtd"
   xmlns:inkscape="http://www.inkscape.org/namespaces/inkscape"
   width="303.3071"
   height="191.26772"
   id="svg2"
   version="1.1"
   inkscape:version="0.47 r22583"
   sodipodi:docname="flag-1-rus.svg">
  <defs
     id="defs4">
    <inkscape:perspective
       sodipodi:type="inkscape:persp3d"
       inkscape:vp_x="0 : 526.18109 : 1"
       inkscape:vp_y="0 : 1000 : 0"
       inkscape:vp_z="744.09448 : 526.18109 : 1"
       inkscape:persp3d-origin="372.04724 : 350.78739 : 1"
       id="perspective10" />
    <inkscape:perspective
       sodipodi:type="inkscape:persp3d"
       inkscape:vp_x="0 : 0.5 : 1"
       inkscape:vp_y="0 : 1000 : 0"
       inkscape:vp_z="1 : 0.5 : 1"
       inkscape:persp3d-origin="0.5 : 0.33333333 : 1"
       id="perspective4387-7" />
    <inkscape:perspective
       sodipodi:type="inkscape:persp3d"
       inkscape:vp_x="0 : 0.5 : 1"
       inkscape:vp_y="0 : 1000 : 0"
       inkscape:vp_z="1 : 0.5 : 1"
       inkscape:persp3d-origin="0.5 : 0.33333333 : 1"
       id="perspective4387" />
    <inkscape:perspective
       id="perspective4371"
       inkscape:persp3d-origin="372.04724 : 350.78739 : 1"
       inkscape:vp_z="744.09448 : 526.18109 : 1"
       inkscape:vp_y="0 : 1000 : 0"
       inkscape:vp_x="0 : 526.18109 : 1"
       sodipodi:type="inkscape:persp3d" />
  </defs>
  <sodipodi:namedview
     id="base"
     pagecolor="#ffffff"
     bordercolor="#666666"
     borderopacity="1.0"
     inkscape:pageopacity="0.0"
     inkscape:pageshadow="2"
     inkscape:zoom="7.1650798"
     inkscape:cx="84.779523"
     inkscape:cy="137.34696"
     inkscape:document-units="px"
     inkscape:current-layer="layer1"
     showgrid="false"
     inkscape:window-width="1024"
     inkscape:window-height="712"
     inkscape:window-x="-4"
     inkscape:window-y="-4"
     inkscape:window-maximized="1" />
  <metadata
     id="metadata7">
    <rdf:RDF>
      <cc:Work
         rdf:about="">
        <dc:format>image/svg+xml</dc:format>
        <dc:type
           rdf:resource="http://purl.org/dc/dcmitype/StillImage" />
        <dc:title></dc:title>
      </cc:Work>
    </rdf:RDF>
  </metadata>
  <g
     inkscape:label="Layer 1"
     inkscape:groupmode="layer"
     id="layer1"
     transform="translate(0,-861.09447)">
    <path
       style="fill:#333333;fill-opacity:1"
       d="m 65.844522,29.311431 4.513536,0 c 7.915318,9.743117 31.230522,29.010476 38.028852,45.247194 10.96485,26.187785 17.53605,53.019785 20.91262,73.166745 -21.25752,-1.419 -44.104597,-9.35268 -43.011345,3.45153 L 86.022683,119.05114 C 82.004916,109.1743 79.01585,96.941243 70.358058,91.704425 l -5.04454,0 0.531004,-62.392994 z"
       id="path2816"
       transform="translate(0,861.09447)"
       sodipodi:nodetypes="ccscccccc" />
    <path
       style="fill:#d40000;fill-opacity:1"
       d="m 91.256872,1005.439 c -0.863706,-1.365 4.811301,-14.77016 1.655105,-30.614 -2.601895,-10.79799 -7.038998,-22.12032 -7.331542,-32.25849 l -4.354505,-1.95871 -11.257559,-12.57878 -0.265502,-7.8554 c 0,-5.95358 0.0563,-6.99801 0.35981,-6.67011 0.47399,0.51215 18.253657,18.33018 18.711437,18.90324 0.19435,0.24329 11.758564,23.13547 15.815704,43.20146 6.09778,30.15869 9.25275,30.35719 9.60298,29.98969 -4.84199,0.9359 -18.112018,-0.9095 -22.935928,-0.1589 z"
       id="path3630"
       sodipodi:nodetypes="ccccccssscc" />
    <path
       style="fill:#ffcc00;fill-opacity:1"
       d="m 69.799795,927.80081 c 4.722894,3.18367 10.377727,5.8142 15.415482,14.6435 2.518053,9.95732 3.333847,18.67253 8.459763,30.53275 0.853509,10.18054 6.250347,21.09136 2.378854,32.58534 -3.67727,-0.9307 -6.965211,0.09 -9.594996,4.6531 L 85.202806,977.22509 C 76.176868,956.20562 73.575839,955.2802 70.212257,952.85342 l -0.412462,-25.05261 z"
       id="path3632"
       sodipodi:nodetypes="cccccccc" />
    <path
       style="fill:#000000;fill-opacity:0.16161616"
       d="m 70.62356,893.06092 c 2.479239,0.43738 2.348002,3.16696 3.115208,4.93721 l 6.230415,49.37209 4.12665,-28.63468 c -1.269839,-6.11339 1.632126,9.0922 1.135309,27.88337 l 0.910312,31.13718 C 78.127798,951.1417 71.585182,952.35075 70.846076,951.63521 L 70.62356,893.06092 z"
       id="path2818"
       sodipodi:nodetypes="cccccccc" />
    <path
       style="fill:#000000;fill-opacity:0.0959596"
       d="m 118.14844,107.90005 c 3.40013,10.65092 9.60305,26.73563 9.82357,39.29432 -2.97141,-0.24118 -5.69357,0.26541 -9.29257,-1.85852 l -0.531,-37.4358 z"
       id="path3592"
       transform="translate(0,861.09447)"
       sodipodi:nodetypes="cccc" />
  </g>
</svg>
