<?xml version="1.0" encoding="UTF-8" standalone="no"?>
<!-- Created with Inkscape (http://www.inkscape.org/) -->

<svg
   xmlns:dc="http://purl.org/dc/elements/1.1/"
   xmlns:cc="http://creativecommons.org/ns#"
   xmlns:rdf="http://www.w3.org/1999/02/22-rdf-syntax-ns#"
   xmlns:svg="http://www.w3.org/2000/svg"
   xmlns="http://www.w3.org/2000/svg"
   xmlns:sodipodi="http://sodipodi.sourceforge.net/DTD/sodipodi-0.dtd"
   xmlns:inkscape="http://www.inkscape.org/namespaces/inkscape"
   width="303.3071"
   height="191.26772"
   id="svg2"
   version="1.1"
   inkscape:version="0.47 r22583"
   sodipodi:docname="flag-1-arg.svg">
  <defs
     id="defs4">
    <inkscape:perspective
       sodipodi:type="inkscape:persp3d"
       inkscape:vp_x="0 : 526.18109 : 1"
       inkscape:vp_y="0 : 1000 : 0"
       inkscape:vp_z="744.09448 : 526.18109 : 1"
       inkscape:persp3d-origin="372.04724 : 350.78739 : 1"
       id="perspective10" />
    <inkscape:perspective
       sodipodi:type="inkscape:persp3d"
       inkscape:vp_x="0 : 0.5 : 1"
       inkscape:vp_y="0 : 1000 : 0"
       inkscape:vp_z="1 : 0.5 : 1"
       inkscape:persp3d-origin="0.5 : 0.33333333 : 1"
       id="perspective4387-7" />
    <inkscape:perspective
       sodipodi:type="inkscape:persp3d"
       inkscape:vp_x="0 : 0.5 : 1"
       inkscape:vp_y="0 : 1000 : 0"
       inkscape:vp_z="1 : 0.5 : 1"
       inkscape:persp3d-origin="0.5 : 0.33333333 : 1"
       id="perspective4387" />
    <inkscape:perspective
       id="perspective4371"
       inkscape:persp3d-origin="372.04724 : 350.78739 : 1"
       inkscape:vp_z="744.09448 : 526.18109 : 1"
       inkscape:vp_y="0 : 1000 : 0"
       inkscape:vp_x="0 : 526.18109 : 1"
       sodipodi:type="inkscape:persp3d" />
    <inkscape:perspective
       id="perspective2833"
       inkscape:persp3d-origin="0.5 : 0.33333333 : 1"
       inkscape:vp_z="1 : 0.5 : 1"
       inkscape:vp_y="0 : 1000 : 0"
       inkscape:vp_x="0 : 0.5 : 1"
       sodipodi:type="inkscape:persp3d" />
    <inkscape:perspective
       sodipodi:type="inkscape:persp3d"
       inkscape:vp_x="0 : 526.18109 : 1"
       inkscape:vp_y="0 : 1000 : 0"
       inkscape:vp_z="744.09448 : 526.18109 : 1"
       inkscape:persp3d-origin="372.04724 : 350.78739 : 1"
       id="perspective4371-1" />
    <inkscape:perspective
       id="perspective4387-5"
       inkscape:persp3d-origin="0.5 : 0.33333333 : 1"
       inkscape:vp_z="1 : 0.5 : 1"
       inkscape:vp_y="0 : 1000 : 0"
       inkscape:vp_x="0 : 0.5 : 1"
       sodipodi:type="inkscape:persp3d" />
    <inkscape:perspective
       id="perspective4387-7-5"
       inkscape:persp3d-origin="0.5 : 0.33333333 : 1"
       inkscape:vp_z="1 : 0.5 : 1"
       inkscape:vp_y="0 : 1000 : 0"
       inkscape:vp_x="0 : 0.5 : 1"
       sodipodi:type="inkscape:persp3d" />
    <inkscape:perspective
       id="perspective10-4"
       inkscape:persp3d-origin="372.04724 : 350.78739 : 1"
       inkscape:vp_z="744.09448 : 526.18109 : 1"
       inkscape:vp_y="0 : 1000 : 0"
       inkscape:vp_x="0 : 526.18109 : 1"
       sodipodi:type="inkscape:persp3d" />
    <inkscape:perspective
       sodipodi:type="inkscape:persp3d"
       inkscape:vp_x="0 : 0.5 : 1"
       inkscape:vp_y="0 : 1000 : 0"
       inkscape:vp_z="1 : 0.5 : 1"
       inkscape:persp3d-origin="0.5 : 0.33333333 : 1"
       id="perspective4387-7-1" />
    <inkscape:perspective
       sodipodi:type="inkscape:persp3d"
       inkscape:vp_x="0 : 0.5 : 1"
       inkscape:vp_y="0 : 1000 : 0"
       inkscape:vp_z="1 : 0.5 : 1"
       inkscape:persp3d-origin="0.5 : 0.33333333 : 1"
       id="perspective4387-2" />
    <inkscape:perspective
       id="perspective4371-2"
       inkscape:persp3d-origin="372.04724 : 350.78739 : 1"
       inkscape:vp_z="744.09448 : 526.18109 : 1"
       inkscape:vp_y="0 : 1000 : 0"
       inkscape:vp_x="0 : 526.18109 : 1"
       sodipodi:type="inkscape:persp3d" />
    <inkscape:perspective
       sodipodi:type="inkscape:persp3d"
       inkscape:vp_x="0 : 0.5 : 1"
       inkscape:vp_y="0 : 1000 : 0"
       inkscape:vp_z="1 : 0.5 : 1"
       inkscape:persp3d-origin="0.5 : 0.33333333 : 1"
       id="perspective4387-7-18" />
    <inkscape:perspective
       sodipodi:type="inkscape:persp3d"
       inkscape:vp_x="0 : 0.5 : 1"
       inkscape:vp_y="0 : 1000 : 0"
       inkscape:vp_z="1 : 0.5 : 1"
       inkscape:persp3d-origin="0.5 : 0.33333333 : 1"
       id="perspective4387-76" />
    <inkscape:perspective
       id="perspective4371-5"
       inkscape:persp3d-origin="372.04724 : 350.78739 : 1"
       inkscape:vp_z="744.09448 : 526.18109 : 1"
       inkscape:vp_y="0 : 1000 : 0"
       inkscape:vp_x="0 : 526.18109 : 1"
       sodipodi:type="inkscape:persp3d" />
    <inkscape:perspective
       sodipodi:type="inkscape:persp3d"
       inkscape:vp_x="0 : 0.5 : 1"
       inkscape:vp_y="0 : 1000 : 0"
       inkscape:vp_z="1 : 0.5 : 1"
       inkscape:persp3d-origin="0.5 : 0.33333333 : 1"
       id="perspective4387-7-54" />
    <inkscape:perspective
       sodipodi:type="inkscape:persp3d"
       inkscape:vp_x="0 : 0.5 : 1"
       inkscape:vp_y="0 : 1000 : 0"
       inkscape:vp_z="1 : 0.5 : 1"
       inkscape:persp3d-origin="0.5 : 0.33333333 : 1"
       id="perspective4387-9" />
    <inkscape:perspective
       id="perspective4371-7"
       inkscape:persp3d-origin="372.04724 : 350.78739 : 1"
       inkscape:vp_z="744.09448 : 526.18109 : 1"
       inkscape:vp_y="0 : 1000 : 0"
       inkscape:vp_x="0 : 526.18109 : 1"
       sodipodi:type="inkscape:persp3d" />
  </defs>
  <sodipodi:namedview
     id="base"
     pagecolor="#ffffff"
     bordercolor="#666666"
     borderopacity="1.0"
     inkscape:pageopacity="0.0"
     inkscape:pageshadow="2"
     inkscape:zoom="3.7664485"
     inkscape:cx="120.047"
     inkscape:cy="152.30302"
     inkscape:document-units="px"
     inkscape:current-layer="layer1"
     showgrid="false"
     inkscape:window-width="1024"
     inkscape:window-height="712"
     inkscape:window-x="-4"
     inkscape:window-y="-4"
     inkscape:window-maximized="1" />
  <metadata
     id="metadata7">
    <rdf:RDF>
      <cc:Work
         rdf:about="">
        <dc:format>image/svg+xml</dc:format>
        <dc:type
           rdf:resource="http://purl.org/dc/dcmitype/StillImage" />
        <dc:title></dc:title>
      </cc:Work>
    </rdf:RDF>
  </metadata>
  <g
     inkscape:label="Layer 1"
     inkscape:groupmode="layer"
     id="layer1"
     transform="translate(0,-861.09447)">
    <path
       style="fill:#2c5aa0;fill-opacity:1"
       d="m 65.844522,29.311431 4.513536,0 c 7.915318,9.743117 31.230522,29.010476 38.028852,45.247194 10.96485,26.187785 17.53605,53.019785 20.91262,73.166745 -21.25752,-1.419 -44.104597,-9.35268 -43.011345,3.45153 L 86.022683,119.05114 C 82.004916,109.1743 79.01585,96.941243 70.358058,91.704425 l -5.04454,0 0.531004,-62.392994 z"
       id="path2816"
       sodipodi:nodetypes="ccscccccc"
       transform="translate(0,861.09447)" />
    <path
       style="fill:#000000;fill-opacity:0.0959596"
       d="m 118.14844,107.90005 c 3.40013,10.65092 9.60305,26.73563 9.82357,39.29432 -2.97141,-0.24118 -5.69357,0.26541 -9.29257,-1.85852 l -0.531,-37.4358 z"
       id="path3592"
       transform="translate(0,861.09447)"
       sodipodi:nodetypes="cccc" />
    <path
       sodipodi:type="star"
       style="fill:#dbe3e2;fill-opacity:1"
       id="path3880"
       sodipodi:sides="7"
       sodipodi:cx="75.6681"
       sodipodi:cy="76.305303"
       sodipodi:r1="5.8229158"
       sodipodi:r2="2.501907"
       sodipodi:arg1="1.1479424"
       sodipodi:arg2="1.5967414"
       inkscape:flatsided="false"
       inkscape:rounded="0"
       inkscape:randomized="0"
       d="m 78.057618,81.615348 -2.454424,-2.808977 -2.596813,2.677893 0.665838,-3.670315 -3.712747,-0.36063 3.284711,-1.76783 -2.032908,-3.127593 3.430129,1.465867 1.177753,-3.539414 0.99259,3.595736 3.501542,-1.285984 -2.19239,3.017943 3.188598,1.935818 -3.726455,0.167577 0.474576,3.699909 z"
       transform="translate(0,861.09447)" />
    <path
       style="fill:#000000;fill-opacity:0.11111111"
       d="m 70.62356,893.06092 c 2.479239,0.43738 2.348002,3.16696 3.115208,4.93721 l 4.611685,36.54468 1.61873,12.82741 4.12665,-28.63468 c -1.269839,-6.11339 1.632126,9.0922 1.135309,27.88337 l 0.910312,31.13718 C 78.127798,951.1417 71.585182,952.35075 70.846076,951.63521 L 70.62356,893.06092 z"
       id="path2818"
       sodipodi:nodetypes="ccccccccc" />
    <path
       id="path4328"
       d="m -47.874759,1003.4903 c -20.333599,-4.92848 -29.975258,-7.3379 -30.030759,-7.50461 -0.08149,-0.24476 0.308242,-9.78251 0.403888,-9.8843 0.02768,-0.0296 3.717763,1.34663 8.200178,3.05795 l 8.149845,3.11155 21.309246,2.70771 c 11.720084,1.48918 21.344072,2.74251 21.38664,2.78505 0.06718,0.0672 0.616765,12.94465 0.55373,12.97455 -0.01306,0.01 -13.500809,-3.2554 -29.972768,-7.2479 l 0,0 z"
       style="fill:none" />
    <path
       id="path4330"
       d="m -47.874759,1003.4903 c -20.333599,-4.92848 -29.975258,-7.3379 -30.030759,-7.50461 -0.08149,-0.24476 0.308242,-9.78251 0.403888,-9.8843 0.02768,-0.0296 3.717763,1.34663 8.200178,3.05795 l 8.149845,3.11155 21.309246,2.70771 c 11.720084,1.48918 21.344072,2.74251 21.38664,2.78505 0.06718,0.0672 0.616765,12.94465 0.55373,12.97455 -0.01306,0.01 -13.500809,-3.2554 -29.972768,-7.2479 l 0,0 z"
       style="fill:none" />
    <path
       id="path4332"
       d="m -47.874759,1003.4903 c -20.333599,-4.92848 -29.975258,-7.3379 -30.030759,-7.50461 -0.08149,-0.24476 0.308242,-9.78251 0.403888,-9.8843 0.02768,-0.0296 3.717763,1.34663 8.200178,3.05795 l 8.149845,3.11155 21.309246,2.70771 c 11.720084,1.48918 21.344072,2.74251 21.38664,2.78505 0.06718,0.0672 0.616765,12.94465 0.55373,12.97455 -0.01306,0.01 -13.500809,-3.2554 -29.972768,-7.2479 l 0,0 z"
       style="fill:none" />
    <path
       id="path4334"
       d="m -47.874759,1003.4903 c -20.333599,-4.92848 -29.975258,-7.3379 -30.030759,-7.50461 -0.08149,-0.24476 0.308242,-9.78251 0.403888,-9.8843 0.02768,-0.0296 3.717763,1.34663 8.200178,3.05795 l 8.149845,3.11155 21.309246,2.70771 c 11.720084,1.48918 21.344072,2.74251 21.38664,2.78505 0.06718,0.0672 0.616765,12.94465 0.55373,12.97455 -0.01306,0.01 -13.500809,-3.2554 -29.972768,-7.2479 l 0,0 z"
       style="fill:none" />
    <path
       id="path4336"
       d="m -47.874759,1003.4903 c -20.333599,-4.92848 -29.975258,-7.3379 -30.030759,-7.50461 -0.08149,-0.24476 0.308242,-9.78251 0.403888,-9.8843 0.02768,-0.0296 3.717763,1.34663 8.200178,3.05795 l 8.149845,3.11155 21.309246,2.70771 c 11.720084,1.48918 21.344072,2.74251 21.38664,2.78505 0.06718,0.0672 0.616765,12.94465 0.55373,12.97455 -0.01306,0.01 -13.500809,-3.2554 -29.972768,-7.2479 l 0,0 z"
       style="fill:none" />
    <path
       id="path4338"
       d="m -47.874759,1003.4903 c -20.333599,-4.92848 -29.975258,-7.3379 -30.030759,-7.50461 -0.08149,-0.24476 0.308242,-9.78251 0.403888,-9.8843 0.02768,-0.0296 3.717763,1.34663 8.200178,3.05795 l 8.149845,3.11155 21.309246,2.70771 c 11.720084,1.48918 21.344072,2.74251 21.38664,2.78505 0.06718,0.0672 0.616765,12.94465 0.55373,12.97455 -0.01306,0.01 -13.500809,-3.2554 -29.972768,-7.2479 l 0,0 z"
       style="fill:none" />
    <g
       transform="matrix(-0.15628715,0,0,-0.25969355,115.50801,1187.3894)"
       id="g3819">
      <path
         style="fill:#ffffff;fill-opacity:1"
         d="m 192.54493,987.18695 c 0.31665,0.6871 12.74919,30.55285 33.92053,57.33305 -12.13011,-3.0529 -23.99057,-7.2927 -35.25172,-13.6063 -0.1488,0.1766 -0.76772,16.9665 -0.64094,17.392 14.94538,3.0598 26.04783,4.9642 38.94946,8.6137 -12.53954,5.9966 -25.62704,10.9269 -37.86479,15.0327 l -3.74703,15.4718 c 11.58302,-4.9254 27.34428,-11.026 43.33743,-19.0928 -0.70657,7.2842 -1.58095,14.5868 -2.81028,21.9457 2.38951,0.8178 13.40601,5.9033 19.91845,6.2545 0.96333,-6.9811 2.05703,-14.0527 3.1554,-21.1776 12.7947,13.6033 23.27763,22.0958 24.30643,22.9333 -0.87099,-0.2175 -0.3363,-0.1533 0.78885,0.7132 0.0511,0.039 -0.62796,-0.6076 -0.69024,-0.6584 1.31144,0.2895 4.70485,0.8554 11.83274,0.9327 3.66443,0.04 -15.9285,-16.2489 -34.41356,-35.8812 0.035,-0.2381 0.0637,-0.475 0.0986,-0.7132 9.53956,2.0602 16.6458,3.5351 34.31496,8.065 1.47427,0.378 0.3549,-16.7227 0.24652,-16.8433 -9.07561,-1.1093 -18.21222,-2.1096 -27.36322,-3.2918 13.02677,-9.5906 24.30284,-21.0575 31.11025,-35.0583 l -11.78344,2.2495 c -6.09655,9.038 -14.34501,16.8625 -23.76409,23.6465 0.79838,-7.8785 1.28685,-15.7691 1.33118,-23.5917 l -22.43291,-6.858 c -0.70341,9.4778 -1.18956,18.9233 -1.72561,28.3648 -30.80578,-42.01465 -24.99573,-41.80485 -30.86375,-44.16575 -0.59473,-0.2393 -8.20497,-5.2276 -9.95922,-8.0101 z"
         id="path4320" />
      <path
         style="fill:#c83737;fill-opacity:1"
         d="m 240.78202,1015.0028 -1.3945,34.1395 c -17.57019,-16.5192 -25.48792,-30.2127 -35.42036,-51.51965 l -5.85692,-1.8621 c 8.61311,13.60435 13.96614,27.44335 23.24161,38.09925 l 14.13106,17.455 c 2.84232,2.7339 -11.50354,-3.5561 -22.66761,-6.5302 -10.21221,-2.7206 -19.90457,-8.9766 -20.00416,-8.367 -0.5578,3.4139 0,7.759 0,7.759 l 44.34517,11.1729 c -15.75998,10.9483 -29.36756,13.5136 -43.78737,19.2422 l -2.78901,9.3108 c 15.80436,-7.7646 31.60872,-10.5571 47.41309,-23.5873 l -5.85691,28.2427 c 4.64834,4.2393 9.29668,5.4642 13.94502,5.5864 l 0,-31.3462 c 6.01556,12.6232 22.4381,24.8238 31.23685,35.3809 l 8.36701,0.3104 c 9.45132,7.3936 -31.28804,-25.2826 -37.65156,-40.657 11.34195,1.9525 26.30961,4.0612 39.04606,8.3796 l -1.3945,-8.3796 c -0.71422,1.7882 -39.19464,-6.0201 -34.30475,-6.8279 6.55324,-1.0827 31.2956,-22.1661 37.65157,-33.5188 l -8.08812,1.8622 c -4.83085,5.9756 -9.10719,13.3514 -17.17781,18.8018 -4.42428,2.9879 -11.17146,9.0197 -16.01135,10.3719 l 3.06791,-28.2427 -10.04042,-5.2761 z"
         id="path4350"
         sodipodi:nodetypes="ccccccsscccccccccccccsccsccc" />
    </g>
    <path
       transform="translate(-41.143338,916.57759)"
       d="m 180.31222,61.867175 -5.04887,-4.14592 -3.71505,5.373831 0.0935,-6.532302 -6.51773,0.445982 5.16545,-3.999728 -4.41242,-4.817702 6.34772,1.544723 1.01553,-6.453557 2.75003,5.925966 5.67876,-3.229753 -2.91849,5.844836 6.06578,2.426122 -6.38933,1.362425 1.88513,6.255077 z"
       inkscape:randomized="0"
       inkscape:rounded="0"
       inkscape:flatsided="false"
       sodipodi:arg2="1.4315927"
       sodipodi:arg1="0.98279372"
       sodipodi:r2="4.3817472"
       sodipodi:r1="10.198039"
       sodipodi:cy="53.381893"
       sodipodi:cx="174.65536"
       sodipodi:sides="7"
       id="path4356"
       style="fill:#ffffff;fill-opacity:1"
       sodipodi:type="star" />
    <path
       sodipodi:type="star"
       style="fill:#dbe3e2;fill-opacity:1"
       id="path3882"
       sodipodi:sides="7"
       sodipodi:cx="117.35193"
       sodipodi:cy="124.62669"
       sodipodi:r1="4.2480335"
       sodipodi:r2="1.8252342"
       sodipodi:arg1="1.5707963"
       sodipodi:arg2="2.0195953"
       inkscape:flatsided="false"
       inkscape:rounded="0"
       inkscape:randomized="0"
       d="m 117.35193,128.87473 -0.79194,-2.60356 -2.52931,1.00413 1.54178,-2.24245 -2.36206,-1.35143 2.7145,-0.19274 -0.41612,-2.68933 1.84315,2.00211 1.84315,-2.00211 -0.41613,2.68933 2.71451,0.19274 -2.36206,1.35143 1.54178,2.24245 -2.52931,-1.00413 -0.79194,2.60356 z"
       transform="matrix(1.0641073,0,0,1.2959018,-7.257614,825.34973)" />
    <path
       sodipodi:type="star"
       style="fill:#f9f9f9;fill-opacity:1"
       id="path3886"
       sodipodi:sides="7"
       sodipodi:cx="105.13883"
       sodipodi:cy="116.13062"
       sodipodi:r1="2.0220039"
       sodipodi:r2="0.86878562"
       sodipodi:arg1="1.1659045"
       sodipodi:arg2="1.6147035"
       inkscape:flatsided="false"
       inkscape:rounded="0"
       inkscape:randomized="0"
       d="m 105.93534,117.98914 -0.83464,-0.99057 -0.9183,0.91355 0.25407,-1.27015 -1.2868,-0.14837 1.15146,-0.59329 -0.6863,-1.09856 1.18177,0.53033 0.43098,-1.22151 0.3222,1.2546 1.22373,-0.42464 -0.78001,1.03413 1.09499,0.69199 -1.29484,0.0349 0.14169,1.28755 z"
       transform="matrix(1.2696263,0,0,1.4791753,-27.811864,806.41551)" />
    <path
       sodipodi:type="star"
       style="fill:#f9f9f9;fill-opacity:1"
       id="path3888"
       sodipodi:sides="7"
       sodipodi:cx="104.60783"
       sodipodi:cy="86.925385"
       sodipodi:r1="5.5755444"
       sodipodi:r2="2.3956199"
       sodipodi:arg1="1.5707963"
       sodipodi:arg2="2.0195953"
       inkscape:flatsided="false"
       inkscape:rounded="0"
       inkscape:randomized="0"
       d="m 104.60783,92.500929 -1.03942,-3.417166 -3.31972,1.317917 2.02358,-2.94322 -3.100198,-1.773751 3.562788,-0.252969 -0.54617,-3.529747 2.41914,2.627772 2.41913,-2.627772 -0.54616,3.529747 3.56278,0.252969 -3.1002,1.773751 2.02358,2.943219 -3.31971,-1.317916 -1.03942,3.417166 z"
       transform="matrix(1.1709528,0,0,1.4007981,-16.953744,829.86131)" />
    <path
       sodipodi:type="star"
       style="fill:#f9f9f9;fill-opacity:1"
       id="path3890"
       sodipodi:sides="7"
       sodipodi:cx="91.598228"
       sodipodi:cy="116.13062"
       sodipodi:r1="4.0614014"
       sodipodi:r2="1.7450447"
       sodipodi:arg1="1.3734008"
       sodipodi:arg2="1.8221997"
       inkscape:flatsided="false"
       inkscape:rounded="0"
       inkscape:randomized="0"
       d="m 92.394735,120.11315 -1.23061,-2.29234 -2.182952,1.41561 1.024954,-2.39138 -2.467819,-0.82408 2.508706,-0.68966 -0.894369,-2.44322 2.103352,1.53139 1.35256,-2.22258 0.11413,2.59928 2.580983,-0.32828 -1.961033,1.70985 1.865874,1.81322 -2.559499,-0.46713 -0.254277,2.58932 z"
       transform="matrix(1,0,0,1.3689271,0,819.70199)" />
    <path
       sodipodi:type="star"
       style="fill:#f9f9f9;fill-opacity:1"
       id="path3892"
       sodipodi:sides="7"
       sodipodi:cx="90.80172"
       sodipodi:cy="91.969925"
       sodipodi:r1="3.9469726"
       sodipodi:r2="1.6958786"
       sodipodi:arg1="1.2277724"
       sodipodi:arg2="1.6765713"
       inkscape:flatsided="false"
       inkscape:rounded="0"
       inkscape:randomized="0"
       d="m 92.12923,95.686954 -1.506558,-2.030629 -1.899354,1.669019 0.648287,-2.44395 -2.48912,-0.444359 2.314958,-1.016928 -1.204528,-2.223125 2.238419,1.175863 0.987099,-2.327833 0.476304,2.483204 2.43542,-0.679635 -1.644477,1.920643 2.04982,1.480341 -2.526933,-0.0882 0.120663,2.525591 z"
       transform="matrix(1.2428474,0,0,1.2431993,-21.364688,843.93002)" />
  </g>
</svg>
