<?xml version="1.0" encoding="UTF-8" standalone="no"?>
<!-- Created with Inkscape (http://www.inkscape.org/) -->

<svg
   xmlns:dc="http://purl.org/dc/elements/1.1/"
   xmlns:cc="http://creativecommons.org/ns#"
   xmlns:rdf="http://www.w3.org/1999/02/22-rdf-syntax-ns#"
   xmlns:svg="http://www.w3.org/2000/svg"
   xmlns="http://www.w3.org/2000/svg"
   xmlns:sodipodi="http://sodipodi.sourceforge.net/DTD/sodipodi-0.dtd"
   xmlns:inkscape="http://www.inkscape.org/namespaces/inkscape"
   width="303.3071"
   height="191.26772"
   id="svg2"
   version="1.1"
   inkscape:version="0.47 r22583"
   sodipodi:docname="flag-1-braz.svg">
  <defs
     id="defs4">
    <inkscape:perspective
       sodipodi:type="inkscape:persp3d"
       inkscape:vp_x="0 : 526.18109 : 1"
       inkscape:vp_y="0 : 1000 : 0"
       inkscape:vp_z="744.09448 : 526.18109 : 1"
       inkscape:persp3d-origin="372.04724 : 350.78739 : 1"
       id="perspective10" />
    <inkscape:perspective
       sodipodi:type="inkscape:persp3d"
       inkscape:vp_x="0 : 0.5 : 1"
       inkscape:vp_y="0 : 1000 : 0"
       inkscape:vp_z="1 : 0.5 : 1"
       inkscape:persp3d-origin="0.5 : 0.33333333 : 1"
       id="perspective4387-7" />
    <inkscape:perspective
       sodipodi:type="inkscape:persp3d"
       inkscape:vp_x="0 : 0.5 : 1"
       inkscape:vp_y="0 : 1000 : 0"
       inkscape:vp_z="1 : 0.5 : 1"
       inkscape:persp3d-origin="0.5 : 0.33333333 : 1"
       id="perspective4387" />
    <inkscape:perspective
       id="perspective4371"
       inkscape:persp3d-origin="372.04724 : 350.78739 : 1"
       inkscape:vp_z="744.09448 : 526.18109 : 1"
       inkscape:vp_y="0 : 1000 : 0"
       inkscape:vp_x="0 : 526.18109 : 1"
       sodipodi:type="inkscape:persp3d" />
    <inkscape:perspective
       id="perspective2833"
       inkscape:persp3d-origin="0.5 : 0.33333333 : 1"
       inkscape:vp_z="1 : 0.5 : 1"
       inkscape:vp_y="0 : 1000 : 0"
       inkscape:vp_x="0 : 0.5 : 1"
       sodipodi:type="inkscape:persp3d" />
    <inkscape:perspective
       sodipodi:type="inkscape:persp3d"
       inkscape:vp_x="0 : 526.18109 : 1"
       inkscape:vp_y="0 : 1000 : 0"
       inkscape:vp_z="744.09448 : 526.18109 : 1"
       inkscape:persp3d-origin="372.04724 : 350.78739 : 1"
       id="perspective4371-1" />
    <inkscape:perspective
       id="perspective4387-5"
       inkscape:persp3d-origin="0.5 : 0.33333333 : 1"
       inkscape:vp_z="1 : 0.5 : 1"
       inkscape:vp_y="0 : 1000 : 0"
       inkscape:vp_x="0 : 0.5 : 1"
       sodipodi:type="inkscape:persp3d" />
    <inkscape:perspective
       id="perspective4387-7-5"
       inkscape:persp3d-origin="0.5 : 0.33333333 : 1"
       inkscape:vp_z="1 : 0.5 : 1"
       inkscape:vp_y="0 : 1000 : 0"
       inkscape:vp_x="0 : 0.5 : 1"
       sodipodi:type="inkscape:persp3d" />
    <inkscape:perspective
       id="perspective10-4"
       inkscape:persp3d-origin="372.04724 : 350.78739 : 1"
       inkscape:vp_z="744.09448 : 526.18109 : 1"
       inkscape:vp_y="0 : 1000 : 0"
       inkscape:vp_x="0 : 526.18109 : 1"
       sodipodi:type="inkscape:persp3d" />
    <inkscape:perspective
       sodipodi:type="inkscape:persp3d"
       inkscape:vp_x="0 : 0.5 : 1"
       inkscape:vp_y="0 : 1000 : 0"
       inkscape:vp_z="1 : 0.5 : 1"
       inkscape:persp3d-origin="0.5 : 0.33333333 : 1"
       id="perspective4387-7-1" />
    <inkscape:perspective
       sodipodi:type="inkscape:persp3d"
       inkscape:vp_x="0 : 0.5 : 1"
       inkscape:vp_y="0 : 1000 : 0"
       inkscape:vp_z="1 : 0.5 : 1"
       inkscape:persp3d-origin="0.5 : 0.33333333 : 1"
       id="perspective4387-2" />
    <inkscape:perspective
       id="perspective4371-2"
       inkscape:persp3d-origin="372.04724 : 350.78739 : 1"
       inkscape:vp_z="744.09448 : 526.18109 : 1"
       inkscape:vp_y="0 : 1000 : 0"
       inkscape:vp_x="0 : 526.18109 : 1"
       sodipodi:type="inkscape:persp3d" />
    <inkscape:perspective
       sodipodi:type="inkscape:persp3d"
       inkscape:vp_x="0 : 0.5 : 1"
       inkscape:vp_y="0 : 1000 : 0"
       inkscape:vp_z="1 : 0.5 : 1"
       inkscape:persp3d-origin="0.5 : 0.33333333 : 1"
       id="perspective4387-7-18" />
    <inkscape:perspective
       sodipodi:type="inkscape:persp3d"
       inkscape:vp_x="0 : 0.5 : 1"
       inkscape:vp_y="0 : 1000 : 0"
       inkscape:vp_z="1 : 0.5 : 1"
       inkscape:persp3d-origin="0.5 : 0.33333333 : 1"
       id="perspective4387-76" />
    <inkscape:perspective
       id="perspective4371-5"
       inkscape:persp3d-origin="372.04724 : 350.78739 : 1"
       inkscape:vp_z="744.09448 : 526.18109 : 1"
       inkscape:vp_y="0 : 1000 : 0"
       inkscape:vp_x="0 : 526.18109 : 1"
       sodipodi:type="inkscape:persp3d" />
    <inkscape:perspective
       sodipodi:type="inkscape:persp3d"
       inkscape:vp_x="0 : 0.5 : 1"
       inkscape:vp_y="0 : 1000 : 0"
       inkscape:vp_z="1 : 0.5 : 1"
       inkscape:persp3d-origin="0.5 : 0.33333333 : 1"
       id="perspective4387-7-54" />
    <inkscape:perspective
       sodipodi:type="inkscape:persp3d"
       inkscape:vp_x="0 : 0.5 : 1"
       inkscape:vp_y="0 : 1000 : 0"
       inkscape:vp_z="1 : 0.5 : 1"
       inkscape:persp3d-origin="0.5 : 0.33333333 : 1"
       id="perspective4387-9" />
    <inkscape:perspective
       id="perspective4371-7"
       inkscape:persp3d-origin="372.04724 : 350.78739 : 1"
       inkscape:vp_z="744.09448 : 526.18109 : 1"
       inkscape:vp_y="0 : 1000 : 0"
       inkscape:vp_x="0 : 526.18109 : 1"
       sodipodi:type="inkscape:persp3d" />
    <inkscape:perspective
       id="perspective2926"
       inkscape:persp3d-origin="0.5 : 0.33333333 : 1"
       inkscape:vp_z="1 : 0.5 : 1"
       inkscape:vp_y="0 : 1000 : 0"
       inkscape:vp_x="0 : 0.5 : 1"
       sodipodi:type="inkscape:persp3d" />
    <inkscape:perspective
       sodipodi:type="inkscape:persp3d"
       inkscape:vp_x="0 : 0.5 : 1"
       inkscape:vp_y="0 : 1000 : 0"
       inkscape:vp_z="1 : 0.5 : 1"
       inkscape:persp3d-origin="0.5 : 0.33333333 : 1"
       id="perspective4387-7-7" />
    <inkscape:perspective
       sodipodi:type="inkscape:persp3d"
       inkscape:vp_x="0 : 0.5 : 1"
       inkscape:vp_y="0 : 1000 : 0"
       inkscape:vp_z="1 : 0.5 : 1"
       inkscape:persp3d-origin="0.5 : 0.33333333 : 1"
       id="perspective4387-27" />
    <inkscape:perspective
       id="perspective4371-4"
       inkscape:persp3d-origin="372.04724 : 350.78739 : 1"
       inkscape:vp_z="744.09448 : 526.18109 : 1"
       inkscape:vp_y="0 : 1000 : 0"
       inkscape:vp_x="0 : 526.18109 : 1"
       sodipodi:type="inkscape:persp3d" />
    <inkscape:perspective
       sodipodi:type="inkscape:persp3d"
       inkscape:vp_x="0 : 526.18109 : 1"
       inkscape:vp_y="0 : 1000 : 0"
       inkscape:vp_z="744.09448 : 526.18109 : 1"
       inkscape:persp3d-origin="372.04724 : 350.78739 : 1"
       id="perspective10-4-0" />
    <inkscape:perspective
       sodipodi:type="inkscape:persp3d"
       inkscape:vp_x="0 : 0.5 : 1"
       inkscape:vp_y="0 : 1000 : 0"
       inkscape:vp_z="1 : 0.5 : 1"
       inkscape:persp3d-origin="0.5 : 0.33333333 : 1"
       id="perspective4387-7-5-9" />
    <inkscape:perspective
       sodipodi:type="inkscape:persp3d"
       inkscape:vp_x="0 : 0.5 : 1"
       inkscape:vp_y="0 : 1000 : 0"
       inkscape:vp_z="1 : 0.5 : 1"
       inkscape:persp3d-origin="0.5 : 0.33333333 : 1"
       id="perspective4387-5-0" />
    <inkscape:perspective
       id="perspective4371-1-5"
       inkscape:persp3d-origin="372.04724 : 350.78739 : 1"
       inkscape:vp_z="744.09448 : 526.18109 : 1"
       inkscape:vp_y="0 : 1000 : 0"
       inkscape:vp_x="0 : 526.18109 : 1"
       sodipodi:type="inkscape:persp3d" />
    <inkscape:perspective
       sodipodi:type="inkscape:persp3d"
       inkscape:vp_x="0 : 0.5 : 1"
       inkscape:vp_y="0 : 1000 : 0"
       inkscape:vp_z="1 : 0.5 : 1"
       inkscape:persp3d-origin="0.5 : 0.33333333 : 1"
       id="perspective2833-6" />
    <inkscape:perspective
       sodipodi:type="inkscape:persp3d"
       inkscape:vp_x="0 : 526.18109 : 1"
       inkscape:vp_y="0 : 1000 : 0"
       inkscape:vp_z="744.09448 : 526.18109 : 1"
       inkscape:persp3d-origin="372.04724 : 350.78739 : 1"
       id="perspective4371-8" />
    <inkscape:perspective
       id="perspective4387-24"
       inkscape:persp3d-origin="0.5 : 0.33333333 : 1"
       inkscape:vp_z="1 : 0.5 : 1"
       inkscape:vp_y="0 : 1000 : 0"
       inkscape:vp_x="0 : 0.5 : 1"
       sodipodi:type="inkscape:persp3d" />
    <inkscape:perspective
       id="perspective4387-7-0"
       inkscape:persp3d-origin="0.5 : 0.33333333 : 1"
       inkscape:vp_z="1 : 0.5 : 1"
       inkscape:vp_y="0 : 1000 : 0"
       inkscape:vp_x="0 : 0.5 : 1"
       sodipodi:type="inkscape:persp3d" />
    <inkscape:perspective
       id="perspective10-6"
       inkscape:persp3d-origin="372.04724 : 350.78739 : 1"
       inkscape:vp_z="744.09448 : 526.18109 : 1"
       inkscape:vp_y="0 : 1000 : 0"
       inkscape:vp_x="0 : 526.18109 : 1"
       sodipodi:type="inkscape:persp3d" />
  </defs>
  <sodipodi:namedview
     id="base"
     pagecolor="#ffffff"
     bordercolor="#666666"
     borderopacity="1.0"
     inkscape:pageopacity="0.0"
     inkscape:pageshadow="2"
     inkscape:zoom="3.7919279"
     inkscape:cx="86.328442"
     inkscape:cy="106.06809"
     inkscape:document-units="px"
     inkscape:current-layer="layer1-1"
     showgrid="false"
     inkscape:window-width="1024"
     inkscape:window-height="712"
     inkscape:window-x="-4"
     inkscape:window-y="-4"
     inkscape:window-maximized="1" />
  <metadata
     id="metadata7">
    <rdf:RDF>
      <cc:Work
         rdf:about="">
        <dc:format>image/svg+xml</dc:format>
        <dc:type
           rdf:resource="http://purl.org/dc/dcmitype/StillImage" />
        <dc:title></dc:title>
      </cc:Work>
    </rdf:RDF>
  </metadata>
  <g
     inkscape:label="Layer 1"
     inkscape:groupmode="layer"
     id="layer1"
     transform="translate(0,-861.09447)">
    <path
       id="path4328"
       d="m -47.874759,1003.4903 c -20.333599,-4.92848 -29.975258,-7.3379 -30.030759,-7.50461 -0.08149,-0.24476 0.308242,-9.78251 0.403888,-9.8843 0.02768,-0.0296 3.717763,1.34663 8.200178,3.05795 l 8.149845,3.11155 21.309246,2.70771 c 11.720084,1.48918 21.344072,2.74251 21.38664,2.78505 0.06718,0.0672 0.616765,12.94465 0.55373,12.97455 -0.01306,0.01 -13.500809,-3.2554 -29.972768,-7.2479 l 0,0 z"
       style="fill:none" />
    <path
       id="path4330"
       d="m -47.874759,1003.4903 c -20.333599,-4.92848 -29.975258,-7.3379 -30.030759,-7.50461 -0.08149,-0.24476 0.308242,-9.78251 0.403888,-9.8843 0.02768,-0.0296 3.717763,1.34663 8.200178,3.05795 l 8.149845,3.11155 21.309246,2.70771 c 11.720084,1.48918 21.344072,2.74251 21.38664,2.78505 0.06718,0.0672 0.616765,12.94465 0.55373,12.97455 -0.01306,0.01 -13.500809,-3.2554 -29.972768,-7.2479 l 0,0 z"
       style="fill:none" />
    <path
       id="path4332"
       d="m -47.874759,1003.4903 c -20.333599,-4.92848 -29.975258,-7.3379 -30.030759,-7.50461 -0.08149,-0.24476 0.308242,-9.78251 0.403888,-9.8843 0.02768,-0.0296 3.717763,1.34663 8.200178,3.05795 l 8.149845,3.11155 21.309246,2.70771 c 11.720084,1.48918 21.344072,2.74251 21.38664,2.78505 0.06718,0.0672 0.616765,12.94465 0.55373,12.97455 -0.01306,0.01 -13.500809,-3.2554 -29.972768,-7.2479 l 0,0 z"
       style="fill:none" />
    <path
       id="path4334"
       d="m -47.874759,1003.4903 c -20.333599,-4.92848 -29.975258,-7.3379 -30.030759,-7.50461 -0.08149,-0.24476 0.308242,-9.78251 0.403888,-9.8843 0.02768,-0.0296 3.717763,1.34663 8.200178,3.05795 l 8.149845,3.11155 21.309246,2.70771 c 11.720084,1.48918 21.344072,2.74251 21.38664,2.78505 0.06718,0.0672 0.616765,12.94465 0.55373,12.97455 -0.01306,0.01 -13.500809,-3.2554 -29.972768,-7.2479 l 0,0 z"
       style="fill:none" />
    <path
       id="path4336"
       d="m -47.874759,1003.4903 c -20.333599,-4.92848 -29.975258,-7.3379 -30.030759,-7.50461 -0.08149,-0.24476 0.308242,-9.78251 0.403888,-9.8843 0.02768,-0.0296 3.717763,1.34663 8.200178,3.05795 l 8.149845,3.11155 21.309246,2.70771 c 11.720084,1.48918 21.344072,2.74251 21.38664,2.78505 0.06718,0.0672 0.616765,12.94465 0.55373,12.97455 -0.01306,0.01 -13.500809,-3.2554 -29.972768,-7.2479 l 0,0 z"
       style="fill:none" />
    <path
       id="path4338"
       d="m -47.874759,1003.4903 c -20.333599,-4.92848 -29.975258,-7.3379 -30.030759,-7.50461 -0.08149,-0.24476 0.308242,-9.78251 0.403888,-9.8843 0.02768,-0.0296 3.717763,1.34663 8.200178,3.05795 l 8.149845,3.11155 21.309246,2.70771 c 11.720084,1.48918 21.344072,2.74251 21.38664,2.78505 0.06718,0.0672 0.616765,12.94465 0.55373,12.97455 -0.01306,0.01 -13.500809,-3.2554 -29.972768,-7.2479 l 0,0 z"
       style="fill:none" />
    <path
       transform="translate(-41.143338,916.57759)"
       d="m 180.31222,61.867175 -5.04887,-4.14592 -3.71505,5.373831 0.0935,-6.532302 -6.51773,0.445982 5.16545,-3.999728 -4.41242,-4.817702 6.34772,1.544723 1.01553,-6.453557 2.75003,5.925966 5.67876,-3.229753 -2.91849,5.844836 6.06578,2.426122 -6.38933,1.362425 1.88513,6.255077 z"
       inkscape:randomized="0"
       inkscape:rounded="0"
       inkscape:flatsided="false"
       sodipodi:arg2="1.4315927"
       sodipodi:arg1="0.98279372"
       sodipodi:r2="4.3817472"
       sodipodi:r1="10.198039"
       sodipodi:cy="53.381893"
       sodipodi:cx="174.65536"
       sodipodi:sides="7"
       id="path4356"
       style="fill:#ffffff;fill-opacity:1"
       sodipodi:type="star" />
    <g
       id="layer1-1"
       inkscape:label="Layer 1"
       transform="translate(-14.701655,-4.8608738)">
      <path
         transform="translate(0,861.09447)"
         sodipodi:nodetypes="ccscccccc"
         id="path2816-3"
         d="m 65.844522,29.311431 4.513536,0 c 7.915318,9.743117 31.230522,29.010476 38.028852,45.247194 10.96485,26.187785 17.53605,53.019785 20.91262,73.166745 -21.25752,-1.419 -44.104597,-9.35268 -43.011345,3.45153 L 86.022683,119.05114 C 82.004916,109.1743 79.01585,96.941243 70.358058,91.704425 l -5.04454,0 0.531004,-62.392994 z"
         style="fill:#ececec;fill-opacity:1" />
      <path
         sodipodi:nodetypes="cccc"
         transform="translate(0,861.09447)"
         id="path3592-8"
         d="m 118.14844,107.90005 c 3.40013,10.65092 9.60305,26.73563 9.82357,39.29432 -2.97141,-0.24118 -5.69357,0.26541 -9.29257,-1.85852 l -0.531,-37.4358 z"
         style="fill:#000000;fill-opacity:0.09595959" />
      <path
         sodipodi:nodetypes="cccccccc"
         id="path3632"
         d="m 72.076682,920.86655 c 4.55614,5.20747 9.02541,11.20611 14.23801,16.41359 2.475613,11.2673 6.178557,10.84409 11.218081,24.26465 0.839124,11.51989 9.076027,30.35632 5.269787,43.36241 -2.41467,-0.3622 -13.268313,0 -15.951275,5.1073 l -2.900899,-35.75127 c -8.873815,-25.00452 -9.880824,-18.975 -13.187717,-21.72105 l 1.314013,-31.67563 z"
         style="fill:#aa0000;fill-opacity:1" />
      <path
         style="fill:#000080;fill-opacity:1"
         d="m 56.171954,86.307913 c 1.521963,-4.737494 5.758464,-11.578483 8.222434,-13.385288 3.039111,-2.22855 3.036664,3.925199 9.974115,6.528618 C 69.598273,47.935447 61.605991,35.663001 56.171954,25.389033 l 0,60.91888 z"
         id="path4029"
         transform="translate(14.701655,865.95534)"
         sodipodi:nodetypes="csccc" />
      <path
         sodipodi:nodetypes="cccccccc"
         id="path2818-9"
         d="m 70.62356,893.06092 c 2.479239,0.43738 2.348002,3.16696 3.115208,4.93721 l 6.230415,49.37209 4.12665,-28.63468 c -1.269839,-6.11339 1.632126,9.0922 1.135309,27.88337 l -0.408278,27.97256 C 76.809208,947.97708 71.585182,952.35075 70.846076,951.63521 L 70.62356,893.06092 z"
         style="fill:#000000;fill-opacity:0.25252524" />
    </g>
  </g>
</svg>
