<?xml version="1.0" encoding="UTF-8" ?>
<!DOCTYPE svg PUBLIC "-//W3C//DTD SVG 1.1//EN" "http://www.w3.org/Graphics/SVG/1.1/DTD/svg11.dtd">
<svg width="176pt" height="141pt" viewBox="0 0 176 141" version="1.1" xmlns="http://www.w3.org/2000/svg">
<g id="#77a2d9ff" transform="translate(-1010, -549)">
<path fill="#77a2d9" opacity="1.00" d=" M 1082.60 650.56 C 1085.71 647.36 1090.90 647.48 1094.72 649.26 C 1099.12 651.67 1099.51 657.70 1097.84 661.93 C 1095.05 668.76 1086.81 671.00 1083.80 677.67 C 1088.86 677.69 1093.93 677.63 1099.01 677.69 C 1098.99 679.11 1098.99 680.55 1099.00 681.99 C 1092.27 682.00 1085.54 682.01 1078.81 681.99 C 1079.15 679.50 1079.34 676.87 1080.73 674.70 C 1083.65 670.03 1088.64 667.29 1092.19 663.19 C 1094.19 660.78 1095.47 657.15 1093.78 654.24 C 1092.11 651.43 1087.71 651.16 1085.50 653.43 C 1084.08 655.11 1083.73 657.35 1083.09 659.39 C 1081.76 659.20 1080.44 659.02 1079.14 658.85 C 1079.85 655.94 1080.27 652.69 1082.60 650.56 Z" />
<path fill="#77a2d9" opacity="1.00" d=" M 1110.36 648.48 C 1114.44 647.21 1119.42 648.58 1121.84 652.23 C 1124.75 656.53 1125.16 661.93 1125.04 666.98 C 1124.92 671.27 1124.03 675.81 1121.26 679.21 C 1118.09 683.04 1112.04 683.59 1107.91 681.11 C 1104.77 679.07 1103.31 675.37 1102.59 671.85 C 1101.60 666.40 1101.70 660.62 1103.59 655.36 C 1104.68 652.23 1107.05 649.37 1110.36 648.48 M 1111.34 652.49 C 1107.82 654.12 1106.81 658.40 1106.43 661.91 C 1106.11 666.87 1106.02 672.56 1109.36 676.62 C 1111.41 679.25 1115.65 679.23 1117.80 676.73 C 1119.99 674.05 1120.56 670.44 1120.70 667.08 C 1120.84 662.90 1120.68 658.39 1118.32 654.77 C 1116.94 652.50 1113.79 651.24 1111.34 652.49 Z" />
<path fill="#77a2d9" opacity="1.00" d=" M 1134.28 648.73 C 1135.42 648.75 1136.58 648.79 1137.76 648.84 C 1137.58 659.86 1137.67 670.89 1137.71 681.92 C 1136.35 681.95 1135.00 681.99 1133.68 682.04 C 1133.67 673.06 1133.63 664.09 1133.70 655.12 C 1131.83 656.06 1129.91 656.88 1127.97 657.62 C 1128.00 656.22 1128.05 654.83 1128.13 653.44 C 1130.66 652.58 1132.80 650.96 1134.28 648.73 Z" />
<path fill="#77a2d9" opacity="1.00" d=" M 1142.29 653.61 C 1144.91 652.55 1147.22 650.89 1148.96 648.65 C 1149.72 648.66 1151.24 648.68 1152.00 648.69 C 1152.00 659.79 1152.00 670.90 1152.00 682.00 C 1150.65 681.99 1149.32 681.99 1148.00 682.00 C 1148.00 673.02 1147.97 664.04 1148.02 655.06 C 1146.22 655.98 1144.40 656.87 1142.59 657.75 C 1142.46 656.36 1142.37 654.98 1142.29 653.61 Z" />
<path fill="#4076a1" opacity="1.00" d=" M 1013.62 552.56 C 1017.15 548.07 1024.44 547.66 1028.77 551.20 C 1031.23 553.25 1032.13 556.48 1032.76 559.50 C 1031.24 559.60 1029.73 559.70 1028.23 559.79 C 1028.08 555.80 1024.18 551.79 1020.04 553.27 C 1015.97 555.07 1014.56 559.90 1014.40 563.99 C 1014.19 569.10 1014.22 575.09 1018.22 578.88 C 1021.21 581.18 1025.47 580.33 1028.67 578.87 C 1028.58 575.60 1028.59 572.33 1028.65 569.07 C 1025.92 569.02 1023.20 569.00 1020.50 568.99 C 1020.87 567.81 1019.82 564.92 1021.96 565.24 C 1025.55 565.10 1029.15 565.26 1032.75 565.26 C 1032.69 570.39 1032.98 575.54 1032.68 580.67 C 1031.59 582.74 1029.04 583.40 1026.96 583.98 C 1022.95 584.69 1018.10 585.05 1014.96 581.96 C 1010.74 578.28 1009.87 572.28 1009.94 566.98 C 1009.78 561.99 1010.46 556.62 1013.62 552.56 Z" />
<path fill="#4076a1" opacity="1.00" d=" M 1102.74 549.10 C 1104.06 549.16 1105.40 549.23 1106.76 549.31 C 1106.80 560.78 1106.80 572.25 1106.76 583.72 C 1105.38 583.75 1104.01 583.78 1102.65 583.82 C 1102.63 572.25 1102.47 560.67 1102.74 549.10 Z" />
<path fill="#4076a1" opacity="1.00" d=" M 1094.27 560.01 C 1096.09 559.19 1097.94 558.42 1099.85 557.81 C 1099.94 559.33 1100.02 560.85 1100.10 562.39 C 1099.31 562.31 1097.74 562.13 1096.95 562.05 C 1097.86 566.08 1098.54 571.05 1095.18 574.20 C 1092.65 577.08 1088.53 576.23 1085.16 576.23 C 1084.75 576.66 1083.92 577.52 1083.51 577.96 C 1087.56 579.62 1092.10 579.14 1096.21 580.59 C 1099.14 581.46 1100.51 585.15 1099.30 587.86 C 1098.42 590.56 1095.51 591.82 1092.94 592.31 C 1088.09 593.33 1082.39 592.84 1078.87 588.99 C 1078.62 586.13 1079.13 583.33 1081.65 581.64 C 1079.61 579.33 1080.03 576.26 1082.56 574.53 C 1079.68 570.73 1079.17 565.09 1082.18 561.22 C 1085.21 557.93 1090.53 557.94 1094.27 560.01 M 1087.18 562.34 C 1082.30 564.09 1083.53 573.29 1089.01 573.01 C 1092.14 573.23 1094.09 569.88 1093.66 567.06 C 1093.81 563.84 1090.29 560.84 1087.18 562.34 M 1083.18 587.65 C 1085.58 589.70 1089.07 589.31 1092.00 589.00 C 1094.33 588.83 1096.39 586.49 1095.05 584.23 C 1091.67 583.50 1088.24 583.09 1084.82 582.84 C 1083.66 584.13 1081.94 585.80 1083.18 587.65 Z" />
<path fill="#4076a1" opacity="1.00" d=" M 1042.27 559.27 C 1046.62 557.39 1052.41 559.25 1054.19 563.82 C 1056.35 569.29 1056.36 576.04 1053.03 581.06 C 1049.13 586.54 1039.33 584.98 1037.47 578.43 C 1035.31 572.13 1035.49 562.62 1042.27 559.27 M 1044.84 562.73 C 1042.16 563.56 1041.08 566.54 1040.71 569.06 C 1039.95 573.52 1041.09 579.37 1046.01 580.87 C 1048.55 579.89 1050.66 577.80 1051.02 575.01 C 1051.37 571.47 1051.74 567.41 1049.43 564.42 C 1048.46 563.03 1046.49 561.98 1044.84 562.73 Z" />
<path fill="#4076a1" opacity="1.00" d=" M 1063.40 559.52 C 1067.64 557.40 1073.59 558.82 1075.65 563.32 C 1078.26 568.97 1078.15 576.30 1074.45 581.45 C 1070.38 586.54 1061.21 584.76 1059.30 578.52 C 1057.28 572.31 1057.18 563.37 1063.40 559.52 M 1065.36 563.26 C 1061.70 566.37 1061.91 571.91 1063.00 576.16 C 1063.64 578.99 1066.87 581.76 1069.72 579.86 C 1073.65 577.00 1073.60 571.29 1072.52 567.04 C 1071.77 564.10 1068.28 560.98 1065.36 563.26 Z" />
<path fill="#4076a1" opacity="1.00" d=" M 1112.67 561.74 C 1115.70 557.40 1123.15 557.52 1126.00 561.97 C 1128.13 565.17 1128.24 569.15 1128.32 572.86 C 1123.63 572.73 1118.93 572.77 1114.25 572.81 C 1114.86 575.59 1115.21 579.54 1118.54 580.40 C 1121.62 581.46 1123.82 578.07 1124.30 575.46 C 1125.61 575.51 1126.93 575.57 1128.27 575.65 C 1127.88 577.59 1127.54 579.66 1126.28 581.27 C 1123.92 584.55 1119.10 585.17 1115.58 583.60 C 1111.98 581.91 1110.85 577.69 1110.36 574.09 C 1109.96 569.91 1110.26 565.31 1112.67 561.74 M 1114.47 569.22 C 1117.71 569.22 1120.95 569.22 1124.20 569.19 C 1123.82 566.35 1122.62 562.45 1119.16 562.37 C 1115.84 562.76 1114.78 566.41 1114.47 569.22 Z" />
<path fill="#4076a1" opacity="1.00" d=" M 1094.20 598.01 C 1095.59 597.99 1096.98 597.98 1098.39 597.98 C 1098.36 609.59 1098.46 621.21 1098.33 632.82 C 1096.96 632.78 1095.60 632.75 1094.25 632.73 C 1094.17 621.15 1094.26 609.58 1094.20 598.01 Z" />
<path fill="#4076a1" opacity="1.00" d=" M 1011.00 598.61 C 1016.80 599.15 1023.83 596.86 1028.55 601.32 C 1033.07 606.37 1032.52 613.65 1032.32 619.95 C 1032.09 624.77 1030.01 630.37 1025.04 632.03 C 1020.48 633.35 1015.66 632.61 1011.00 632.78 C 1011.00 621.39 1011.00 610.00 1011.00 598.61 M 1015.00 602.77 C 1015.00 611.25 1014.99 619.73 1015.01 628.21 C 1017.63 628.21 1020.28 628.39 1022.91 628.05 C 1026.84 627.08 1027.87 622.49 1028.14 619.00 C 1028.29 614.37 1028.71 609.13 1025.84 605.19 C 1023.33 601.77 1018.62 602.99 1015.00 602.77 Z" />
<path fill="#4076a1" opacity="1.00" d=" M 1037.24 611.34 C 1039.57 606.49 1047.40 606.18 1050.36 610.55 C 1052.70 613.60 1052.68 617.65 1052.92 621.31 C 1048.35 621.44 1043.77 621.36 1039.21 621.44 C 1039.48 625.05 1040.72 629.07 1044.78 629.86 C 1047.28 628.73 1048.29 626.19 1049.68 624.02 C 1050.42 624.21 1051.91 624.57 1052.65 624.76 C 1052.73 628.61 1049.97 632.69 1045.96 633.16 C 1042.49 633.84 1038.48 632.37 1037.03 628.98 C 1034.65 623.48 1034.46 616.74 1037.24 611.34 M 1039.23 617.98 C 1042.48 618.02 1045.75 618.00 1049.01 617.79 C 1048.17 615.22 1047.35 611.30 1043.94 611.35 C 1040.52 611.38 1039.93 615.44 1039.23 617.98 Z" />
<path fill="#4076a1" opacity="1.00" d=" M 1053.84 608.11 C 1055.26 608.26 1056.84 607.99 1058.23 608.54 C 1060.04 614.66 1061.20 620.96 1063.24 627.02 C 1064.90 620.74 1066.46 614.44 1068.19 608.18 C 1069.60 608.18 1071.02 608.18 1072.45 608.20 C 1070.06 616.31 1067.87 624.49 1065.31 632.54 C 1063.87 632.79 1062.41 632.81 1061.00 632.93 C 1058.52 624.68 1055.97 616.45 1053.84 608.11 Z" />
<path fill="#4076a1" opacity="1.00" d=" M 1074.85 612.13 C 1076.74 606.98 1084.53 605.90 1087.97 610.02 C 1090.65 613.11 1090.81 617.47 1090.84 621.37 C 1086.27 621.41 1081.70 621.33 1077.14 621.49 C 1077.78 624.61 1078.31 628.91 1082.20 629.57 C 1085.28 629.56 1086.42 626.41 1087.32 624.03 C 1088.57 624.31 1089.84 624.61 1091.12 624.92 C 1090.37 626.83 1089.85 628.90 1088.61 630.57 C 1085.16 634.77 1077.36 634.08 1075.07 629.00 C 1072.73 623.72 1072.68 617.47 1074.85 612.13 M 1079.94 611.98 C 1078.03 613.36 1077.94 615.91 1077.34 617.99 C 1080.55 618.01 1083.78 618.00 1087.00 617.82 C 1086.35 615.84 1085.61 613.90 1084.82 611.99 C 1083.23 611.73 1081.36 610.81 1079.94 611.98 Z" />
<path fill="#4076a1" opacity="1.00" d=" M 1107.24 608.24 C 1109.58 607.27 1112.31 607.39 1114.72 608.13 C 1118.50 609.80 1120.15 614.16 1120.37 618.04 C 1120.59 622.28 1120.48 627.11 1117.49 630.47 C 1114.35 634.27 1107.68 634.26 1104.66 630.31 C 1101.68 626.94 1101.80 622.22 1101.97 618.02 C 1101.94 614.16 1103.85 610.20 1107.24 608.24 M 1110.50 611.42 C 1107.15 612.21 1106.15 616.02 1105.89 619.00 C 1105.63 622.48 1106.21 626.62 1109.21 628.86 C 1111.22 629.85 1113.84 628.96 1114.84 626.96 C 1116.61 623.65 1116.53 619.61 1115.79 616.03 C 1115.11 613.73 1113.24 610.91 1110.50 611.42 Z" />
<path fill="#4076a1" opacity="1.00" d=" M 1124.00 608.21 C 1125.25 608.19 1126.51 608.18 1127.79 608.17 C 1127.91 608.58 1128.14 609.40 1128.25 609.81 C 1130.40 607.53 1133.86 606.97 1136.74 608.10 C 1141.08 610.81 1141.47 616.46 1141.43 621.08 C 1141.30 625.26 1140.66 630.49 1136.54 632.68 C 1133.59 634.15 1130.38 632.81 1127.99 630.95 C 1128.01 634.23 1128.00 637.52 1127.99 640.81 C 1126.65 640.79 1125.32 640.78 1124.00 640.79 C 1124.01 629.93 1123.99 619.07 1124.00 608.21 M 1128.25 614.30 C 1127.73 618.18 1128.12 622.12 1128.00 626.02 C 1129.63 627.89 1131.92 630.24 1134.65 628.81 C 1137.90 625.84 1137.30 620.92 1137.07 616.96 C 1137.08 614.23 1135.08 612.31 1132.90 611.05 C 1131.24 611.95 1129.19 612.52 1128.25 614.30 Z" />
<path fill="#4076a1" opacity="1.00" d=" M 1145.74 611.70 C 1147.96 606.77 1155.57 606.05 1158.86 610.22 C 1161.30 613.38 1161.42 617.55 1161.47 621.38 C 1156.94 621.40 1152.42 621.40 1147.91 621.36 C 1148.33 624.57 1148.99 629.18 1153.05 629.52 C 1155.98 629.48 1157.02 626.57 1157.71 624.24 C 1159.02 624.38 1160.34 624.54 1161.68 624.72 C 1160.98 626.87 1160.56 629.27 1158.94 630.97 C 1155.33 634.74 1148.02 633.93 1145.77 629.04 C 1143.33 623.65 1143.31 617.09 1145.74 611.70 M 1147.93 617.97 C 1151.09 618.00 1154.25 618.00 1157.43 617.98 C 1157.04 615.28 1156.22 611.47 1152.83 611.35 C 1149.32 611.25 1148.57 615.33 1147.93 617.97 Z" />
<path fill="#4076a1" opacity="1.00" d=" M 1165.01 608.12 C 1166.65 608.32 1169.17 607.48 1169.29 609.94 C 1170.64 608.27 1172.55 607.44 1174.71 607.39 C 1174.74 608.93 1174.78 610.49 1174.83 612.05 C 1171.91 611.55 1168.80 613.88 1169.05 616.95 C 1168.94 622.22 1169.03 627.50 1169.00 632.79 C 1167.65 632.78 1166.32 632.78 1165.00 632.79 C 1165.00 624.57 1164.98 616.35 1165.01 608.12 Z" />
<path fill="#4076a1" opacity="1.00" d=" M 1011.00 647.22 C 1016.76 647.67 1024.21 645.45 1028.36 650.75 C 1032.16 656.23 1032.13 663.49 1031.35 669.87 C 1030.91 674.41 1028.73 679.61 1023.94 680.95 C 1019.68 681.82 1015.30 681.25 1011.00 681.39 C 1011.00 670.00 1011.00 658.61 1011.00 647.22 M 1015.09 651.28 C 1014.93 659.94 1015.02 668.60 1015.01 677.25 C 1018.74 677.13 1023.82 677.99 1025.82 673.92 C 1028.31 668.04 1028.22 660.99 1025.98 655.05 C 1024.08 650.78 1018.91 651.40 1015.09 651.28 Z" />
<path fill="#4076a1" opacity="1.00" d=" M 1034.43 663.50 C 1034.61 655.75 1046.70 653.23 1049.75 660.20 C 1051.25 667.20 1049.77 674.48 1050.73 681.57 C 1048.92 681.82 1047.45 681.30 1046.34 680.03 C 1044.44 681.19 1042.32 682.49 1040.00 681.95 C 1032.73 681.09 1032.02 668.83 1038.74 666.62 C 1041.31 665.51 1044.14 666.16 1046.82 666.45 C 1046.52 664.74 1046.64 662.89 1045.76 661.35 C 1044.65 659.71 1042.50 660.13 1040.85 659.85 C 1039.92 661.10 1039.05 662.39 1038.26 663.73 C 1036.97 663.66 1035.69 663.58 1034.43 663.50 M 1038.59 671.51 C 1036.44 674.68 1040.13 679.94 1043.83 677.82 C 1046.80 676.49 1046.76 672.98 1046.69 670.22 C 1044.05 669.43 1040.22 668.58 1038.59 671.51 Z" />
<path fill="#4076a1" opacity="1.00" d=" M 1052.05 656.96 C 1053.41 656.94 1054.78 656.97 1056.17 657.04 C 1058.33 662.84 1059.35 669.03 1061.24 674.94 C 1062.34 668.92 1063.85 662.99 1065.06 657.00 C 1066.42 656.99 1067.79 656.99 1069.18 657.00 C 1067.52 664.87 1065.39 672.63 1063.63 680.47 C 1062.82 683.42 1062.05 686.66 1059.75 688.85 C 1057.84 690.38 1055.25 689.92 1053.00 690.08 C 1052.98 688.67 1052.98 687.27 1052.98 685.88 C 1054.57 685.67 1056.79 686.59 1057.77 684.84 C 1059.26 683.29 1059.20 681.05 1058.55 679.15 C 1056.40 671.74 1054.21 664.35 1052.05 656.96 Z" />
</g>
</svg>
