<?xml version="1.0" encoding="UTF-8" standalone="no"?>
<svg
   xmlns:dc="http://purl.org/dc/elements/1.1/"
   xmlns:cc="http://creativecommons.org/ns#"
   xmlns:rdf="http://www.w3.org/1999/02/22-rdf-syntax-ns#"
   xmlns:svg="http://www.w3.org/2000/svg"
   xmlns="http://www.w3.org/2000/svg"
   xmlns:sodipodi="http://sodipodi.sourceforge.net/DTD/sodipodi-0.dtd"
   xmlns:inkscape="http://www.inkscape.org/namespaces/inkscape"
   id="svg3459"
   version="1.1"
   inkscape:version="0.48.1 "
   width="750px"
   height="1280px"
   sodipodi:docname="matreshka.svg">
  <metadata
     id="metadata3475">
    <rdf:RDF>
      <cc:Work
         rdf:about="">
        <dc:format>image/svg+xml</dc:format>
        <dc:type
           rdf:resource="http://purl.org/dc/dcmitype/StillImage" />
      </cc:Work>
    </rdf:RDF>
  </metadata>
  <defs
     id="defs3473">
    <inkscape:path-effect
       effect="skeletal"
       id="path-effect4372"
       is_visible="true"
       pattern="M 0,5 C 0,2.24 2.24,0 5,0 7.76,0 10,2.24 10,5 10,7.76 7.76,10 5,10 2.24,10 0,7.76 0,5 z"
       copytype="single_stretched"
       prop_scale="1"
       scale_y_rel="false"
       spacing="0"
       normal_offset="0"
       tang_offset="0"
       prop_units="false"
       vertical_pattern="false"
       fuse_tolerance="0" />
    <inkscape:path-effect
       effect="spiro"
       id="path-effect4370"
       is_visible="true" />
    <inkscape:path-effect
       effect="skeletal"
       id="path-effect4360"
       is_visible="true"
       pattern="M 0,5 C 0,2.24 2.24,0 5,0 7.76,0 10,2.24 10,5 10,7.76 7.76,10 5,10 2.24,10 0,7.76 0,5 z"
       copytype="single_stretched"
       prop_scale="1"
       scale_y_rel="false"
       spacing="0"
       normal_offset="0"
       tang_offset="0"
       prop_units="false"
       vertical_pattern="false"
       fuse_tolerance="0" />
    <inkscape:path-effect
       effect="spiro"
       id="path-effect4358"
       is_visible="true" />
    <inkscape:path-effect
       effect="spiro"
       id="path-effect4305"
       is_visible="true" />
  </defs>
  <sodipodi:namedview
     pagecolor="#ffffff"
     bordercolor="#666666"
     borderopacity="1"
     objecttolerance="10"
     gridtolerance="10"
     guidetolerance="10"
     inkscape:pageopacity="0"
     inkscape:pageshadow="2"
     inkscape:window-width="1280"
     inkscape:window-height="750"
     id="namedview3471"
     showgrid="false"
     inkscape:zoom="0.52605519"
     inkscape:cx="367.69162"
     inkscape:cy="901.13195"
     inkscape:window-x="-8"
     inkscape:window-y="-8"
     inkscape:window-maximized="1"
     inkscape:current-layer="g4576" />
  <g
     id="g4576"
     transform="matrix(0.99999897,0,0,1.0000007,-298.86335,-77.448583)">
    <path
       sodipodi:nodetypes="ccccscscsccscsscsccc"
       d="m 482.76194,83.836047 c -53.75507,0 -99.28485,36.299873 -114.75876,86.458143 l 0,0.0971 0,0.19451 c -3.61589,11.81405 -5.64069,24.39423 -5.64069,37.44251 0,3.11297 0.17242,6.18356 0.38902,9.23905 -6.36979,51.76369 -12.36246,72.68282 -25.48035,94.14115 -10.65971,17.43731 -14.29623,24.4191 -14.29623,27.23091 -14.96636,30.88988 -23.5353,66.56633 -23.5353,104.54726 0,0.64825 2.68234,1.29836 2.68834,1.94506 81.08061,-21.05326 269.41068,-18.5638 364.92904,0 0,-0.6467 0,8.97307 0,0 0,-47.80229 -13.60208,-93.86912 -36.47013,-129.44409 0.002,-0.0367 0,-0.0585 0,-0.0971 0,-2.31036 -2.56095,-8.1373 -9.91983,-22.46549 -9.15425,-17.82433 -13.24854,-35.01503 -17.7001,-78.58063 0.10893,-2.16665 0.19296,-4.32163 0.19296,-6.51597 0,-10.54679 -1.29744,-20.85763 -3.69563,-30.63478 -13.19936,-53.81652 -60.42803,-93.557633 -116.7039,-93.557633 z"
       id="path3463"
       inkscape:connector-curvature="0"
       style="fill:#ff0000" />
    <g
       id="g4506"
       transform="matrix(0.25523386,0,0,0.25523386,101.06804,496.71961)">
      <path
         d="m 1541.9483,-580.76935 c -93.0514,0 -168.5625,81.28892 -168.5625,181.4375 0,3.82772 0.1264,7.6059 0.3438,11.375 -29.7584,-28.40766 -68.9058,-45.6875 -111.7813,-45.6875 -93.0514,0 -168.5625,81.28894 -168.5625,181.4375 0,89.44233 60.2419,163.83531 139.4063,178.71875 -33.0255,33.12781 -53.6875,80.3345098 -53.6875,132.71875 0,100.14857 75.511,181.43748 168.5625,181.4375 68.6386,0 127.714,-44.2545 154,-107.65625 28.365,57.23348 84.4034,96.21875 148.8437,96.21875 93.0514,0 168.5937,-81.28892 168.5938,-181.4375 0,-38.8792202 -11.4107,-74.89729 -30.7813,-104.4375 9.9766,1.98284 20.2742,3 30.7813,3 93.0514,0 168.5625,-81.25769 168.5625,-181.40625 0,-100.14857 -75.5111,-181.4375 -168.5625,-181.4375 -42.2483,0 -80.9073,16.73692 -110.5,44.40625 1.2481,-8.89721 1.9062,-17.97997 1.9062,-27.25 0,-100.14857 -75.5111,-181.4375 -168.5625,-181.4375 z"
         id="path4508"
         inkscape:connector-curvature="0"
         style="fill:#ffff00" />
      <path
         d="m 1527.6671,-272.20685 c -4.5343,0 -9.0211,0.17989 -13.4375,0.53125 -4.4165,0.35136 -8.7547,0.87705 -13.0313,1.5625 -4.2765,0.68545 -8.4791,1.529 -12.5937,2.53125 -4.1146,1.00225 -8.1632,2.16696 -12.0938,3.46875 -3.9305,1.30179 -7.7443,2.75971 -11.4687,4.34375 -3.7244,1.58404 -7.3476,3.30723 -10.8438,5.15625 -3.4962,1.84902 -6.8791,3.80953 -10.125,5.90625 -3.2459,2.09672 -6.3702,4.32911 -9.3437,6.65625 -2.9736,2.32714 -5.7896,4.74096 -8.4688,7.28125 -2.6791,2.54029 -5.1998,5.20134 -7.5625,7.9375 -2.3626,2.73616 -4.5697,5.554 -6.5937,8.46875 -2.0241,2.91475 -3.8679,5.92393 -5.5313,9 -1.6634,3.07607 -3.1568,6.21739 -4.4375,9.4375 -1.2806,3.22011 -2.3429,6.52813 -3.2187,9.875 -0.8759,3.34687 -1.5511,6.73114 -2,10.1875 -0.449,3.45636 -0.6875,6.98268 -0.6875,10.53125 0,3.54857 0.2385,7.04364 0.6875,10.5 0.4489,3.45636 1.1241,6.87188 2,10.21875 0.8758,3.34687 1.9381,6.62364 3.2187,9.84375 1.2807,3.22011 2.7741,6.36143 4.4375,9.4375 1.6634,3.07607 3.5072,6.08525 5.5313,9 2.024,2.91475 4.2311,5.73259 6.5937,8.46875 2.3627,2.73616 4.8834,5.39721 7.5625,7.9375 2.6792,2.54029 5.4952,4.98536 8.4688,7.3125 2.9735,2.32714 6.0978,4.52828 9.3437,6.625 3.2459,2.09672 6.6288,4.08848 10.125,5.9375 3.4962,1.84902 7.1194,3.57221 10.8438,5.15625 3.7244,1.58404 7.5382,3.01071 11.4687,4.3125 3.9306,1.30179 7.9792,2.4665 12.0938,3.46875 4.1146,1.00225 8.3172,1.8458 12.5937,2.53125 4.2766,0.68545 8.6148,1.21114 13.0313,1.5625 4.4164,0.35136 8.9032,0.53125 13.4375,0.53125 4.5343,0 9.021,-0.17989 13.4375,-0.53125 4.4164,-0.35136 8.7547,-0.87705 13.0312,-1.5625 4.2766,-0.68545 8.4792,-1.529 12.5938,-2.53125 4.1146,-1.00225 8.1319,-2.16696 12.0625,-3.46875 3.9305,-1.30179 7.7756,-2.72846 11.5,-4.3125 3.7244,-1.58404 7.3475,-3.30723 10.8437,-5.15625 3.4962,-1.84902 6.8791,-3.84078 10.125,-5.9375 3.246,-2.09672 6.339,-4.29786 9.3125,-6.625 2.9736,-2.32714 5.8209,-4.77221 8.5,-7.3125 2.6792,-2.54029 5.1999,-5.20134 7.5625,-7.9375 2.3626,-2.73616 4.5697,-5.554 6.5938,-8.46875 2.024,-2.91475 3.8678,-5.92393 5.5312,-9 1.6634,-3.07607 3.1256,-6.21739 4.4063,-9.4375 1.2806,-3.22011 2.3741,-6.49687 3.25,-9.84375 0.8758,-3.34688 1.551,-6.76239 2,-10.21875 0.4489,-3.45636 0.6875,-6.95143 0.6875,-10.5 0,-3.54857 -0.2386,-7.07489 -0.6875,-10.53125 -0.449,-3.45636 -1.1242,-6.84063 -2,-10.1875 -0.8759,-3.34687 -1.9694,-6.65489 -3.25,-9.875 -1.2807,-3.22011 -2.7429,-6.36143 -4.4063,-9.4375 -1.6634,-3.07607 -3.5072,-6.08525 -5.5312,-9 -2.0241,-2.91475 -4.2312,-5.73259 -6.5938,-8.46875 -2.3626,-2.73616 -4.8833,-5.39721 -7.5625,-7.9375 -2.6791,-2.54029 -5.5264,-4.95411 -8.5,-7.28125 -2.9735,-2.32714 -6.0665,-4.55953 -9.3125,-6.65625 -3.2459,-2.09672 -6.6288,-4.05723 -10.125,-5.90625 -3.4962,-1.84902 -7.1193,-3.57221 -10.8437,-5.15625 -3.7244,-1.58404 -7.5695,-3.04196 -11.5,-4.34375 -3.9306,-1.30179 -7.9479,-2.4665 -12.0625,-3.46875 -4.1146,-1.00225 -8.3172,-1.8458 -12.5938,-2.53125 -4.2765,-0.68545 -8.6148,-1.21114 -13.0312,-1.5625 -4.4165,-0.35136 -8.9032,-0.53125 -13.4375,-0.53125 z"
         id="path4510"
         inkscape:connector-curvature="0"
         style="fill:#ff0000" />
    </g>
    <path
       style="fill:#f6cc31;fill-opacity:1"
       inkscape:connector-curvature="0"
       id="path4512"
       d="m 482.22291,77.622986 c -53.75507,0 -96.59651,32.579524 -112.07042,82.737804 -6.55951,23.27731 -7.75748,31.58199 -9.36572,52.59445 -3.38907,41.65445 -3.54961,62.08436 -16.6675,83.54269 93.41133,47.146 135.90306,7.29682 139.95676,6.8105 0,0 88.19016,42.73451 137.95293,-9.2679 -9.15425,-17.82433 -15.14948,-42.14356 -19.60104,-85.70916 0.10893,-2.16665 0.19296,-4.32163 0.19296,-6.51597 0,-10.54679 -1.29744,-20.85763 -3.69563,-30.63478 C 585.72589,117.3641 538.49722,77.622986 482.22135,77.622986 z"
       sodipodi:nodetypes="ccccsccsccc" />
    <path
       transform="matrix(1.3490119,0,0,1.2340674,1345.4612,-94.335242)"
       d="m -564.48547,231.84224 a 74.59272,74.59272 0 1 1 -149.18544,0 74.59272,74.59272 0 1 1 149.18544,0 z"
       sodipodi:ry="74.59272"
       sodipodi:rx="74.59272"
       sodipodi:cy="231.84224"
       sodipodi:cx="-639.07819"
       id="path3489"
       style="fill:#ffffff;fill-rule:evenodd;stroke:none"
       sodipodi:type="arc" />
    <path
       style="fill:#b96023;fill-opacity:1;stroke:none"
       d="m 389.0064,160.10086 c 0,0 22.79312,-62.126802 91.24518,-61.78051 72.22925,0.3654 94.09659,55.70374 94.09659,55.70374 0,0 -42.77118,-2.60211 -59.87965,-10.70448 -17.10847,-8.10236 -34.21694,-21.70496 -34.21694,-21.70496 0,0 -8.55424,14.74005 -27.56365,21.82961 -19.00941,7.08955 -63.68153,16.6566 -63.68153,16.6566 z"
       id="path4536"
       inkscape:connector-curvature="0"
       sodipodi:nodetypes="cscscsc" />
    <path
       sodipodi:type="arc"
       style="fill:#000000;stroke:none"
       id="path4516"
       sodipodi:cx="-1308.3966"
       sodipodi:cy="219.74612"
       sodipodi:rx="58.464565"
       sodipodi:ry="62.496605"
       d="m -1249.932,219.74612 a 58.464565,62.496605 0 1 1 -116.9292,0 58.464565,62.496605 0 1 1 116.9292,0 z"
       transform="matrix(0.28021189,0,0,0.27349789,803.70037,118.65349)" />
    <path
       sodipodi:type="arc"
       style="fill:#000000;stroke:none"
       id="path4518"
       sodipodi:cx="-1308.3966"
       sodipodi:cy="219.74612"
       sodipodi:rx="58.464565"
       sodipodi:ry="62.496605"
       d="m -1249.932,219.74612 a 58.464565,62.496605 0 1 1 -116.9292,0 58.464565,62.496605 0 1 1 116.9292,0 z"
       transform="matrix(0.27208328,0,0,0.26589371,889.45586,121.26327)" />
    <path
       sodipodi:type="arc"
       style="fill:#fddec3;fill-opacity:1;stroke:none"
       id="path4532"
       sodipodi:cx="95.522301"
       sodipodi:cy="130.40569"
       sodipodi:rx="43.246414"
       sodipodi:ry="43.721649"
       d="m 138.76871,130.40569 a 43.246414,43.721649 0 1 1 -86.492823,0 43.246414,43.721649 0 1 1 86.492823,0 z"
       transform="matrix(0.42857144,0,0,0.41304349,381.97305,169.45891)" />
    <path
       sodipodi:type="arc"
       style="fill:#fddec3;fill-opacity:1;stroke:none"
       id="path4534"
       sodipodi:cx="95.522301"
       sodipodi:cy="130.40569"
       sodipodi:rx="43.246414"
       sodipodi:ry="43.721649"
       d="m 138.76871,130.40569 a 43.246414,43.721649 0 1 1 -86.492823,0 43.246414,43.721649 0 1 1 86.492823,0 z"
       transform="matrix(0.42857144,0,0,0.41304349,506.00947,169.62551)" />
    <g
       id="g4520"
       transform="matrix(1.1849046,0,0,1.1434521,24.8564,41.90906)">
      <path
         sodipodi:nodetypes="cscscsssc"
         inkscape:connector-curvature="0"
         id="path4522"
         d="m 366.54845,185.37605 c 0,0 7.61706,-5.83034 14.19969,-5.83034 6.58264,0 7.52298,4.32572 7.52298,4.32572 0,0 1.12847,-4.41974 7.42898,-4.32572 6.30055,0.0941 14.57582,6.7707 14.57582,6.7707 0,0 -3.10433,5.79424 -7.24086,8.7455 -3.45441,2.46461 -7.70799,4.85474 -13.16529,4.88995 -5.5446,0.0358 -11.66067,-1.88074 -15.42216,-4.70187 -2.84386,-2.13288 -7.89916,-9.87394 -7.89916,-9.87394 z"
         style="fill:#ff0000;stroke:none" />
      <path
         sodipodi:nodetypes="cc"
         inkscape:connector-curvature="0"
         id="path4524"
         d="m 372.46567,187.43391 c -4.15831,-1.66331 -8.79185,-6.10496 -11.28683,-9.31279"
         style="fill:none;stroke:#ff0000;stroke-width:4.4000001;stroke-linecap:round;stroke-linejoin:round;stroke-miterlimit:4;stroke-opacity:1;stroke-dasharray:none" />
      <path
         sodipodi:nodetypes="cc"
         inkscape:connector-curvature="0"
         id="path4526"
         d="m 407.7519,186.72106 c 0,0 5.83008,-4.14287 8.91911,-7.70713"
         style="fill:none;stroke:#ff0000;stroke-width:4.4000001;stroke-linecap:round;stroke-linejoin:round;stroke-miterlimit:4;stroke-opacity:1;stroke-dasharray:none" />
      <path
         sodipodi:nodetypes="cc"
         inkscape:connector-curvature="0"
         id="path4528"
         d="m 356.22964,181.01329 c 2.47972,-3.81628 4.18354,-5.73246 8.21819,-6.28841"
         style="fill:none;stroke:#ff0000;stroke-width:4.4000001;stroke-linecap:round;stroke-linejoin:round;stroke-miterlimit:4;stroke-opacity:1;stroke-dasharray:none" />
      <path
         sodipodi:nodetypes="cc"
         inkscape:connector-curvature="0"
         id="path4530"
         d="m 420.61702,182.00947 c -2.02324,-5.2037 -7.23189,-6.37984 -7.23189,-6.37984"
         style="fill:#ff0000;stroke:#ff0000;stroke-width:4.4000001;stroke-linecap:round;stroke-linejoin:round;stroke-miterlimit:4;stroke-opacity:1;stroke-dasharray:none" />
    </g>
    <path
       style="fill:#f6cc31;fill-opacity:1;stroke:none"
       d="m 480.03131,300.65983 c 0,0 -12.80868,-0.98527 -20.69097,10.83812 -7.88228,11.82339 -5.91171,47.29357 -5.91171,47.29357 0,0 14.77927,-16.74982 21.67626,-25.61735 6.89699,-8.86756 7.88226,-22.66151 7.88226,-22.66151 0,0 0.98529,11.82339 5.91172,19.70565 4.92642,7.88226 28.57325,17.73509 28.57325,17.73509 0,0 -0.98529,-35.47018 -9.85283,-42.36715 -8.86757,-6.89699 -27.58798,-4.92642 -27.58798,-4.92642 z"
       id="path3049"
       inkscape:connector-curvature="0" />
  </g>
</svg>
