<?xml version="1.0" encoding="UTF-8" ?>
<!DOCTYPE svg PUBLIC "-//W3C//DTD SVG 1.1//EN" "http://www.w3.org/Graphics/SVG/1.1/DTD/svg11.dtd">
<svg width="1186pt" height="790pt" viewBox="0 0 1186 790" version="1.1" xmlns="http://www.w3.org/2000/svg">
<g id="map">
<path fill="white" opacity="1.00" d=" M 232.91 105.29 C 299.27 105.38 365.63 105.31 432.00 105.33 C 398.98 166.32 365.54 227.08 332.56 288.08 C 320.79 267.49 309.83 246.44 298.34 225.68 C 278.08 188.57 257.89 151.42 237.62 114.31 C 235.95 111.36 234.33 108.37 232.91 105.29 Z" />
<path fill="white" opacity="1.00" d=" M 444.95 105.28 C 511.34 105.38 577.72 105.34 644.11 105.30 C 611.11 166.33 577.77 227.18 544.57 288.10 C 511.27 227.21 478.02 166.29 444.95 105.28 Z" />
<path fill="white" opacity="1.00" d=" M 438.26 109.57 C 445.42 121.32 451.54 133.69 458.28 145.68 C 484.91 194.53 511.56 243.37 538.15 292.24 C 471.72 292.42 405.29 292.33 338.86 292.29 C 371.81 231.28 405.24 170.54 438.26 109.57 Z" />
<path fill="white" opacity="1.00" d=" M 825.52 177.65 C 838.00 154.96 850.18 132.10 862.83 109.51 C 896.09 170.39 929.31 231.28 962.41 292.25 C 896.02 292.44 829.62 292.28 763.23 292.34 C 783.64 253.93 804.85 215.93 825.52 177.65 Z" />
<path fill="white" opacity="1.00" d=" M 1056.00 144.05 C 1062.37 132.57 1068.40 120.90 1074.99 109.54 C 1096.58 148.85 1117.92 188.30 1139.45 227.64 C 1151.05 249.24 1163.08 270.61 1174.52 292.29 C 1108.10 292.38 1041.67 292.33 975.24 292.31 C 1002.08 242.84 1029.10 193.48 1056.00 144.05 Z" />
<path fill="white" opacity="1.00" d=" M 126.73 300.00 C 193.11 300.04 259.48 299.92 325.85 300.06 C 292.89 360.98 259.48 421.66 226.51 482.58 C 220.67 473.20 215.83 463.22 210.39 453.60 C 182.53 402.38 154.54 351.24 126.73 300.00 Z" />
<path fill="white" opacity="1.00" d=" M 338.86 300.00 C 405.27 300.00 471.69 300.00 538.11 300.00 C 507.69 355.92 477.17 411.78 446.73 467.68 C 443.85 472.59 441.57 477.84 438.32 482.53 C 405.19 421.67 371.98 360.86 338.86 300.00 Z" />
<path fill="white" opacity="1.00" d=" M 550.96 300.01 C 617.36 299.99 683.76 299.98 750.17 300.02 C 719.72 356.23 689.01 412.29 658.47 468.44 C 655.76 473.12 653.54 478.09 650.46 482.54 C 617.33 421.68 584.17 360.83 550.96 300.01 Z" />
<path fill="white" opacity="1.00" d=" M 763.14 300.07 C 829.53 299.92 895.93 300.03 962.32 300.01 C 930.45 358.87 898.26 417.56 866.30 476.38 C 865.24 478.49 864.06 480.55 862.53 482.37 C 829.42 421.60 796.31 360.81 763.14 300.07 Z" />
<path fill="white" opacity="1.00" d=" M 975.33 300.01 C 1041.71 300.00 1108.10 299.97 1174.49 300.03 C 1154.57 336.88 1134.35 373.58 1114.39 410.41 C 1101.21 434.39 1088.32 458.54 1075.02 482.45 C 1064.88 464.95 1055.57 446.97 1045.76 429.28 C 1022.30 386.18 998.75 343.13 975.33 300.01 Z" />
<path fill="white" opacity="1.00" d=" M 332.37 304.02 C 365.78 364.93 398.87 426.02 432.18 486.98 C 365.70 487.00 299.22 487.00 232.73 486.99 C 265.77 425.90 299.15 365.00 332.37 304.02 Z" />
<path fill="white" opacity="1.00" d=" M 544.55 304.00 C 577.84 364.97 611.10 425.96 644.27 486.99 C 577.78 486.98 511.30 487.03 444.81 486.97 C 478.01 425.95 511.25 364.96 544.55 304.00 Z" />
<path fill="white" opacity="1.00" d=" M 749.75 316.67 C 752.14 312.50 754.12 308.11 756.85 304.15 C 790.00 365.12 823.27 426.03 856.46 486.99 C 804.32 487.00 752.19 486.99 700.06 486.99 C 685.71 486.86 671.34 487.27 657.00 486.78 C 687.98 430.11 718.83 373.37 749.75 316.67 Z" />
<path fill="white" opacity="1.00" d=" M 921.62 390.57 C 937.43 361.80 952.89 332.84 968.86 304.16 C 1002.28 365.00 1035.40 426.01 1068.56 486.99 C 1002.09 486.96 935.61 487.07 869.14 486.94 C 886.57 454.78 904.17 422.71 921.62 390.57 Z" />
<path fill="white" opacity="1.00" d=" M 1142.82 373.98 C 1154.30 353.19 1165.32 332.13 1177.09 311.52 C 1177.66 337.00 1177.17 362.52 1177.33 388.02 C 1177.33 421.01 1177.34 454.01 1177.33 487.00 C 1145.28 486.98 1113.23 487.01 1081.19 486.99 C 1101.79 449.35 1122.26 411.64 1142.82 373.98 Z" />
<path fill="white" opacity="1.00" d=" M 30.39 494.58 C 93.50 494.79 156.62 494.59 219.73 494.68 C 203.98 524.08 187.79 553.26 171.97 582.63 C 125.80 555.04 79.99 526.85 33.90 499.13 C 32.22 498.02 29.61 497.09 30.39 494.58 Z" />
<path fill="white" opacity="1.00" d=" M 240.43 494.78 C 301.66 494.58 362.89 494.62 424.11 494.76 C 422.94 495.74 421.78 496.75 420.48 497.55 C 391.00 515.76 361.75 534.33 332.24 552.48 C 313.71 540.73 295.05 529.18 276.44 517.55 C 264.47 509.92 252.17 502.76 240.43 494.78 Z" />
<path fill="white" opacity="1.00" d=" M 445.13 494.64 C 511.46 494.74 577.80 494.58 644.12 494.72 C 611.00 555.58 577.73 616.37 544.69 677.27 C 535.63 661.55 527.25 645.44 518.48 629.55 C 496.22 588.80 474.04 548.02 451.80 507.26 C 449.58 503.04 447.06 498.99 445.13 494.64 Z" />
<path fill="white" opacity="1.00" d=" M 657.23 494.70 C 723.57 494.64 789.91 494.66 856.26 494.69 C 823.14 555.57 789.92 616.40 756.78 677.27 C 739.88 647.00 723.57 616.40 706.88 586.01 C 690.35 555.56 673.61 525.22 657.23 494.70 Z" />
<path fill="white" opacity="1.00" d=" M 217.55 514.59 C 220.62 509.35 223.04 503.73 226.54 498.77 C 245.80 534.59 265.47 570.19 284.85 605.95 C 298.45 631.08 312.42 656.03 325.74 681.31 C 259.41 681.33 193.08 681.38 126.75 681.29 C 156.95 625.68 187.32 570.17 217.55 514.59 Z" />
<path fill="white" opacity="1.00" d=" M 763.24 681.31 C 796.29 620.37 829.50 559.51 862.77 498.70 C 887.60 543.82 912.08 589.14 936.80 634.33 C 945.28 649.98 953.91 665.56 962.26 681.28 C 895.92 681.39 829.58 681.32 763.24 681.31 Z" />
<path fill="white" opacity="1.00" d=" M 236.78 501.82 C 252.44 511.19 267.76 521.12 283.28 530.71 C 298.39 540.24 313.67 549.51 328.70 559.15 C 328.59 596.14 328.74 633.14 328.63 670.13 C 308.53 634.14 289.14 597.76 269.28 561.65 C 258.49 541.68 247.49 521.83 236.78 501.82 Z" />
<path fill="white" opacity="1.00" d=" M 442,505 L 534,674 L 442,616 Z" />

</g>
</svg>
