<?xml version="1.0" encoding="UTF-8" standalone="no"?>
<!-- Created with Inkscape (http://www.inkscape.org/) -->

<svg
   xmlns:dc="http://purl.org/dc/elements/1.1/"
   xmlns:cc="http://creativecommons.org/ns#"
   xmlns:rdf="http://www.w3.org/1999/02/22-rdf-syntax-ns#"
   xmlns:svg="http://www.w3.org/2000/svg"
   xmlns="http://www.w3.org/2000/svg"
   xmlns:sodipodi="http://sodipodi.sourceforge.net/DTD/sodipodi-0.dtd"
   xmlns:inkscape="http://www.inkscape.org/namespaces/inkscape"
   id="svg3682"
   version="1.1"
   inkscape:version="0.47 r22583"
   width="200"
   height="270"
   sodipodi:docname="BEAR1.svg">
  <metadata
     id="metadata3688">
    <rdf:RDF>
      <cc:Work
         rdf:about="">
        <dc:format>image/svg+xml</dc:format>
        <dc:type
           rdf:resource="http://purl.org/dc/dcmitype/StillImage" />
        <dc:title></dc:title>
      </cc:Work>
    </rdf:RDF>
  </metadata>
  <defs
     id="defs3686">
    <inkscape:perspective
       sodipodi:type="inkscape:persp3d"
       inkscape:vp_x="0 : 0.5 : 1"
       inkscape:vp_y="0 : 1000 : 0"
       inkscape:vp_z="1 : 0.5 : 1"
       inkscape:persp3d-origin="0.5 : 0.33333333 : 1"
       id="perspective3690" />
    <inkscape:perspective
       id="perspective3734"
       inkscape:persp3d-origin="0.5 : 0.33333333 : 1"
       inkscape:vp_z="1 : 0.5 : 1"
       inkscape:vp_y="0 : 1000 : 0"
       inkscape:vp_x="0 : 0.5 : 1"
       sodipodi:type="inkscape:persp3d" />
    <inkscape:perspective
       id="perspective4559"
       inkscape:persp3d-origin="0.5 : 0.33333333 : 1"
       inkscape:vp_z="1 : 0.5 : 1"
       inkscape:vp_y="0 : 1000 : 0"
       inkscape:vp_x="0 : 0.5 : 1"
       sodipodi:type="inkscape:persp3d" />
    <inkscape:perspective
       id="perspective6054"
       inkscape:persp3d-origin="0.5 : 0.33333333 : 1"
       inkscape:vp_z="1 : 0.5 : 1"
       inkscape:vp_y="0 : 1000 : 0"
       inkscape:vp_x="0 : 0.5 : 1"
       sodipodi:type="inkscape:persp3d" />
    <inkscape:perspective
       id="perspective6054-9"
       inkscape:persp3d-origin="0.5 : 0.33333333 : 1"
       inkscape:vp_z="1 : 0.5 : 1"
       inkscape:vp_y="0 : 1000 : 0"
       inkscape:vp_x="0 : 0.5 : 1"
       sodipodi:type="inkscape:persp3d" />
    <inkscape:perspective
       id="perspective6103"
       inkscape:persp3d-origin="0.5 : 0.33333333 : 1"
       inkscape:vp_z="1 : 0.5 : 1"
       inkscape:vp_y="0 : 1000 : 0"
       inkscape:vp_x="0 : 0.5 : 1"
       sodipodi:type="inkscape:persp3d" />
    <inkscape:perspective
       id="perspective6103-8"
       inkscape:persp3d-origin="0.5 : 0.33333333 : 1"
       inkscape:vp_z="1 : 0.5 : 1"
       inkscape:vp_y="0 : 1000 : 0"
       inkscape:vp_x="0 : 0.5 : 1"
       sodipodi:type="inkscape:persp3d" />
    <inkscape:perspective
       id="perspective6136"
       inkscape:persp3d-origin="0.5 : 0.33333333 : 1"
       inkscape:vp_z="1 : 0.5 : 1"
       inkscape:vp_y="0 : 1000 : 0"
       inkscape:vp_x="0 : 0.5 : 1"
       sodipodi:type="inkscape:persp3d" />
    <inkscape:perspective
       id="perspective6136-5"
       inkscape:persp3d-origin="0.5 : 0.33333333 : 1"
       inkscape:vp_z="1 : 0.5 : 1"
       inkscape:vp_y="0 : 1000 : 0"
       inkscape:vp_x="0 : 0.5 : 1"
       sodipodi:type="inkscape:persp3d" />
    <inkscape:perspective
       id="perspective6171"
       inkscape:persp3d-origin="0.5 : 0.33333333 : 1"
       inkscape:vp_z="1 : 0.5 : 1"
       inkscape:vp_y="0 : 1000 : 0"
       inkscape:vp_x="0 : 0.5 : 1"
       sodipodi:type="inkscape:persp3d" />
    <inkscape:perspective
       id="perspective6196"
       inkscape:persp3d-origin="0.5 : 0.33333333 : 1"
       inkscape:vp_z="1 : 0.5 : 1"
       inkscape:vp_y="0 : 1000 : 0"
       inkscape:vp_x="0 : 0.5 : 1"
       sodipodi:type="inkscape:persp3d" />
  </defs>
  <sodipodi:namedview
     pagecolor="#ffffff"
     bordercolor="#666666"
     borderopacity="1"
     objecttolerance="10"
     gridtolerance="10"
     guidetolerance="10"
     inkscape:pageopacity="0"
     inkscape:pageshadow="2"
     inkscape:window-width="1024"
     inkscape:window-height="712"
     id="namedview3684"
     showgrid="false"
     showguides="true"
     inkscape:guide-bbox="true"
     inkscape:zoom="1"
     inkscape:cx="140.82788"
     inkscape:cy="247.96667"
     inkscape:window-x="-4"
     inkscape:window-y="-4"
     inkscape:window-maximized="1"
     inkscape:current-layer="svg3682" />
  <g transform="rotate(40 100 200) translate(-100 -120)">
  <path
     style="fill:#c87137;fill-opacity:1;stroke:none"
     d="m 141,273.5 c -9.46703,66.63212 2.14746,106.75028 20.25,144.5 1.80072,0.4692 1.98056,1.45285 3.42818,0.40747 41.93779,-30.28498 80.01418,-71.69127 118.1022,-106.1246 2.36357,-2.13678 1.5197,-3.09444 1.46962,-4.28287 C 239.24568,287.4686 196.46432,269.18891 141,273.5 z"
     id="path4565"
     sodipodi:nodetypes="ccsscc" />
  <path
     sodipodi:type="star"
     style="fill:#a02c2c;fill-opacity:1;stroke:none"
     id="path4591"
     sodipodi:sides="5"
     sodipodi:cx="204"
     sodipodi:cy="330"
     sodipodi:r1="3.5355339"
     sodipodi:r2="1.5190974"
     sodipodi:arg1="0.14189705"
     sodipodi:arg2="0.77021559"
     inkscape:flatsided="true"
     inkscape:rounded="10"
     inkscape:randomized="0"
     d="m 207.5,330.5 c -5.87785,41.14497 38.05358,-4.14112 -2.89397,2.98321 -40.94754,7.12432 15.69764,34.91142 -3.73148,-1.83047 -19.42912,-36.74189 -28.3519,25.71757 0.58778,-4.1145 28.93969,-29.83206 -33.22008,-19.01709 4.09476,-0.71243 37.31483,18.30466 7.82076,-37.47078 1.94291,3.67419 z"
     transform="matrix(1,0,0,0.96128844,-22.5,2.059004)" />
  <path
     style="opacity:0.45;fill:#241c1c;fill-opacity:1;stroke:none"
     d="m 181.875,305 c -8.83656,0 -16,6.82766 -16,15.25 0,8.42234 7.16344,15.25 16,15.25 8.83656,0 16,-6.82766 16,-15.25 0,-8.42234 -7.16344,-15.25 -16,-15.25 z m 0,2 c 7.45584,0 13.5,5.93223 13.5,13.25 0,7.31777 -6.04416,13.25 -13.5,13.25 -7.45584,0 -13.5,-5.93223 -13.5,-13.25 0,-7.31777 6.04416,-13.25 13.5,-13.25 z"
     id="path4575" />
  <path
     style="opacity:0.3;fill:#241c1c;fill-opacity:1;stroke:none"
     d="M 276.19904,308.41786 C 234.44677,351.85122 202.70742,384.29425 161.5,417.75 l 2.5,0.75 c 32.33555,-22.95836 75.81114,-66.19974 115.08294,-103.91783 l -2.8839,-6.16431 z"
     id="path6083"
     sodipodi:nodetypes="ccccc" />
  <path
     style="opacity:0.25399996;fill:#803300;fill-opacity:1;stroke:none"
     d="m 145.41507,274.48058 c 40.49677,-3.19757 81.70867,8.31269 123.96944,39.62608 l -40.15175,41.25717 c -10.96598,-36.40243 -76.40932,-74.24203 -76.46339,-65.66684 -0.031,4.9195 -2.87286,-13.86978 -7.3543,-15.21641 z"
     id="path4571"
     sodipodi:nodetypes="cccsc" />
  <path
     style="fill:#a05a2c;fill-opacity:1;stroke:none"
     d="m 91,213 -7,6 63.5,72 14.5,-3 -71,-75 z"
     id="path4567"
     sodipodi:nodetypes="ccccc" />
  <path
     style="fill:#803300;fill-opacity:1;stroke:none"
     d="M 56.875,199.09375 72.902985,181.625 91.59888,203.54688 95,216.17969 84.75747,221.875 78.498135,220.60937 56.875,199.09375 z"
     id="path4569"
     sodipodi:nodetypes="ccccccc" />
  <path
     style="fill:#552200;fill-opacity:1;stroke:none"
     d="m 91.625,204.5 c -0.75311,-0.10954 3.09655,8.39137 3.01099,11.25991 -0.0442,1.48192 -1.19775,1.08368 -1.4907,1.37771 -0.67562,-0.87349 -1.63868,-6.21195 -3.27029,-9.38762 -0.38524,-0.77049 -3.2412,-4.86913 -4,-5.375 -4.02896,-5.67264 -18.323286,-17.92595 -14.75,-14.25 -0.08924,-0.0892 -0.75,-0.56976 -0.75,-0.75 0,-0.15962 0.649845,-0.64985 0.75,-0.75 0.421535,-0.42154 2.409977,-2.77166 2.875,-2.875 1.108536,0.69318 0.227396,-0.2274 0.25,-0.25"
     id="path6091"
     sodipodi:nodetypes="csccccsscc" />
  <path
     sodipodi:type="arc"
     style="fill:#241f1c;fill-opacity:1;stroke:none"
     id="path4581"
     sodipodi:cx="202"
     sodipodi:cy="334"
     sodipodi:rx="7.5"
     sodipodi:ry="8.5"
     d="m 209.5,334 a 7.5,8.5 0 1 1 -15,0 7.5,8.5 0 1 1 15,0 z"
     transform="matrix(1.5666667,0,0,1.3823529,-134.71667,-141.95588)" />
  <path
     style="fill:#241c1c;fill-opacity:1;stroke:none"
     d="M 93,218.25 160.25,289"
     id="path4598" />
  <path
     style="fill:#241c1c;fill-opacity:1;stroke:none"
     d="m 70,236.5 41,60.75"
     id="path4600" />
  <path
     style="opacity:0.29400006;fill:#241c1c;fill-opacity:1;stroke:none"
     d="M 95.23905,217.75 94.25,218.48951 160.26916,288.25 162,288.25 95.23905,217.75 z"
     id="path4604"
     sodipodi:nodetypes="ccccc" />
  <path
     style="fill:#483737;fill-opacity:1;stroke:#505050;stroke-width:1.0429554;stroke-opacity:1"
     d="M 86.26594,212.51594 204.35906,337.48406"
     id="path4606" />
  <path
     style="fill:#5e534c;fill-opacity:1;stroke:#4b4b4b;stroke-width:1.09157932;stroke-opacity:1"
     d="M 79.665266,208.29027 202.20973,340.20973"
     id="path4606-0" />
  <path
     style="fill:#241c1c;fill-opacity:1;stroke:#4c4c4c;stroke-width:1.13213468;stroke-opacity:1"
     d="M 74.185525,205.31052 199.93948,342.68948"
     id="path4606-4"
     sodipodi:nodetypes="cc" />
  <path
     style="fill:#483737;fill-opacity:1;stroke:none"
     d="m 214.25,327.5 c 0.57755,0.70345 0.51928,0.4837 1.05418,1.42459 -7.40917,10.61401 -18.7597,19.0194 -25.12526,21.38406 -0.43811,-0.35222 -1.81048,-1.05264 -0.99643,-1.57932 C 195.191,344.84187 210.83177,330.61523 214.25,327.5 z"
     id="path4594"
     sodipodi:nodetypes="cccsc" />
  <path
     style="opacity:0.3;fill:#241c1c;fill-opacity:1;stroke:none"
     d="M 147.44174,290.52708 161.28284,287.5 162,288.48958 147.5,291.25 l -0.0583,-0.72292 z"
     id="path6081"
     sodipodi:nodetypes="ccccc" />
  <path
     style="fill:#552200;fill-opacity:1;stroke:none"
     d="M 58.125,200 74.5,184.625 c 1.445489,0.37612 -1.19504,-1.33425 -2.375,-2.25 L 56.933911,198.81089 58.125,200 z"
     id="path6085"
     sodipodi:nodetypes="ccccc" />
  <path
     sodipodi:type="arc"
     style="fill:#6c5353;fill-opacity:1;stroke:none"
     id="path6093"
     sodipodi:cx="89.8125"
     sodipodi:cy="221"
     sodipodi:rx="1.8125"
     sodipodi:ry="1.875"
     d="m 91.625,221 a 1.8125,1.875 0 1 1 -3.625,0 1.8125,1.875 0 1 1 3.625,0 z"
     transform="translate(-16.375,-16.5)" />
  <path
     sodipodi:type="arc"
     style="fill:#6c5353;fill-opacity:1;stroke:none"
     id="path6093-8"
     sodipodi:cx="89.8125"
     sodipodi:cy="221"
     sodipodi:rx="1.8125"
     sodipodi:ry="1.875"
     d="m 91.625,221 a 1.8125,1.875 0 1 1 -3.625,0 1.8125,1.875 0 1 1 3.625,0 z"
     transform="translate(-10.3125,-13.875)" />
  <path
     sodipodi:type="arc"
     style="fill:#6c5353;fill-opacity:1;stroke:none"
     id="path6093-2"
     sodipodi:cx="89.8125"
     sodipodi:cy="221"
     sodipodi:rx="1.8125"
     sodipodi:ry="1.875"
     d="m 91.625,221 a 1.8125,1.875 0 1 1 -3.625,0 1.8125,1.875 0 1 1 3.625,0 z"
     transform="translate(-3.8125,-9.75)" />
  <path
     style="fill:#483737;fill-opacity:1;stroke:none"
     d="m 72.3125,202.96875 c 1.54168,-0.0974 2.737639,1.5699 2.375,2.8125 1.407786,-1.24877 0.21166,-3.8428 -2.375,-2.8125 z"
     id="path6126"
     sodipodi:nodetypes="ccc" />
  <path
     style="fill:#483737;fill-opacity:1;stroke:none"
     d="m 78.3263,205.71203 c 1.54168,-0.0974 2.737639,1.5699 2.375,2.8125 1.407786,-1.24877 0.21166,-3.8428 -2.375,-2.8125 z"
     id="path6126-4"
     sodipodi:nodetypes="ccc" />
  <path
     style="fill:#483737;fill-opacity:1;stroke:none"
     d="m 84.8263,209.74328 c 1.54168,-0.0974 2.73764,1.5699 2.375,2.8125 1.40779,-1.24877 0.21166,-3.8428 -2.375,-2.8125 z"
     id="path6126-5"
     sodipodi:nodetypes="ccc" />
  <path
     style="opacity:0.68999999;fill:#c83737;fill-opacity:1;stroke:none"
     d="m 71.28125,188.1875 -4.71875,4.09375 c 6.03373,1.89081 6.308002,-1.76592 4.71875,-4.09375 z M 66.5,193.65625 c -0.515524,0.0172 -1.102787,0.0847 -1.71875,0.15625 l -0.09375,0.0937 c -1.388704,13.62631 14.175938,-0.66186 1.8125,-0.25 l 0,5e-5 z m -3.53125,1.71875 -4.5,4.59375 c 2.477117,1.88365 7.147372,1.65055 4.5,-4.59375 z"
     id="path4591-7"
     sodipodi:nodetypes="ccccccccccc" />
  </g>
</svg>
