<?xml version="1.0" encoding="UTF-8" standalone="no"?>
<!-- Created with Inkscape (http://www.inkscape.org/) -->

<svg
   xmlns:svg="http://www.w3.org/2000/svg"
   xmlns="http://www.w3.org/2000/svg"
   version="1.1"
   width="446"
   height="507">
   <g transform="translate(223 507)">
   <g transform="skewX(10) scale(1 .8)">
   <g transform="translate(-223 -507)">
  <path
     style="fill:#483e37;fill-opacity:1;stroke:none"
     d="m 278.31156,45 c 2.12463,0 4.24925,0 6.37388,0 4.10036,0 11.27811,1.397239 4.24925,2.5 C 285.91245,47.97416 281.6443,48 278.31156,48 275.86972,48 273,49.215018 273,49 c 0,-0.345655 16.75155,0.26894 18.05932,1.5 0.38394,0.361423 -4.24925,3.154167 -4.24925,4.5" />
  <path
     style="fill:#483e37;fill-opacity:1"
     d="m 246.70058,31.585173 c 11.97962,-6.318776 10.3702,-10.26484 12.90409,-13.675923 10.71858,-14.429184 38.17927,9.987593 24.68349,36.18203 L 246.70058,31.585173 z" />
  <path
     style="fill:#483e37;fill-opacity:1"
     d="m 193.91021,42.19178 c -11.70532,-18.570033 8.85678,-44.42452 23.33539,-34.409112 1.26963,0.915574 2.73332,3.604523 2.46246,9.01199 -0.16248,3.243704 4.6414,6.093913 6.02196,8.426555 L 193.91021,42.19178 z" />
  <path
     style="fill:#483e37;fill-opacity:1;stroke:none"
     d="m 311.37111,134.99511 c -62.80553,-80.595402 9.48647,-6.66945 -121.38462,-21.96875 l -26.49485,93.78125 c 1.97042,5.24562 -27.00183,88.42657 -35.64107,104.57716 -20.28054,49.52096 -36.26573,84.20183 -13.10601,138.42284 0.42992,0.4714 0,1.33333 0,2 0,0.88889 0.60549,2.17886 0.91202,3 1.7723,4.74769 -1.6769,14.42913 -8.20821,16 -8.60156,2.06879 34.92889,-0.25965 42.8651,-2 28.28955,6.53409 11.54295,23.71735 20.80059,-11 2.97576,-12.27127 20.32762,-12.57676 32.62463,-15 28.33605,2.79944 45.7656,28.40872 38.46267,36.00926 -5.69085,5.92277 19.92825,1.20836 26.64728,-1.35241 8.15068,-2.23423 27.91828,4.52294 35.64545,2.82843 7.41748,-4.84936 2.80518,-22.369 8.29299,-31.83667 27.77886,-47.92453 35.4999,-143.76313 34.01044,-197.83611 -0.50271,-8.51007 -1.59685,-17.60127 -3.42009,-27.3125 0,-5.23401 0.40827,-10.79141 0,-16 -0.18551,-2.36667 -0.96733,-4.65563 -1.19703,-7 -0.75195,-7.67448 -1.8292,-16.01462 -3.50559,-23.5 -0.86399,-3.85786 -2.5988,-7.68305 -4.33211,-11 -0.39352,-0.75306 -1.03006,-3.18202 -1.16853,-3.5 -9.10117,-19.24187 -34.63571,-44.24446 -21.80306,-27.3125 z" />
  <path
     style="opacity:0.91000001;fill:#5e5148;fill-opacity:1;stroke:none"
     d="m 178.73274,220.81462 c -32.61768,80.82369 -27.99686,68.57872 -14.78411,152.36554 1.34949,6.78527 4.0547,9.33901 5.92016,15.59205 4.2792,14.34392 12.20128,22.93862 21.70725,29.76664 3.12657,2.24579 2.44804,3.53981 5.92015,4.25238 15.32437,3.14496 30.69756,-4.98745 45.38788,-8.50475 23.95857,-7.27869 31.25983,-8.25673 32.56087,-34.01903 1.59877,-16.07722 5.57949,-31.99399 9.86693,-46.77615 2.38966,-8.23905 3.7381,-17.15511 5.92016,-25.51428 5.46983,-20.95422 19.86727,-68.49721 16.77378,-90.7174 -0.78733,-5.65531 -4.16448,-11.65243 -6.90685,-15.59206 -12.13368,-17.43095 -29.60182,-20.15959 -45.38788,-22.67934 -6.2291,-0.99429 -12.22374,-4.7092 -18.74717,-2.83492 -2.76066,0.79318 -5.16053,3.27083 -7.89354,4.25238 -3.85882,1.38586 -7.93311,1.71231 -11.84032,2.83491 -2.08723,0.5997 -3.83292,3.65269 -5.92015,4.25238 -3.26948,0.93937 -6.55177,1.88243 -9.86693,2.83492 -4.24091,1.21848 -23.95062,12.07837 -19.73386,22.67935 1.04485,2.62678 -2.31857,-0.22489 -2.97637,7.80738 z" />
  <path
     style="fill:#483e37;fill-opacity:1;stroke:none"
     d="m 189.25336,38.24203 c -13.79467,9.36654 -17.70105,18.475224 -20.06928,30.744314 -3.79921,19.682446 -3.79775,42.330406 2.71112,60.195236 5.12308,15.12824 17.49892,28.85405 31.56095,39.93586 3.51197,2.63398 5.6792,6.14315 9.19239,8.48528 0.13868,0.0924 0.23571,0.2357 0.35356,0.35355 0.11785,0.23571 0.13429,0.56093 0.35355,0.70711 1.2775,0.85167 6.08817,1.41421 7.77817,1.41421 1.6732,0 2.86586,0.34607 4.5962,0 3.57741,-0.71548 -2.12479,0.0893 2.47487,-1.06066 3.88472,-0.97118 -1.08878,1.1154 2.82843,-0.35355 9.8079,-3.67796 16.38333,-11.87477 25.10229,-17.32412 27.87547,-15.41239 36.20337,-28.50554 47.64392,-56.9264 5.44055,-20.72902 -4.50876,-47.38837 -23.60229,-57.27134 -2.60061,-1.73374 -5.64132,-2.82066 -8.48528,-4.24264 -2.39019,-1.1951 -3.79309,-3.61936 -6.01041,-4.94975 -1.55966,-0.93579 -3.38174,-1.53407 -4.94975,-2.47487 -5.21496,-3.115036 0.38355,-2.804456 -1.57966,-7.785197 -1.12498,-2.854116 -43.96673,-9.331928 -51.8069,0.007 -0.31993,-5.340034 -2.42271,3.254246 -3.74264,3.914216" />
  <path
     style="opacity:0.6036;fill:#6c5d53;fill-opacity:1"
     d="m 214.42412,165.46208 c -5.4577,-11.5279 -12.60014,-22.12428 -19.35005,-32.90727 -22.35837,-33.22189 -29.86752,-63.75202 1.21825,-93.44268 0.023,-4.64374 -0.13451,-9.308386 0.44443,-13.927064 0.9828,-5.811249 4.62663,-12.026129 11.28431,-15.897629 6.99853,0.615235 1.1579,10.541926 2.54984,15.929642 8.81709,-2.174754 14.15977,2.033657 24.46864,4.113704 8.66574,1.748507 20.66244,1.741729 28.15074,8.631977 2.83339,1.27755 4.57385,-2.03294 5.59353,-4.235493 -3.78799,-26.99817 9.78848,-13.461554 12.00471,0.746583 0.5809,3.84412 -3.1783,9.1694 -3.91238,11.11143 -0.54411,1.43944 1.3619,2.97813 3.46798,5.28077 11.57089,10.36993 11.87177,23.12314 9.32577,37.5699 -1.51463,6.82434 -4.78447,13.15343 -8.6529,18.93639 -8.71601,12.31541 -19.62429,21.63895 -31.69252,30.31689 -7.48525,4.4199 -13.89756,9.71041 -18.88678,16.89687 -15.0618,21.74203 -4.62075,27.73211 -16.01357,10.87598 z" />
  <path
     style="color:#000000;fill:#916f6f;fill-opacity:1;stroke:none;stroke-width:1px;marker:none;visibility:visible;display:inline;overflow:visible;enable-background:accumulate"
     d="m 202.28704,21.253497 c -3.47181,1.952431 -7.96908,16.484396 -2.51948,14.030597 2.34329,-1.05512 8.3885,-3.809918 10.30834,-10.389831 0.87833,-3.010304 -0.15654,-3.598757 0.68576,-7.204092 1.39763,-5.982345 -9.16175,-0.118002 -9.16175,4.899573" />
  <path
     style="opacity:0.26599995;fill:#ac9d93;fill-opacity:1"
     d="m 209.81673,65.74814 c 5.81492,-9.29477 4.79826,-18.97827 14.12358,-24.01381 11.60186,4.80493 8.78167,11.41262 12.7765,17.16843 l 1.1978,7.98531 c 12.43126,2.68869 16.22012,10.59265 14.77282,22.35888 l -15.57136,17.96696 c -7.87444,6.40492 -10.01221,8.50732 -13.97429,11.97797 -9.93333,-10.77711 -21.47999,-20.97324 -25.55301,-35.13538 1.40943,-5.99772 3.95798,-18.19112 12.22796,-18.30836 z" />
  <path
     style="fill:#241f1c;fill-opacity:1"
     d="m 212.85848,72.84213 c 3.13259,8.75551 11.28539,11.13981 17.0747,0.24924 7.42453,-14.31453 -24.47463,-12.6858 -17.0747,-0.24924 z" />
  <path
     style="fill:#28170b;fill-opacity:1"
     d="m 239.81748,62.77289 c -0.29295,-2.66635 2.83616,-6.63016 4.88433,-7.40735 2.9261,-0.44783 6.42132,-2.25194 7.10448,2.64549 1.68227,2.3405 -4.8734,8.71453 -11.98881,4.76186 z" />
  <path
     style="fill:#28170b;fill-opacity:1"
     d="m 206.76222,59.83178 c 0.21757,-2.31405 -2.10624,-5.75413 -3.6273,-6.42862 -2.17304,-0.38866 -4.76874,-1.9544 -5.27608,2.29593 -1.24932,2.03126 3.6192,7.5631 8.90338,4.13269 z" />
  <path
     style="fill:#483e37;fill-opacity:1"
     d="m 202.625,79.125 c -1.17361,0 -2.125,1.09131 -2.125,2.4375 0,0.63853 0.21222,1.22167 0.5625,1.65625 1.08533,4.30892 6.59414,6.80575 9.59697,6.35365 6.21125,-0.93517 3.36213,-3.20852 11.71015,1.61129 5.306,3.06347 13.19891,0.67795 18.34913,-0.52744 3.52557,-0.66935 6.41388,-2.99341 7.34375,-4.5 0.0137,-0.007 0.0177,-0.0243 0.0312,-0.0312 0.83066,-0.42834 1.40625,-1.37917 1.40625,-2.5 0,-1.51878 -1.06332,-2.75 -2.375,-2.75 -1.31168,0 -2.375,1.23122 -2.375,2.75 0,0.35736 0.0804,0.68677 0.1875,1 -0.69615,1.37525 -1.75906,4.53738 -7.0625,5.40625 -6.36521,0.98748 -13.31405,-0.57276 -20,-4.9375 -4.62412,1.11567 -7.52291,2.42685 -12.4375,1.375 -1.03544,-0.22161 -1.00774,-1.40379 -1.53125,-2.96875 0.5089,-0.44533 0.84375,-1.14661 0.84375,-1.9375 0,-1.34619 -0.9514,-2.4375 -2.125,-2.4375 l 5e-5,-5e-5 z" />
  <path
     style="fill:#e3dbdb;fill-opacity:1"
     d="m 249.25514,134.08955 a 4.1542525,2.032932 0 1 1 -8.3085,0 4.1542525,2.032932 0 1 1 8.3085,0 z"
     transform="matrix(1.0638298,0,0,0.69565218,-40.672465,-27.576622)" />
  <path
     style="fill:#483e37;fill-opacity:1;stroke:none"
     d="m 303,91 c 3.62885,9.83098 7.61555,19.38664 8.5,30 0.33106,3.97278 -0.64229,8.06518 -1,12 -0.13815,1.51968 0.27114,7.74295 -2,8.5 -0.7339,0.24463 -10.41695,-3.14821 -12,-3.5 -2.53672,-0.56372 -9.6996,-0.6996 -11.5,-2.5 -1.61966,-1.61966 -0.12798,-5.43006 0.5,-7 3.23645,-8.09113 6.73897,-16.21691 9.5,-24.5 1.78533,-5.35599 3.50966,-11.13708 8,-13 z" />
  <path
     style="fill:#483e37;fill-opacity:1;stroke:none"
     d="m 195,35 c -1.93489,0.216756 -9.22837,-2.956745 -7,1.5 0.3111,0.622194 2.5,1.482439 2.5,2 0,0.177552 -9,-0.273626 -9,1 0,3.570933 6.42773,1.5 8,1.5 1.57622,0 0.003,1 1.5,1 0.2357,0 0.2643,-0.5 0.5,-0.5" />
  <path
     style="fill:#483e37;fill-opacity:1;stroke:none"
     d="m 304,115 c -0.0689,0 -14.42215,12.85247 -16,14 -3.84731,2.79804 -8.17505,4.71822 -12,7.5 -7.70829,5.60603 -15.50154,11.16787 -23,17 -5.47129,4.25545 -14.75023,15.74474 -23.875,23.375 -1.66663,-0.56962 -3.35634,-1.02127 -5.125,-1.375 -3.54736,-0.70947 -9.19022,0.30978 -12,-2.5 -1.47917,-1.47917 -4.79679,-4.39038 -5.5,-6.5 -0.37509,-1.12526 -0.83091,-2.49636 -1.5,-3.5 -2.14831,-3.22247 -6.59301,-5.47824 -10.8125,-6.125 -1.26604,-4.18443 -2.72612,-8.35621 -4.1875,-12.375 -1.63161,-4.48691 -4.3169,-8.19472 -6.90625,-12 -0.84178,-2.16867 -1.96382,-4.1304 -3.8125,-5.875 -0.009,-0.0119 -0.0227,-0.0194 -0.0312,-0.0312 -2.98716,-4.14067 -6.97021,-6.52716 -13.75,-2.59375 -1.42059,2.66038 -2.36025,5.36996 -2.9375,8.125 -34.12956,65.70478 28.77457,31.96908 5.93745,97.37495 0.49785,0.49785 3.94965,5.05035 4.5,4.5 5.94036,-7.41524 10.646,-14.53513 18.5,-20 3.42429,-2.28286 7.85696,-4.17139 12,-5 2.04245,-0.40849 3.50235,0 5.5,0 0.16667,0 0.5,0.16667 0.5,0 0,-0.10583 -3.75672,-4.59454 -4,-5 -2.31669,-3.86115 -1.1499,-7.60057 -0.5,-11.5 0.0826,-0.4953 0.32371,-3.5 1.5,-3.5 0.46758,0 1.82609,8.7174 2,9.5 1.1472,5.16242 4.88776,9.88776 8.5,13.5 1.86199,1.86199 4.61496,4.80748 7,6 0.66389,0.33195 3.4078,-1.31844 5,-1 4.14721,0.82944 19.71281,6.71281 22.5,9.5 0.37246,0.37246 0.71748,1.71748 1,2 0.2224,0.2224 -0.0229,-1.62805 -0.0312,-2.8125 4.21137,-7.43048 13.34567,-21.11029 18.58034,-27.73993 0.29251,-14.71619 74.62115,14.47899 54.45086,-21.44757 -1.45906,-5.10671 -3.94799,-10.44799 -7.5,-14 -0.0995,-0.0995 -0.218,-0.1884 -0.34375,-0.28125 C 344.60178,189.10337 331.2316,146.1998 318,132 c -3.02395,-3.02395 -5.01526,-7.01526 -8,-10 -0.53825,-0.53825 -5.97142,-7 -6,-7 z" />
  <g>
    <path
       d="m 172.46875,118.53125 c -0.9269,0.31294 -1.90919,0.76926 -2.96875,1.375 l 2.96875,-1.375 z M 164.3125,129.125 c -31.80388,15.18797 -87.689331,53.77404 -100.973034,75.38969 6.27902,18.47666 15.294955,17.00648 20.765927,14.62624 7.672345,-3.33799 16.296997,-8.72653 23.144607,-13.10968 11.72825,-3.38762 16.77856,-2.72456 27.625,9.4375 0.10109,0.10109 2.35528,-2.06583 2.5,-2.5 0.0847,-0.25412 -0.061,-4.5 0,-4.5 0.37268,0 0.64645,0.38215 1,0.5 1.27116,0.42372 1.91792,1.45896 3,2 30.84353,14.58613 6.46689,-8.58089 31,14.5 6.13402,9.715 10.80566,-2.81504 14.40625,-8.875 L 192,155.6875 c -7.66213,-10.57791 -8.01613,-29.19475 -27.6875,-26.5625 z"
       style="fill:#483e37;fill-opacity:1;stroke:none" />
    <path
       d="m 75.5,211 c 0,1.33333 0,2.66667 0,4 0,1.26704 1.519948,9.49003 3.5,8.5 0.330373,-0.16519 0.847531,-1.19506 1,-1.5 0.911766,-1.82353 -1.5,-6.64481 -1.5,-9 0,-0.51503 0.331644,-2.73468 0,-3 -0.758868,-0.60709 -1.666667,-1 -3,1 z"
       style="fill:#c8beb7;fill-opacity:1;stroke:none" />
    <path
       d="m 69.5,212.5 c 0.215647,1.79708 -0.297254,3.71648 0,5.5 0.32176,1.93056 2.163226,6.83677 4,5 0.562154,-0.56215 -0.5,-2.26356 -0.5,-3 0,-1.877 -0.04507,-10.54507 -1,-11.5 -0.790569,-0.79057 -2.041294,0.92478 -2.5,4 z"
       style="fill:#c8beb7;fill-opacity:1;stroke:none" />
    <path
       d="m 80.5,214.5 c -0.915437,1.28936 -1.55705,9.44295 -0.5,10.5 1.546213,1.54621 2.366414,-6.23283 2.5,-6.5 0.80355,-1.6071 3.11269,-4.77461 2,-7 -1.44702,-2.89405 -5.143332,4.07222 -4,3 z"
       style="fill:#c8beb7;fill-opacity:1;stroke:none" />
    <path
       d="m 64.5,209.5 c -0.174855,1.25119 -0.5,2.12925 -0.5,3.5 0,0.69543 1.554906,6.94509 2.5,6 0.803999,-0.804 -0.387091,-4.33873 0,-5.5 0.197233,-0.5917 2.130104,-5.24796 1.5,-5.5 -0.789053,-0.31562 -1.666667,-0.33333 -3.5,1.5 z"
       style="fill:#c8beb7;fill-opacity:1;stroke:none" />
  </g>
  <path
     style="fill:#c8beb7;fill-opacity:1;stroke:none"
     d="m 94,203 c -7.64011,13.94893 -0.81973,10.49955 4.5,1.5 0.35682,-0.71364 -2.50367,-10.98166 -4.5,-1.5 z" />
  <path
     style="fill:#483e37;fill-opacity:1;stroke:none"
     d="m 102.13175,467 c -8.72262,-1.70498 -21.291296,6.13976 -12.49267,16 2.54061,2.84715 11.9318,-2 14.27734,-2 3.98761,0 11.11192,-1.88684 14.27734,-1 2.91054,0.81543 0.67984,1.84763 4.46167,1 0.65218,-0.14618 1.11955,-1 1.78466,-1 3.13533,0 10.16121,1.09681 13.38501,2 0.97582,0.27339 24.8046,-0.39873 25.87768,-1 1.18222,-0.66244 4.77913,-2.71155 5.354,-4 3.27302,-7.33588 -11.60034,-14.7906 -11.60034,-21" />
  <path
     style="fill:#483e37;fill-opacity:1;stroke:none"
     d="m 329.61523,419.63604 c 7.93834,4.97772 9.55458,11.482 5,18.50587 -0.81132,1.25118 -1.72641,3.64444 -3,4.62647 -5.92389,4.56778 -19.1773,5.57802 -24,0 -0.59865,-0.69241 -4,-2.7405 -4,-3.08431 0,-5.7346 14,-12.58859 14,-16.96372" />
  <g transform="translate(-24.142136,-12.707107)">
    <path
       d="m 263.74938,490.57283 c -15.69727,17.83265 39.13936,9.36291 53.17671,11.7205 2.25591,-2.96303 6.38776,-3.99809 9.69223,-5.81565 0.54436,-0.29941 3.19787,-0.61 3.52447,-0.96928 3.94379,-4.3384 -4.40557,-11.78102 -4.40557,-15.5084"
       style="fill:#483e37;fill-opacity:1;stroke:none" />
    <path
       id="path4502"
       d="m 266.57926,494.27208 c -3.78899,-0.8463 -3.98685,9.19239 -1.41422,9.19239 0.73194,0 1.94852,-3.09558 2.82843,-3.53554 1.35688,-0.67844 3.55288,-2.13867 4.24264,-2.82842 0.44356,-0.44357 -1.47265,-2.69013 -5.65685,-2.82843 z"
       style="fill:#c8beb7;fill-opacity:1;stroke:none" />
    <path
       d="m 276.94681,497.0069 c -3.07412,-0.31589 -6.91441,2.98509 -4.94975,4.94975 0.16666,0.16666 -0.2357,0.7071 0,0.7071 2.21551,0 5.06625,-1.82602 7.07107,-2.82842 0.21081,-0.10541 0.66088,0.23112 0.7071,0 0.23113,-1.15563 0,-2.35703 -2.82842,-2.82843 z"
       style="fill:#c8beb7;fill-opacity:1;stroke:none" />
    <path
       d="m 286.13919,499.22183 c -1.28524,-0.18135 -1.70713,1.00002 -2.12132,1.41421 -0.94827,0.94827 -3.80701,1.98558 -0.7071,3.53553 0.57378,0.28689 3.62661,-1.1062 4.24264,-1.41421 0.61029,-0.30514 2.97856,0.0435 2.82842,-0.70711 -0.24892,-1.24464 -0.9428,-2.35702 -4.24264,-2.82842 z"
       style="fill:#c8beb7;fill-opacity:1;stroke:none" />
    <path
       d="m 294.9053,499.92893 c -7.37264,7.60451 4.67335,2.86066 4.24264,0.70711 -0.20673,-1.03362 -0.94281,-1.88562 -4.24264,-0.70711 z"
       style="fill:#c8beb7;fill-opacity:1;stroke:none" />
  </g>
  <path
     style="fill:#c8beb7;fill-opacity:1;stroke:none"
     d="m 89.06602,475.44365 c -0.91533,1.33238 -2.43994,1.73283 -3.53554,2.82843 -0.89377,0.89377 -3.920638,3.15042 -2.12132,4.94975 0.79121,0.79121 2.94512,-2.53322 3.53554,-2.82843 0.44234,-0.22117 7.12263,-1.96662 7.07106,-2.12132 -0.43461,-1.30384 -1.41421,-2.35702 -4.94974,-2.82843 z" />
  <path
     style="fill:#c8beb7;fill-opacity:1;stroke:none"
     d="m 99.67262,476.15076 c -1.95456,-0.89137 -12.62908,9.89949 -6.36396,9.89949 0.66445,0 6.34127,-4.23129 7.77817,-4.94974 1.04485,-0.52243 3.60514,-0.13921 4.24264,-1.41422 0.76012,-1.52023 -1.76665,-2.91542 -5.65685,-3.53553 z" />
  <path
     style="fill:#c8beb7;fill-opacity:1;stroke:none"
     d="m 86.00431,473.32233 c -0.32242,0.35256 -0.61755,0.86648 -0.96727,1.05768 -1.97657,1.08066 -3.430485,1.25486 -4.352665,5.28838 -0.07209,0.31534 -0.16121,1.05768 0,1.05768 1.963311,0 4.216335,-4.23071 6.287195,-4.23071 0.80605,0 1.6121,0 2.41815,0 0.16121,0 0.58035,0.28204 0.48363,0 -0.54717,-1.59551 -1.28968,-2.82047 -3.86904,-3.17303 z" />
  <path
     style="fill:#483e37;fill-opacity:1;stroke:none"
     d="m 206,15.25 c -1.39774,0 -0.26696,6.799203 0.25,7.646227 0.4557,0.746653 0.6529,1.259336 1.25,1.911557 0.16838,0.183926 0.58725,0.467187 0.75,0.648564 -0.0688,0.05399 -0.15051,0.08122 -0.21875,0.136539 -0.79711,-0.07046 -5.78125,-1.050965 -5.78125,-0.238944 0,1.37544 4.55478,1.032475 3.75,1.911557 -7.23233,7.342323 -5.62935,6.067939 -4.40427,8.900908 4.10908,-5.699475 20.01626,-6.782302 30.06866,-8.013926 1.19998,-0.147021 -9.58818,-6.036449 -5.94008,-3.630747 -3.37506,-4.626422 -8.6628,-3.538447 -11.47431,-1.079349 -0.47935,0.130901 -0.92545,0.393308 -1.40625,0.512024 0.005,-0.08199 -0.0249,-0.163772 -0.0937,-0.238944 -0.25015,-0.273242 -0.5,-0.578006 -0.5,-0.27308 l -2.75,-1.092318 C 208.04291,22.153105 206.23029,15.25 206.00005,15.25 l -5e-5,0 z" />
  <path
     style="color:#000000;fill:#916f6f;fill-opacity:1;stroke:none; stroke-width:1px;marker:none;visibility:visible;display:inline;overflow:visible;enable-background:accumulate"
     d="m 268.47112,27.446984 c 7.78261,-3.653342 11.37018,19.471603 6.20352,18.279549 -2.07644,-0.479077 -5.32614,-4.562888 -6.88497,-9.852648 -0.71317,-2.420058 1.01807,-5.14313 0.33417,-8.041549" />
  <path
     style="fill:#483e37;fill-opacity:1;stroke:none"
     d="m 267.16608,34.25 c 0.61433,-0.628652 1.27505,-1.103493 1.88409,-1.75 0.86074,-0.913691 4.27036,-3.566142 3.53267,-2 -0.55953,1.187924 -1.60346,2.436146 -2.35511,3.5 -0.43311,0.613019 -1.32755,1.068441 -1.64858,1.75 -0.0481,0.102225 -0.4205,0.5 0,0.5 0.0812,0 6.39214,-0.940254 4.00369,0.75 -0.79502,0.562621 -1.68853,1.116964 -2.59062,1.5 -0.16452,0.06985 -1.53542,0.129881 -1.64858,0.25 -0.0926,0.09828 1.47132,1.372865 1.64858,1.25 1.58593,-1.0993 5.45765,4.650353 3.29716,6.5 -3.08386,-3.768873 -8.58627,-7.246424 -11.27646,-9.529038 -1.03306,-0.876553 1.23881,-0.464665 0.44293,-1.220962 0,-0.25 0.47103,0 0.70654,0 0.9876,0 2.16815,-0.275772 4.00369,-1.5 z" />
    </g>
    </g>
    </g>
</svg>
