<?xml version="1.0" encoding="UTF-8" standalone="no"?>
<!-- Created with Inkscape (http://www.inkscape.org/) -->

<svg
   xmlns:dc="http://purl.org/dc/elements/1.1/"
   xmlns:cc="http://creativecommons.org/ns#"
   xmlns:rdf="http://www.w3.org/1999/02/22-rdf-syntax-ns#"
   xmlns:svg="http://www.w3.org/2000/svg"
   xmlns="http://www.w3.org/2000/svg"
   xmlns:sodipodi="http://sodipodi.sourceforge.net/DTD/sodipodi-0.dtd"
   xmlns:inkscape="http://www.inkscape.org/namespaces/inkscape"
   id="svg3682"
   version="1.1"
   inkscape:version="0.47 r22583"
   width="446"
   height="507">
   <g class="bear-hand" transform="rotate(0 300 190)">
  <g
     id="g2938"
     transform="translate(-172.94456,7.3593426) ">
    <g
       id="g2935">
      <path
         style="fill:#483e37;fill-opacity:1;stroke:none"
         d="m 469.96875,149.5625 c -13.20824,0.51773 -24.15984,12.20371 -29.875,49.4375 -4.07528,14.74552 -1.08385,33.88645 -9.6875,40.0625 -3.71972,3.18833 -11.34199,15.82372 -13.1875,20.4375 -3.96734,19.22015 -27.07881,25.65622 -20.71875,43.5625 0.77472,1.93681 1.76765,4.20074 3.5,5.5 0.6797,0.50977 1.91317,0.60878 2.5,1 6.66094,4.44063 11.60904,7.30129 20,8.5 2.68714,0.38388 10.81132,-0.18679 13,-1.5 5.39523,-3.23714 11.92142,-6.42142 16.5,-11 1.38265,-1.38265 2.63405,-4.06703 4.5,-5 0.83817,-0.41908 -1.04832,3.45168 -0.5,4 0.9349,0.9349 6.40808,-3.90808 8,-5.5 0.3261,-0.3261 0.87899,1.0529 0.65625,1.40625 0.67732,-0.20574 3.08594,-0.73438 3.34375,-0.90625 0.31009,-0.20672 0.23648,-0.73648 0.5,-1 1.08806,-1.08806 2.91194,-1.91194 4,-3 0.52705,-0.52705 0.47295,-1.47295 1,-2 4.50347,-4.50347 11.92807,-16.85614 15,-23 1.45011,-2.90023 0.29653,2.5 0.5,2.5 0.22483,0 7.46872,-7.46872 9,-9 3.37933,-3.37933 4.44967,-10.59734 5,-15 0.42202,-3.37617 0,-7.09866 0,-10.5 0,-12.68338 -1.24624,-24.96243 -2.5,-37.5 -1.10629,-11.06294 1.08026,-21.71908 -2,-32.5 -1.29339,-4.52685 -3.4087,-9.20175 -6.34375,-12.6875 -7.74728,-3.78935 -15.2689,-6.58369 -22.1875,-6.3125 z m 22.34375,6.3125 c 0.24904,0.23627 0.5086,0.52682 0.75,0.75 l -0.53125,-0.75 -0.21875,0 z"
         id="path4391-1" />
    </g>
    <g
       transform="translate(176.09856,-6.3080082)"
       id="g2913">
      <path
         style="fill:#c8beb7;fill-opacity:1;stroke:none"
         d="m 224,309.5 c -1.01942,1.76241 -2.37695,3.31543 -3.5,5 -0.74681,1.12022 -1.95543,4.54457 -1,5.5 0.54801,0.54801 2.62863,-1.62863 3,-2 2.90357,-2.90357 5.15682,-6.68636 1.5,-8.5 z"
         id="path4436" />
      <path
         style="fill:#c8beb7;fill-opacity:1;stroke:none"
         d="m 230.5,313 c -3.47843,3.01285 -6,7.75432 -6,12.5 0,0.33333 -0.33333,1 0,1 1.66847,0 9.29044,-11.54779 9,-13 -0.14618,-0.73088 -0.66667,-1.33333 -3,-0.5 z"
         id="path4438" />
      <path
         style="fill:#c8beb7;fill-opacity:1;stroke:none"
         d="m 237.5,318.5 c -1.65829,1.20395 -3.07442,2.07442 -4.5,3.5 -0.73867,0.73867 -1.41389,2.12084 -2,3 -0.25009,0.37514 -1.78071,3.71929 -1.5,4 0.62855,0.62855 14.41773,-6.66455 12.5,-10.5 -0.14907,-0.29814 0.28583,-0.8285 0,-1 -0.76962,-0.46177 -1.66667,-0.66667 -4.5,1 z"
         id="path4440" />
      <path
         style="fill:#c8beb7;fill-opacity:1;stroke:none"
         d="m 245.5,321.5 c -0.90522,0.44504 -1.78362,0.78362 -2.5,1.5 -1.27392,1.27392 -1.60033,2.15049 -2.5,3.5 -3.3749,5.06235 4.68228,2.13543 6,-0.5 0.36021,-0.72042 0.65225,-1.8045 1,-2.5 0.23766,-0.47533 0.92339,-1.29434 0.5,-2 -0.42875,-0.71458 -1,-1.33333 -2.5,0 z"
         id="path4442" />
    </g>
  </g>
  </g>
</svg>
