<?xml version="1.0" encoding="UTF-8" standalone="no"?>
<!-- Created with Inkscape (http://www.inkscape.org/) -->

<svg
   xmlns:dc="http://purl.org/dc/elements/1.1/"
   xmlns:cc="http://creativecommons.org/ns#"
   xmlns:rdf="http://www.w3.org/1999/02/22-rdf-syntax-ns#"
   xmlns:svg="http://www.w3.org/2000/svg"
   xmlns="http://www.w3.org/2000/svg"
   xmlns:sodipodi="http://sodipodi.sourceforge.net/DTD/sodipodi-0.dtd"
   xmlns:inkscape="http://www.inkscape.org/namespaces/inkscape"
   width="303.3071"
   height="191.26772"
   id="svg2"
   version="1.1"
   inkscape:version="0.47 r22583"
   sodipodi:docname="flag-1-izr.svg">
  <defs
     id="defs4">
    <inkscape:perspective
       sodipodi:type="inkscape:persp3d"
       inkscape:vp_x="0 : 526.18109 : 1"
       inkscape:vp_y="0 : 1000 : 0"
       inkscape:vp_z="744.09448 : 526.18109 : 1"
       inkscape:persp3d-origin="372.04724 : 350.78739 : 1"
       id="perspective10" />
    <inkscape:perspective
       sodipodi:type="inkscape:persp3d"
       inkscape:vp_x="0 : 0.5 : 1"
       inkscape:vp_y="0 : 1000 : 0"
       inkscape:vp_z="1 : 0.5 : 1"
       inkscape:persp3d-origin="0.5 : 0.33333333 : 1"
       id="perspective4387-7" />
    <inkscape:perspective
       sodipodi:type="inkscape:persp3d"
       inkscape:vp_x="0 : 0.5 : 1"
       inkscape:vp_y="0 : 1000 : 0"
       inkscape:vp_z="1 : 0.5 : 1"
       inkscape:persp3d-origin="0.5 : 0.33333333 : 1"
       id="perspective4387" />
    <inkscape:perspective
       id="perspective4371"
       inkscape:persp3d-origin="372.04724 : 350.78739 : 1"
       inkscape:vp_z="744.09448 : 526.18109 : 1"
       inkscape:vp_y="0 : 1000 : 0"
       inkscape:vp_x="0 : 526.18109 : 1"
       sodipodi:type="inkscape:persp3d" />
    <inkscape:perspective
       id="perspective2833"
       inkscape:persp3d-origin="0.5 : 0.33333333 : 1"
       inkscape:vp_z="1 : 0.5 : 1"
       inkscape:vp_y="0 : 1000 : 0"
       inkscape:vp_x="0 : 0.5 : 1"
       sodipodi:type="inkscape:persp3d" />
    <inkscape:perspective
       sodipodi:type="inkscape:persp3d"
       inkscape:vp_x="0 : 526.18109 : 1"
       inkscape:vp_y="0 : 1000 : 0"
       inkscape:vp_z="744.09448 : 526.18109 : 1"
       inkscape:persp3d-origin="372.04724 : 350.78739 : 1"
       id="perspective4371-1" />
    <inkscape:perspective
       id="perspective4387-5"
       inkscape:persp3d-origin="0.5 : 0.33333333 : 1"
       inkscape:vp_z="1 : 0.5 : 1"
       inkscape:vp_y="0 : 1000 : 0"
       inkscape:vp_x="0 : 0.5 : 1"
       sodipodi:type="inkscape:persp3d" />
    <inkscape:perspective
       id="perspective4387-7-5"
       inkscape:persp3d-origin="0.5 : 0.33333333 : 1"
       inkscape:vp_z="1 : 0.5 : 1"
       inkscape:vp_y="0 : 1000 : 0"
       inkscape:vp_x="0 : 0.5 : 1"
       sodipodi:type="inkscape:persp3d" />
    <inkscape:perspective
       id="perspective10-4"
       inkscape:persp3d-origin="372.04724 : 350.78739 : 1"
       inkscape:vp_z="744.09448 : 526.18109 : 1"
       inkscape:vp_y="0 : 1000 : 0"
       inkscape:vp_x="0 : 526.18109 : 1"
       sodipodi:type="inkscape:persp3d" />
    <inkscape:perspective
       sodipodi:type="inkscape:persp3d"
       inkscape:vp_x="0 : 0.5 : 1"
       inkscape:vp_y="0 : 1000 : 0"
       inkscape:vp_z="1 : 0.5 : 1"
       inkscape:persp3d-origin="0.5 : 0.33333333 : 1"
       id="perspective4387-7-1" />
    <inkscape:perspective
       sodipodi:type="inkscape:persp3d"
       inkscape:vp_x="0 : 0.5 : 1"
       inkscape:vp_y="0 : 1000 : 0"
       inkscape:vp_z="1 : 0.5 : 1"
       inkscape:persp3d-origin="0.5 : 0.33333333 : 1"
       id="perspective4387-2" />
    <inkscape:perspective
       id="perspective4371-2"
       inkscape:persp3d-origin="372.04724 : 350.78739 : 1"
       inkscape:vp_z="744.09448 : 526.18109 : 1"
       inkscape:vp_y="0 : 1000 : 0"
       inkscape:vp_x="0 : 526.18109 : 1"
       sodipodi:type="inkscape:persp3d" />
  </defs>
  <sodipodi:namedview
     id="base"
     pagecolor="#ffffff"
     bordercolor="#666666"
     borderopacity="1.0"
     inkscape:pageopacity="0.0"
     inkscape:pageshadow="2"
     inkscape:zoom="3.7664485"
     inkscape:cx="89.994866"
     inkscape:cy="99.457239"
     inkscape:document-units="px"
     inkscape:current-layer="layer1-8"
     showgrid="false"
     inkscape:window-width="1024"
     inkscape:window-height="712"
     inkscape:window-x="-4"
     inkscape:window-y="-4"
     inkscape:window-maximized="1" />
  <metadata
     id="metadata7">
    <rdf:RDF>
      <cc:Work
         rdf:about="">
        <dc:format>image/svg+xml</dc:format>
        <dc:type
           rdf:resource="http://purl.org/dc/dcmitype/StillImage" />
        <dc:title></dc:title>
      </cc:Work>
    </rdf:RDF>
  </metadata>
  <g
     inkscape:label="Layer 1"
     inkscape:groupmode="layer"
     id="layer1"
     transform="translate(0,-861.09447)">
    <path
       style="fill:#ececec;fill-opacity:1"
       d="m 65.844522,29.311431 4.513536,0 c 7.915318,9.743117 31.230522,29.010476 38.028852,45.247194 10.96485,26.187785 17.53605,53.019785 20.91262,73.166745 -21.25752,-1.419 -44.104597,-9.35268 -43.011345,3.45153 L 86.022683,119.05114 C 82.004916,109.1743 79.01585,96.941243 70.358058,91.704425 l -5.04454,0 0.531004,-62.392994 z"
       id="path2816"
       sodipodi:nodetypes="ccscccccc"
       transform="translate(0,861.09447)" />
    <path
       style="fill:#000000;fill-opacity:0.0959596"
       d="m 118.14844,107.90005 c 3.40013,10.65092 9.60305,26.73563 9.82357,39.29432 -2.97141,-0.24118 -5.69357,0.26541 -9.29257,-1.85852 l -0.531,-37.4358 z"
       id="path3592"
       transform="translate(0,861.09447)"
       sodipodi:nodetypes="cccc" />
    <path
       style="fill:#00ccff;fill-opacity:1"
       d="m 118.28711,1008.2982 c -0.86371,-1.365 -11.73161,-44.84332 -14.8878,-60.68716 l -16.624119,-26.68296 -4.089003,-5.41024 -11.523061,-9.12725 -0.265502,-7.8554 c 0,-5.95358 0.0563,-6.99801 0.35981,-6.67011 0.47399,0.51215 18.183417,18.39417 18.711437,18.90324 6.035396,5.81883 24.768168,32.69355 28.825308,52.75954 6.09778,30.15866 9.51825,45.49084 9.86848,45.12334 -4.84199,0.9359 -5.55164,-1.1036 -10.37555,-0.353 z"
       id="path3630"
       sodipodi:nodetypes="ccccccssscc" />
    <path
       style="fill:#00ccff;fill-opacity:1"
       d="m 71.021809,929.83296 c 4.508692,4.60203 9.975305,9.20407 15.13362,13.80611 2.449832,9.95731 3.243524,18.67252 8.230566,30.53274 0.830385,10.18054 3.501101,19.83525 -0.265503,31.32919 -2.389519,-0.3201 -4.779037,0 -7.434058,4.5135 l 0,-31.59466 C 77.905033,957.40037 74.559765,955.35842 71.287311,952.93164 l -0.265502,-23.09868 z"
       id="path3632"
       sodipodi:nodetypes="cccccccc" />
    <path
       style="fill:#000000;fill-opacity:0.11111111"
       d="m 70.62356,893.06092 c 2.479239,0.43738 2.348002,3.16696 3.115208,4.93721 l 6.230415,49.37209 4.12665,-28.63468 c -1.269839,-6.11339 1.632126,9.0922 1.135309,27.88337 l 0.910312,31.13718 C 78.127798,951.1417 71.585182,952.35075 70.846076,951.63521 L 70.62356,893.06092 z"
       id="path2818"
       sodipodi:nodetypes="cccccccc" />
    <g
       transform="matrix(0.63383429,0,0,0.56958814,-116.06622,363.15777)"
       id="layer1-8"
       inkscape:label="Layer 1">
      <path
         transform="matrix(0.51616534,0,0,1.0531422,247.01621,556.38516)"
         d="m 188.60985,459.27729 -9.80022,2.9035 10.13685,0.89105 -10.18972,0.80247 9.73007,2.97915 -10.1339,-1.33363 8.89805,4.93704 -9.63517,-3.41144 7.67713,6.67917 -8.71534,-5.34016 6.1207,8.12937 -7.41461,-7.03548 4.29675,9.22429 -5.78982,-8.42332 2.28501,9.91606 -3.91199,-9.44303 0.17342,10.17446 -1.86319,-10.05002 -1.94576,9.98817 0.26705,-10.21778 -3.9799,9.36536 2.3856,-9.93898 -5.8401,8.33324 4.39991,-9.22579 -7.44506,6.93691 6.22191,-8.1094 -8.72463,5.23742 7.77198,-6.63858 -9.62289,3.30901 8.98238,-4.87763 -10.10059,1.23599 9.80021,-2.9035 -10.13685,-0.89105 10.18973,-0.80247 -9.73008,-2.97915 10.1339,1.33363 -8.89805,-4.93704 9.63518,3.41144 -7.67714,-6.67917 8.71534,5.34016 -6.12069,-8.12937 7.4146,7.03548 -4.29675,-9.22429 5.78983,8.42333 -2.28502,-9.91607 3.91199,9.44303 -0.17342,-10.17446 1.86319,10.05003 1.94576,-9.98818 -0.26704,10.21779 3.9799,-9.36537 -2.38561,9.93898 5.8401,-8.33324 -4.3999,9.2258 7.44505,-6.93692 -6.22191,8.1094 8.72463,-5.23742 -7.77198,6.63859 9.6229,-3.30901 -8.98239,4.87762 10.1006,-1.23599 z"
         inkscape:randomized="0"
         inkscape:rounded="0"
         inkscape:flatsided="false"
         sodipodi:arg2="-0.073506357"
         sodipodi:arg1="-0.19320352"
         sodipodi:r2="8.1047125"
         sodipodi:r1="18.222076"
         sodipodi:cy="462.776"
         sodipodi:cx="170.72681"
         sodipodi:sides="30"
         id="path3432"
         style="fill:#ffcc00;fill-opacity:1"
         sodipodi:type="star" />
    </g>
  </g>
</svg>
